<svg width="376" height="128" viewBox="0 0 376 128" fill="none" xmlns="http://www.w3.org/2000/svg">
<path d="M62.5647 46.8H59.3647L74.0847 2H82.9167L66.6608 50H55.9087L39.7167 6.032H43.6847L27.4927 50H16.7407L0.484745 2H9.38075L24.0367 46.8L20.9647 46.736L37.1567 2H46.3087L62.5647 46.8ZM102.626 50.896C98.4017 50.896 94.6471 50.1067 91.3617 48.528C88.0764 46.9067 85.4951 44.6667 83.6177 41.808C81.7404 38.9493 80.8017 35.6213 80.8017 31.824C80.8017 28.0693 81.6764 24.784 83.4257 21.968C85.2177 19.1093 87.6711 16.8907 90.7857 15.312C93.9431 13.6907 97.5484 12.88 101.602 12.88C105.655 12.88 109.154 13.7973 112.098 15.632C115.084 17.424 117.388 19.9627 119.01 23.248C120.631 26.5333 121.442 30.3947 121.442 34.832H87.3297V28.496H117.282L113.122 30.864C112.994 28.4747 112.418 26.4267 111.394 24.72C110.412 23.0133 109.068 21.712 107.362 20.816C105.698 19.8773 103.714 19.408 101.41 19.408C98.9777 19.408 96.8444 19.8987 95.0097 20.88C93.2177 21.8613 91.8097 23.248 90.7857 25.04C89.7617 26.7893 89.2497 28.88 89.2497 31.312C89.2497 34 89.8471 36.3253 91.0417 38.288C92.2791 40.2507 94.0071 41.7653 96.2257 42.832C98.4871 43.856 101.154 44.368 104.226 44.368C106.999 44.368 109.836 43.9413 112.738 43.088C115.639 42.192 118.199 40.9547 120.418 39.376V45.392C118.199 47.0987 115.49 48.4427 112.29 49.424C109.132 50.4053 105.911 50.896 102.626 50.896ZM140.681 34.384H149.257C149.513 36.304 150.302 37.9893 151.625 39.44C152.99 40.8907 154.782 42.0213 157.001 42.832C159.219 43.6 161.779 43.984 164.681 43.984C168.99 43.984 172.403 43.3227 174.921 42C177.438 40.6347 178.697 38.8 178.697 36.496C178.697 34.6187 177.971 33.2107 176.521 32.272C175.07 31.3333 172.446 30.6293 168.649 30.16L158.281 28.816C152.478 28.048 148.254 26.6187 145.609 24.528C143.006 22.3947 141.705 19.3867 141.705 15.504C141.705 12.56 142.579 10.0213 144.329 7.888C146.121 5.712 148.638 4.048 151.881 2.896C155.123 1.70133 158.921 1.104 163.273 1.104C167.582 1.104 171.401 1.744 174.729 3.024C178.057 4.304 180.702 6.096 182.665 8.4C184.67 10.6613 185.758 13.328 185.929 16.4H177.353C177.139 14.6933 176.414 13.2213 175.177 11.984C173.982 10.7467 172.361 9.78666 170.313 9.104C168.265 8.37866 165.854 8.016 163.081 8.016C159.155 8.016 156.019 8.656 153.673 9.936C151.326 11.216 150.153 12.9653 150.153 15.184C150.153 16.8907 150.835 18.2133 152.201 19.152C153.609 20.048 156.041 20.7307 159.497 21.2L169.993 22.672C174.302 23.2693 177.694 24.08 180.169 25.104C182.686 26.0853 184.478 27.4293 185.545 29.136C186.611 30.8 187.145 32.9547 187.145 35.6C187.145 38.672 186.206 41.36 184.329 43.664C182.451 45.968 179.806 47.76 176.393 49.04C173.022 50.2773 169.075 50.896 164.553 50.896C159.945 50.896 155.87 50.2133 152.329 48.848C148.83 47.44 146.057 45.4987 144.009 43.024C141.961 40.5493 140.851 37.6693 140.681 34.384ZM192.76 0.719997H201.08V50H192.76V0.719997ZM215.48 12.88C218.893 12.88 221.794 13.5627 224.184 14.928C226.573 16.2933 228.386 18.256 229.624 20.816C230.904 23.3333 231.544 26.384 231.544 29.968V50H223.224V31.312C223.224 27.5147 222.328 24.656 220.536 22.736C218.786 20.7733 216.205 19.792 212.792 19.792C210.445 19.792 208.376 20.3253 206.584 21.392C204.834 22.416 203.469 23.8667 202.488 25.744C201.549 27.6213 201.08 29.8187 201.08 32.336L198.136 30.736C198.52 26.9813 199.501 23.7813 201.08 21.136C202.658 18.4907 204.685 16.464 207.16 15.056C209.634 13.6053 212.408 12.88 215.48 12.88ZM272.397 50L270.989 36.56L272.653 31.888L270.989 27.28L272.397 13.776H280.973L279.053 31.888L280.973 50H272.397ZM274.957 31.888C274.146 35.6853 272.802 39.0133 270.925 41.872C269.047 44.7307 266.722 46.9493 263.949 48.528C261.218 50.1067 258.167 50.896 254.797 50.896C251.255 50.896 248.119 50.1067 245.389 48.528C242.658 46.9067 240.525 44.6667 238.989 41.808C237.453 38.9493 236.685 35.6427 236.685 31.888C236.685 28.0907 237.453 24.784 238.989 21.968C240.525 19.1093 242.658 16.8907 245.389 15.312C248.119 13.6907 251.255 12.88 254.797 12.88C258.167 12.88 261.218 13.6693 263.949 15.248C266.722 16.8267 269.047 19.0453 270.925 21.904C272.845 24.72 274.189 28.048 274.957 31.888ZM245.133 31.888C245.133 34.32 245.623 36.4747 246.605 38.352C247.629 40.1867 249.015 41.6373 250.765 42.704C252.514 43.728 254.519 44.24 256.781 44.24C259.085 44.24 261.218 43.728 263.181 42.704C265.143 41.6373 266.871 40.1867 268.365 38.352C269.901 36.4747 271.117 34.32 272.013 31.888C271.117 29.456 269.901 27.3227 268.365 25.488C266.871 23.6107 265.143 22.16 263.181 21.136C261.218 20.0693 259.085 19.536 256.781 19.536C254.519 19.536 252.514 20.0693 250.765 21.136C249.015 22.16 247.629 23.6107 246.605 25.488C245.623 27.3227 245.133 29.456 245.133 31.888ZM287.7 13.776H296.02V26.384L295.636 27.664V34.96L296.02 37.2V60.56H287.7V13.776ZM292.82 31.888C293.63 28.048 294.974 24.72 296.852 21.904C298.729 19.0453 301.033 16.8267 303.764 15.248C306.537 13.6693 309.609 12.88 312.98 12.88C316.521 12.88 319.657 13.6907 322.388 15.312C325.118 16.8907 327.252 19.1093 328.788 21.968C330.324 24.784 331.092 28.0907 331.092 31.888C331.092 35.6427 330.324 38.9493 328.788 41.808C327.252 44.6667 325.118 46.9067 322.388 48.528C319.657 50.1067 316.521 50.896 312.98 50.896C309.609 50.896 306.558 50.1067 303.828 48.528C301.097 46.9493 298.772 44.7307 296.852 41.872C294.974 39.0133 293.63 35.6853 292.82 31.888ZM322.644 31.888C322.644 29.456 322.132 27.3227 321.108 25.488C320.126 23.6107 318.761 22.16 317.012 21.136C315.262 20.0693 313.257 19.536 310.996 19.536C308.734 19.536 306.601 20.0693 304.596 21.136C302.633 22.16 300.905 23.6107 299.412 25.488C297.918 27.3227 296.702 29.456 295.764 31.888C296.702 34.32 297.918 36.4747 299.412 38.352C300.905 40.1867 302.633 41.6373 304.596 42.704C306.601 43.728 308.734 44.24 310.996 44.24C313.257 44.24 315.262 43.728 317.012 42.704C318.761 41.6373 320.126 40.1867 321.108 38.352C322.132 36.4747 322.644 34.32 322.644 31.888ZM356.508 50.896C352.284 50.896 348.53 50.1067 345.244 48.528C341.959 46.9067 339.378 44.6667 337.5 41.808C335.623 38.9493 334.684 35.6213 334.684 31.824C334.684 28.0693 335.559 24.784 337.308 21.968C339.1 19.1093 341.554 16.8907 344.668 15.312C347.826 13.6907 351.431 12.88 355.484 12.88C359.538 12.88 363.036 13.7973 365.98 15.632C368.967 17.424 371.271 19.9627 372.892 23.248C374.514 26.5333 375.324 30.3947 375.324 34.832H341.212V28.496H371.164L367.004 30.864C366.876 28.4747 366.3 26.4267 365.276 24.72C364.295 23.0133 362.951 21.712 361.244 20.816C359.58 19.8773 357.596 19.408 355.292 19.408C352.86 19.408 350.727 19.8987 348.892 20.88C347.1 21.8613 345.692 23.248 344.668 25.04C343.644 26.7893 343.132 28.88 343.132 31.312C343.132 34 343.73 36.3253 344.924 38.288C346.162 40.2507 347.89 41.7653 350.108 42.832C352.37 43.856 355.036 44.368 358.108 44.368C360.882 44.368 363.719 43.9413 366.62 43.088C369.522 42.192 372.082 40.9547 374.3 39.376V45.392C372.082 47.0987 369.372 48.4427 366.172 49.424C363.015 50.4053 359.794 50.896 356.508 50.896ZM64.381 103.192L65.213 101.336C69.0103 101.379 72.1037 101.955 74.493 103.064C76.925 104.173 78.6957 105.667 79.805 107.544C80.957 109.421 81.533 111.533 81.533 113.88C81.533 116.44 80.9143 118.701 79.677 120.664C78.4823 122.627 76.7117 124.184 74.365 125.336C72.0183 126.445 69.0957 127 65.597 127H33.597L37.373 102.36L33.597 79H64.445C68.8823 79 72.2957 80.0453 74.685 82.136C77.117 84.184 78.333 87.0213 78.333 90.648C78.333 92.568 77.8637 94.4453 76.925 96.28C76.029 98.072 74.557 99.608 72.509 100.888C70.5037 102.125 67.7943 102.893 64.381 103.192ZM42.109 124.632L38.845 120.216H64.637C67.2823 120.216 69.3303 119.619 70.781 118.424C72.2743 117.187 73.021 115.437 73.021 113.176C73.021 110.787 72.1463 108.931 70.397 107.608C68.6903 106.285 66.1517 105.624 62.781 105.624H41.981V99.096H61.949C64.2103 99.096 66.0877 98.4773 67.581 97.24C69.0743 95.96 69.821 94.1467 69.821 91.8C69.821 90.0507 69.2023 88.6213 67.965 87.512C66.7277 86.36 64.9357 85.784 62.589 85.784H38.845L42.109 81.368L45.501 102.36L42.109 124.632ZM85.4805 90.776H93.8005L95.9765 103.96V127H87.6565V102.36L85.4805 90.776ZM114.344 90.52V97.816C113.406 97.56 112.382 97.368 111.272 97.24C110.163 97.112 109.118 97.048 108.136 97.048C105.79 97.048 103.699 97.56 101.864 98.584C100.03 99.608 98.5792 101.144 97.5125 103.192C96.4885 105.197 95.9765 107.672 95.9765 110.616L94.0565 108.248C94.2272 105.688 94.6538 103.299 95.3365 101.08C96.0618 98.8187 97.0432 96.856 98.2805 95.192C99.5605 93.528 101.118 92.2267 102.952 91.288C104.787 90.3493 106.92 89.88 109.352 89.88C110.206 89.88 111.08 89.944 111.976 90.072C112.872 90.1573 113.662 90.3067 114.344 90.52ZM118.303 90.52L122.463 91.288L126.623 90.52V127H118.303V90.52ZM122.463 85.976C120.885 85.976 119.583 85.5493 118.559 84.696C117.535 83.8 117.023 82.648 117.023 81.24C117.023 79.832 117.535 78.7013 118.559 77.848C119.583 76.952 120.885 76.504 122.463 76.504C124.085 76.504 125.386 76.952 126.367 77.848C127.391 78.7013 127.903 79.832 127.903 81.24C127.903 82.648 127.391 83.8 126.367 84.696C125.386 85.5493 124.085 85.976 122.463 85.976ZM134.148 77.72H142.468V127H134.148V77.72ZM149.993 77.72H158.313V127H149.993V77.72ZM165.838 90.52L169.998 91.288L174.158 90.52V127H165.838V90.52ZM169.998 85.976C168.42 85.976 167.118 85.5493 166.094 84.696C165.07 83.8 164.558 82.648 164.558 81.24C164.558 79.832 165.07 78.7013 166.094 77.848C167.118 76.952 168.42 76.504 169.998 76.504C171.62 76.504 172.921 76.952 173.902 77.848C174.926 78.7013 175.438 79.832 175.438 81.24C175.438 82.648 174.926 83.8 173.902 84.696C172.921 85.5493 171.62 85.976 169.998 85.976ZM215.476 127L214.068 113.56L215.732 108.888L214.068 104.28L215.476 90.776H224.052L222.132 108.888L224.052 127H215.476ZM218.036 108.888C217.225 112.685 215.881 116.013 214.004 118.872C212.126 121.731 209.801 123.949 207.028 125.528C204.297 127.107 201.246 127.896 197.876 127.896C194.334 127.896 191.198 127.107 188.468 125.528C185.737 123.907 183.604 121.667 182.068 118.808C180.532 115.949 179.764 112.643 179.764 108.888C179.764 105.091 180.532 101.784 182.068 98.968C183.604 96.1093 185.737 93.8907 188.468 92.312C191.198 90.6907 194.334 89.88 197.876 89.88C201.246 89.88 204.297 90.6693 207.028 92.248C209.801 93.8267 212.126 96.0453 214.004 98.904C215.924 101.72 217.268 105.048 218.036 108.888ZM188.212 108.888C188.212 111.32 188.702 113.475 189.684 115.352C190.708 117.187 192.094 118.637 193.844 119.704C195.593 120.728 197.598 121.24 199.86 121.24C202.164 121.24 204.297 120.728 206.26 119.704C208.222 118.637 209.95 117.187 211.444 115.352C212.98 113.475 214.196 111.32 215.092 108.888C214.196 106.456 212.98 104.323 211.444 102.488C209.95 100.611 208.222 99.16 206.26 98.136C204.297 97.0693 202.164 96.536 199.86 96.536C197.598 96.536 195.593 97.0693 193.844 98.136C192.094 99.16 190.708 100.611 189.684 102.488C188.702 104.323 188.212 106.456 188.212 108.888ZM229.05 90.776H237.37L239.546 103.832V127H231.226V102.616L229.05 90.776ZM253.946 89.88C257.36 89.88 260.261 90.5627 262.65 91.928C265.04 93.2933 266.853 95.256 268.09 97.816C269.37 100.333 270.01 103.384 270.01 106.968V127H261.69V108.312C261.69 104.515 260.794 101.656 259.002 99.736C257.253 97.7733 254.672 96.792 251.258 96.792C248.912 96.792 246.842 97.3253 245.05 98.392C243.301 99.416 241.936 100.867 240.954 102.744C240.016 104.621 239.546 106.819 239.546 109.336L236.602 107.736C236.986 103.981 237.968 100.781 239.546 98.136C241.125 95.4907 243.152 93.464 245.626 92.056C248.101 90.6053 250.874 89.88 253.946 89.88ZM317.061 112.728C316.634 115.715 315.461 118.36 313.541 120.664C311.621 122.925 309.168 124.696 306.181 125.976C303.194 127.256 299.866 127.896 296.197 127.896C292.016 127.896 288.325 127.107 285.125 125.528C281.968 123.907 279.493 121.667 277.701 118.808C275.909 115.949 275.013 112.643 275.013 108.888C275.013 105.133 275.909 101.827 277.701 98.968C279.493 96.1093 281.968 93.8907 285.125 92.312C288.325 90.6907 292.016 89.88 296.197 89.88C299.866 89.88 303.194 90.52 306.181 91.8C309.168 93.08 311.621 94.872 313.541 97.176C315.461 99.4373 316.634 102.083 317.061 105.112H308.677C308.08 102.381 306.65 100.248 304.389 98.712C302.128 97.176 299.397 96.408 296.197 96.408C293.637 96.408 291.397 96.92 289.477 97.944C287.557 98.9253 286.064 100.355 284.997 102.232C283.973 104.067 283.461 106.285 283.461 108.888C283.461 111.448 283.973 113.667 284.997 115.544C286.064 117.421 287.557 118.872 289.477 119.896C291.397 120.877 293.637 121.368 296.197 121.368C299.44 121.368 302.192 120.579 304.453 119C306.714 117.421 308.122 115.331 308.677 112.728H317.061ZM341.869 127.896C337.645 127.896 333.891 127.107 330.605 125.528C327.32 123.907 324.739 121.667 322.861 118.808C320.984 115.949 320.045 112.621 320.045 108.824C320.045 105.069 320.92 101.784 322.669 98.968C324.461 96.1093 326.915 93.8907 330.029 92.312C333.187 90.6907 336.792 89.88 340.845 89.88C344.899 89.88 348.397 90.7973 351.341 92.632C354.328 94.424 356.632 96.9627 358.253 100.248C359.875 103.533 360.685 107.395 360.685 111.832H326.573V105.496H356.525L352.365 107.864C352.237 105.475 351.661 103.427 350.637 101.72C349.656 100.013 348.312 98.712 346.605 97.816C344.941 96.8773 342.957 96.408 340.653 96.408C338.221 96.408 336.088 96.8987 334.253 97.88C332.461 98.8613 331.053 100.248 330.029 102.04C329.005 103.789 328.493 105.88 328.493 108.312C328.493 111 329.091 113.325 330.285 115.288C331.523 117.251 333.251 118.765 335.469 119.832C337.731 120.856 340.397 121.368 343.469 121.368C346.243 121.368 349.08 120.941 351.981 120.088C354.883 119.192 357.443 117.955 359.661 116.376V122.392C357.443 124.099 354.733 125.443 351.533 126.424C348.376 127.405 345.155 127.896 341.869 127.896Z" fill="black"/>
</svg>
