<svg width="165" height="43" viewBox="0 0 165 43" fill="none" xmlns="http://www.w3.org/2000/svg">
<path d="M7.14003 36.8998L10.08 28.6198L18.6 5.09978C18.72 4.89978 18.88 4.79978 19.08 4.79978H22.44C22.64 4.79978 22.8 4.89978 22.92 5.09978L31.5 28.6198L34.32 36.8998L33.36 37.2598L30.54 28.9798C30.58 28.9798 30.58 28.9798 30.54 28.9798L21.96 5.45978C21.92 5.37978 22 5.41978 22.2 5.57978C22.44 5.69978 22.52 5.75978 22.44 5.75978H19.08C19 5.75978 19.06 5.69978 19.26 5.57978C19.5 5.41978 19.6 5.37978 19.56 5.45978L11.04 28.9798L8.10003 37.2598L7.14003 36.8998ZM31.02 29.2798H10.56V28.3198H31.02V29.2798ZM16.74 0.239784L19.5 5.03978C19.5 5.07978 19.5 5.11978 19.5 5.15978C19.54 5.15978 19.56 5.15978 19.56 5.15978L21 12.1798C21.08 12.4598 20.92 12.5998 20.52 12.5998C20.16 12.5598 20 12.4198 20.04 12.1798L21.96 5.15978C22 5.11978 22.02 5.09978 22.02 5.09978C22.02 5.05978 22.02 5.03978 22.02 5.03978L25.14 0.239784L25.98 0.719782L22.86 5.51978C22.82 5.55978 22.82 5.53978 22.86 5.45978C22.9 5.37978 22.92 5.35978 22.92 5.39978L21 12.4198C20.92 12.6598 20.76 12.7798 20.52 12.7798C20.28 12.7798 20.12 12.6598 20.04 12.4198L18.6 5.39978C18.6 5.35978 18.6 5.37978 18.6 5.45978C18.64 5.53978 18.66 5.55978 18.66 5.51978L15.9 0.719782L16.74 0.239784ZM16.2 25.4398L10.86 29.2198C10.74 29.2598 10.7 29.1398 10.74 28.8598C10.82 28.5398 10.88 28.4198 10.92 28.4998L13.8 32.2198L13.08 32.8198L10.2 29.0998C10.12 28.9798 10.08 28.8598 10.08 28.7398C10.12 28.5798 10.18 28.4598 10.26 28.3798L15.6 24.5998L16.2 25.4398ZM25.38 24.5998L31.26 28.3798C31.42 28.4598 31.5 28.5798 31.5 28.7398C31.5 28.8998 31.46 29.0198 31.38 29.0998L27.96 32.8198L27.24 32.2198L30.66 28.4998C30.74 28.3798 30.8 28.4798 30.84 28.7998C30.92 29.1198 30.9 29.2598 30.78 29.2198L24.9 25.4398L25.38 24.5998ZM12.54 41.6398L7.32003 37.4398C7.24003 37.3598 7.32003 37.3398 7.56003 37.3798C7.84003 37.3798 7.94003 37.4198 7.86003 37.4998L0.780027 41.6998L0.300027 40.8598L7.38003 36.6598C7.46003 36.5798 7.54003 36.5598 7.62003 36.5998C7.74003 36.5998 7.84003 36.6398 7.92003 36.7198L13.14 40.9198L12.54 41.6398ZM41.1 41.6998L33.6 37.4998C33.52 37.4198 33.6 37.3798 33.84 37.3798C34.12 37.3798 34.22 37.3998 34.14 37.4398L28.5 41.6398L27.9 40.9198L33.54 36.7198C33.62 36.6398 33.7 36.5998 33.78 36.5998C33.9 36.5598 34 36.5798 34.08 36.6598L41.58 40.8598L41.1 41.6998ZM13.44 32.9998L13.92 32.6398C13.48 34.2798 13.16 35.6198 12.96 36.6598C12.8 37.6598 12.76 38.4998 12.84 39.1798C12.92 39.8598 13.06 40.4998 13.26 41.0998C13.34 41.2598 13.34 41.3998 13.26 41.5198C13.18 41.6798 13.04 41.7598 12.84 41.7598H0.540027C0.340027 41.7598 0.200027 41.6598 0.120027 41.4598C0.0400268 41.2998 0.0600268 41.1398 0.180027 40.9798C0.620027 40.3798 1.06003 39.6598 1.50003 38.8198C1.98003 37.9798 2.52003 36.8398 3.12003 35.3998C3.76003 33.9198 4.56003 31.9598 5.52003 29.5198C6.48003 27.0798 7.68003 23.9598 9.12003 20.1598C10.4 16.7598 11.46 13.9198 12.3 11.6398C13.14 9.35978 13.82 7.51978 14.34 6.11978C14.86 4.67978 15.22 3.53978 15.42 2.69978C15.66 1.81978 15.8 1.07978 15.84 0.479785C15.84 0.319784 15.88 0.199784 15.96 0.119782C16.08 0.0397832 16.2 -0.000216246 16.32 -0.000216246H25.56C25.68 -0.000216246 25.78 0.0397832 25.86 0.119782C25.94 0.199784 26 0.299783 26.04 0.419782C26.16 0.979782 26.32 1.67978 26.52 2.51978C26.76 3.31978 27.1 4.41978 27.54 5.81978C28.02 7.17978 28.68 9.01978 29.52 11.3398C30.36 13.6598 31.44 16.5998 32.76 20.1598C34.2 23.9598 35.4 27.0798 36.36 29.5198C37.32 31.9598 38.1 33.9198 38.7 35.3998C39.34 36.8398 39.88 37.9798 40.32 38.8198C40.8 39.6598 41.26 40.3798 41.7 40.9798C41.82 41.1398 41.84 41.2998 41.76 41.4598C41.68 41.6598 41.54 41.7598 41.34 41.7598H28.2C28.04 41.7598 27.92 41.6798 27.84 41.5198C27.76 41.3998 27.74 41.2598 27.78 41.0998C28.02 40.4998 28.16 39.8598 28.2 39.1798C28.28 38.4998 28.24 37.6598 28.08 36.6598C27.92 35.6198 27.6 34.2798 27.12 32.6398L27.6 32.9998H13.44ZM20.04 12.4798H21L16.38 25.1998L15.9 24.5398H25.14L24.66 25.1998L20.04 12.4798ZM13.44 32.0398H27.6C27.72 32.0398 27.82 32.0798 27.9 32.1598C27.98 32.1998 28.04 32.2798 28.08 32.3998C28.56 34.1598 28.88 35.5998 29.04 36.7198C29.2 37.7998 29.24 38.6998 29.16 39.4198C29.08 40.1398 28.9 40.8198 28.62 41.4598L28.2 40.7998H41.34L40.98 41.5798C40.5 40.9798 40.02 40.2598 39.54 39.4198C39.1 38.5398 38.56 37.3598 37.92 35.8798C37.28 34.3998 36.48 32.4398 35.52 29.9998C34.56 27.5198 33.36 24.3598 31.92 20.5198C30.56 16.9198 29.44 13.9598 28.56 11.6398C27.72 9.31978 27.06 7.45978 26.58 6.05978C26.14 4.61978 25.8 3.49978 25.56 2.69978C25.36 1.85978 25.2 1.13978 25.08 0.539784L25.56 0.959782H16.32L16.8 0.479785C16.76 1.07978 16.62 1.81978 16.38 2.69978C16.18 3.57978 15.82 4.73978 15.3 6.17978C14.78 7.61978 14.08 9.49978 13.2 11.8198C12.36 14.1398 11.28 17.0398 9.96003 20.5198C8.52003 24.3598 7.32003 27.5198 6.36003 29.9998C5.40003 32.4398 4.60003 34.3998 3.96003 35.8798C3.32003 37.3598 2.76003 38.5398 2.28003 39.4198C1.84003 40.2598 1.38003 40.9798 0.900027 41.5798L0.540027 40.7998H12.84L12.42 41.4598C12.18 40.8198 12 40.1398 11.88 39.4198C11.8 38.6998 11.84 37.7998 12 36.7198C12.16 35.5998 12.48 34.1598 12.96 32.3998C13 32.2798 13.06 32.1998 13.14 32.1598C13.22 32.0798 13.32 32.0398 13.44 32.0398ZM21 12.1198L25.62 24.8398C25.66 24.9998 25.64 25.1598 25.56 25.3198C25.48 25.4398 25.34 25.4998 25.14 25.4998H15.9C15.74 25.4998 15.6 25.4398 15.48 25.3198C15.4 25.1598 15.38 24.9998 15.42 24.8398L20.04 12.1198C20.12 11.9198 20.28 11.8198 20.52 11.8198C20.76 11.8198 20.92 11.9198 21 12.1198ZM49.3153 37.5598V22.8598V4.19978C49.3153 4.07978 49.3553 3.97978 49.4353 3.89978C49.5553 3.77978 49.6753 3.71978 49.7953 3.71978H59.4553C62.7353 3.71978 65.2953 4.61978 67.1353 6.41978C69.0153 8.21978 69.9553 10.5998 69.9553 13.5598C69.9553 16.1998 69.1753 18.4198 67.6153 20.2198C66.0953 21.9798 64.0953 23.0198 61.6153 23.3398C61.6153 23.3398 61.5953 23.3398 61.5553 23.3398H49.7953V22.3798H61.5553C61.5553 22.3798 61.5353 22.3798 61.4953 22.3798C63.7353 22.0998 65.5353 21.1598 66.8953 19.5598C68.2953 17.9598 68.9953 15.9598 68.9953 13.5598C68.9953 10.8398 68.1353 8.67978 66.4153 7.07978C64.7353 5.47978 62.4153 4.67978 59.4553 4.67978H49.7953C49.6753 4.67978 49.7153 4.57978 49.9153 4.37978C50.1553 4.13978 50.2753 4.07978 50.2753 4.19978V22.8598V37.5598H49.3153ZM61.9753 22.6198L71.6353 37.3198L70.7953 37.7998L61.1353 23.0998L61.9753 22.6198ZM54.3553 19.6198L50.0953 23.2198C49.9753 23.2998 49.9153 23.1798 49.9153 22.8598C49.9153 22.5398 49.9753 22.4198 50.0953 22.4998L54.4153 26.0998L53.8153 26.8198L49.4953 23.2198C49.3753 23.1398 49.3153 23.0198 49.3153 22.8598C49.3153 22.6998 49.3753 22.5798 49.4953 22.4998L53.7553 18.8998L54.3553 19.6198ZM55.4353 41.6998L49.5553 37.9798C49.4753 37.8998 49.5553 37.8598 49.7953 37.8598C50.0353 37.8598 50.1153 37.8998 50.0353 37.9798L44.0953 41.6998L43.6153 40.8598L49.5553 37.1398C49.6353 37.0998 49.7153 37.0798 49.7953 37.0798C49.9153 37.0798 49.9953 37.0998 50.0353 37.1398L55.9153 40.8598L55.4353 41.6998ZM44.0953 0.059783L50.0353 3.77979C50.0753 3.77979 50.0953 3.79978 50.0953 3.83978L54.5953 7.61978L53.9953 8.33978L49.4953 4.55978C49.4953 4.55978 49.4953 4.57978 49.4953 4.61979C49.5353 4.61979 49.5553 4.61979 49.5553 4.61979L43.6153 0.899783L44.0953 0.059783ZM58.9153 26.2198L61.1353 22.6198C61.2153 22.5398 61.2953 22.4798 61.3753 22.4398C61.4953 22.3598 61.5953 22.3398 61.6753 22.3798L67.7353 24.1798L67.4953 25.1398L61.4353 23.3398C61.3153 23.2998 61.3953 23.2398 61.6753 23.1598C61.9553 23.0398 62.0553 23.0198 61.9753 23.0998L59.7553 26.6998L58.9153 26.2198ZM80.0353 41.6998L71.0353 37.9798C70.9553 37.9398 71.0353 37.8998 71.2753 37.8598C71.5153 37.8198 71.5953 37.8398 71.5153 37.9198L67.2553 41.6398L66.6553 40.9198L70.9153 37.1998C70.9953 37.1198 71.0753 37.0798 71.1553 37.0798C71.2353 37.0398 71.3153 37.0598 71.3953 37.1398L80.3953 40.8598L80.0353 41.6998ZM43.8553 41.7598C43.6953 41.7598 43.5553 41.6798 43.4353 41.5198C43.3553 41.3598 43.3553 41.1998 43.4353 41.0398C43.7553 40.4398 44.0153 39.7398 44.2153 38.9398C44.4153 38.0998 44.5553 36.9398 44.6353 35.4598C44.7553 33.9798 44.8353 32.0398 44.8753 29.6398C44.9553 27.1998 44.9953 24.0998 44.9953 20.3398C44.9953 16.7798 44.9553 13.8598 44.8753 11.5798C44.8353 9.29978 44.7553 7.45978 44.6353 6.05978C44.5553 4.65978 44.4153 3.55978 44.2153 2.75978C44.0153 1.95978 43.7553 1.27978 43.4353 0.719782C43.3553 0.519782 43.3553 0.359783 43.4353 0.239784C43.5553 0.0797839 43.6953 -0.000216246 43.8553 -0.000216246H59.3953C62.5153 -0.000216246 65.1953 0.579783 67.4353 1.73978C69.6753 2.85978 71.3953 4.41978 72.5953 6.41978C73.7953 8.41978 74.3953 10.7598 74.3953 13.4398C74.3953 16.0398 73.7953 18.3598 72.5953 20.3998C71.4353 22.3998 69.8553 23.9598 67.8553 25.0798L68.0353 24.4198C69.9553 27.2998 71.5753 29.6998 72.8953 31.6198C74.2153 33.4998 75.3153 35.0198 76.1953 36.1798C77.1153 37.3398 77.9153 38.2798 78.5953 38.9998C79.2753 39.7198 79.9153 40.3598 80.5153 40.9198C80.7153 41.0798 80.7553 41.2598 80.6353 41.4598C80.5553 41.6598 80.4153 41.7598 80.2153 41.7598H66.9553C66.8353 41.7598 66.7153 41.7198 66.5953 41.6398C66.5153 41.5598 66.4753 41.4598 66.4753 41.3398C66.4353 40.8198 66.2953 40.2398 66.0553 39.5998C65.8553 38.9198 65.4753 38.0598 64.9153 37.0198C64.3953 35.9398 63.6353 34.5798 62.6353 32.9398C61.6753 31.2598 60.4353 29.1798 58.9153 26.6998L59.3353 26.9398H54.1153L54.5953 26.4598C54.6353 29.7398 54.6953 32.3198 54.7753 34.1998C54.8953 36.0798 55.0553 37.5198 55.2553 38.5198C55.4953 39.5198 55.7753 40.3598 56.0953 41.0398C56.1753 41.1998 56.1753 41.3598 56.0953 41.5198C56.0153 41.6798 55.8753 41.7598 55.6753 41.7598H43.8553ZM59.5153 8.45978H54.2953L54.7753 8.03978C54.6953 9.31978 54.6353 10.8798 54.5953 12.7198C54.5553 14.5198 54.5353 16.6998 54.5353 19.2598L54.0553 18.7798H60.1153C61.4353 18.7798 62.4953 18.3198 63.2953 17.3998C64.1353 16.4398 64.5553 15.1798 64.5553 13.6198C64.5553 12.0198 64.1153 10.7598 63.2353 9.83978C62.3953 8.91978 61.1553 8.45978 59.5153 8.45978ZM43.8553 40.7998H55.6753L55.2553 41.5198C54.9353 40.7998 54.6553 39.9398 54.4153 38.9398C54.1753 37.8998 53.9953 36.4198 53.8753 34.4998C53.7553 32.5398 53.6753 29.8598 53.6353 26.4598C53.6353 26.3398 53.6753 26.2398 53.7553 26.1598C53.8753 26.0398 53.9953 25.9798 54.1153 25.9798H59.3353C59.4953 25.9798 59.6353 26.0598 59.7553 26.2198C61.3553 28.7798 62.6353 30.9198 63.5953 32.6398C64.5953 34.3198 65.3553 35.6998 65.8753 36.7798C66.4353 37.8598 66.8153 38.7398 67.0153 39.4198C67.2553 40.0998 67.3953 40.6998 67.4353 41.2198L66.9553 40.7998H80.2153L79.9153 41.6398C79.3153 41.0798 78.6753 40.4398 77.9953 39.7198C77.3153 38.9998 76.4953 38.0398 75.5353 36.8398C74.6153 35.6398 73.4753 34.0798 72.1153 32.1598C70.7953 30.2398 69.1553 27.8198 67.1953 24.8998C67.1553 24.8198 67.1353 24.6998 67.1353 24.5398C67.1753 24.3798 67.2553 24.2798 67.3753 24.2398C69.2553 23.1998 70.7353 21.7598 71.8153 19.9198C72.8953 18.0398 73.4353 15.8798 73.4353 13.4398C73.4353 10.9198 72.8553 8.73978 71.6953 6.89978C70.5753 5.01978 68.9753 3.55978 66.8953 2.51978C64.8153 1.47978 62.3153 0.959782 59.3953 0.959782H43.8553L44.2753 0.239784C44.5953 0.839784 44.8553 1.55978 45.0553 2.39979C45.2553 3.19978 45.4153 4.31978 45.5353 5.75978C45.6953 7.15978 45.7953 9.03978 45.8353 11.3998C45.9153 13.7198 45.9553 16.6998 45.9553 20.3398C45.9553 24.1798 45.9153 27.3398 45.8353 29.8198C45.7953 32.2998 45.6953 34.2998 45.5353 35.8198C45.4153 37.2998 45.2553 38.4798 45.0553 39.3598C44.8553 40.1998 44.5953 40.9198 44.2753 41.5198L43.8553 40.7998ZM59.5153 7.49978C61.3953 7.49978 62.8553 8.05978 63.8953 9.17978C64.9753 10.2998 65.5153 11.7798 65.5153 13.6198C65.5153 15.4598 64.9953 16.9398 63.9553 18.0598C62.9553 19.1798 61.6753 19.7398 60.1153 19.7398H54.0553C53.9353 19.7398 53.8153 19.6998 53.6953 19.6198C53.6153 19.4998 53.5753 19.3798 53.5753 19.2598C53.5753 16.6998 53.5953 14.5198 53.6353 12.7198C53.6753 10.8798 53.7353 9.27978 53.8153 7.91978C53.8153 7.79978 53.8553 7.69978 53.9353 7.61978C54.0553 7.53978 54.1753 7.49978 54.2953 7.49978H59.5153ZM92.01 0.059783L97.95 3.77979C98.03 3.81978 97.95 3.83978 97.71 3.83978C97.47 3.83978 97.39 3.81978 97.47 3.77979L103.35 0.059783L103.83 0.899783L97.95 4.61979C97.91 4.65978 97.83 4.67978 97.71 4.67978C97.63 4.67978 97.55 4.65978 97.47 4.61979L91.53 0.899783L92.01 0.059783ZM98.19 4.19978V27.2398C98.19 30.6798 97.27 33.4198 95.43 35.4598C93.63 37.4598 91.13 38.4798 87.93 38.5198C87.17 38.5198 86.39 38.4598 85.59 38.3398C84.79 38.1798 83.97 37.9598 83.13 37.6798L83.49 36.7198C84.29 36.9998 85.05 37.2198 85.77 37.3798C86.53 37.4998 87.25 37.5598 87.93 37.5598C90.89 37.5198 93.17 36.5798 94.77 34.7398C96.41 32.8998 97.23 30.3998 97.23 27.2398V4.19978H98.19ZM79.29 40.0198L83.01 36.8398C83.09 36.7598 83.11 36.8598 83.07 37.1398C83.03 37.4198 82.97 37.5198 82.89 37.4398L79.17 30.3598L80.01 29.8798L83.73 36.9598C83.81 37.0798 83.83 37.1998 83.79 37.3198C83.75 37.3998 83.69 37.4798 83.61 37.5598L79.89 40.7398L79.29 40.0198ZM79.11 30.1198C79.11 29.9198 79.21 29.7798 79.41 29.6998C79.61 29.5798 79.79 29.5998 79.95 29.7598C81.31 31.1998 82.63 32.2198 83.91 32.8198C85.19 33.4198 86.41 33.7198 87.57 33.7198C89.25 33.7198 90.55 33.1798 91.47 32.0998C92.43 31.0198 92.91 29.3598 92.91 27.1198V20.3398C92.91 16.7798 92.87 13.8598 92.79 11.5798C92.75 9.29978 92.67 7.45978 92.55 6.05978C92.47 4.65978 92.33 3.55978 92.13 2.75978C91.93 1.95978 91.67 1.27978 91.35 0.719782C91.27 0.519782 91.27 0.359783 91.35 0.239784C91.47 0.0797839 91.61 -0.000216246 91.77 -0.000216246H103.59C103.79 -0.000216246 103.93 0.0797839 104.01 0.239784C104.09 0.359783 104.09 0.519782 104.01 0.719782C103.73 1.27978 103.47 1.95978 103.23 2.75978C103.03 3.55978 102.87 4.65978 102.75 6.05978C102.67 7.45978 102.59 9.29978 102.51 11.5798C102.47 13.8598 102.45 16.7798 102.45 20.3398V27.4198C102.45 30.2598 101.89 32.7998 100.77 35.0398C99.69 37.2798 98.09 39.0598 95.97 40.3798C93.85 41.6598 91.29 42.3198 88.29 42.3598C86.97 42.3598 85.55 42.2398 84.03 41.9998C82.55 41.7598 81.03 41.3798 79.47 40.8598C79.35 40.8198 79.25 40.7598 79.17 40.6798C79.13 40.5598 79.11 40.4598 79.11 40.3798V30.1198ZM80.07 30.1198V40.3798L79.71 39.8998C81.27 40.4198 82.77 40.7998 84.21 41.0398C85.69 41.2798 87.05 41.3998 88.29 41.3998C91.09 41.3598 93.47 40.7398 95.43 39.5398C97.39 38.2998 98.89 36.6398 99.93 34.5598C100.97 32.4798 101.49 30.0998 101.49 27.4198V20.3398C101.49 16.6998 101.51 13.7198 101.55 11.3998C101.63 9.03978 101.73 7.15978 101.85 5.75978C102.01 4.31978 102.19 3.19978 102.39 2.39979C102.63 1.55978 102.89 0.839784 103.17 0.239784L103.59 0.959782H91.77L92.19 0.239784C92.51 0.839784 92.77 1.55978 92.97 2.39979C93.17 3.19978 93.33 4.31978 93.45 5.75978C93.61 7.15978 93.71 9.03978 93.75 11.3998C93.83 13.7198 93.87 16.6998 93.87 20.3398V27.1198C93.87 29.6798 93.29 31.5798 92.13 32.8198C91.01 34.0598 89.49 34.6798 87.57 34.6798C86.29 34.6798 84.95 34.3598 83.55 33.7198C82.15 33.0398 80.71 31.9598 79.23 30.4798L80.07 30.1198ZM115.878 4.19978V37.5598H114.918V4.19978H115.878ZM121.038 41.6998L115.158 37.9798C115.078 37.8998 115.158 37.8598 115.398 37.8598C115.638 37.8598 115.718 37.8998 115.638 37.9798L109.698 41.6998L109.218 40.8598L115.158 37.1398C115.238 37.0998 115.318 37.0798 115.398 37.0798C115.518 37.0798 115.598 37.0998 115.638 37.1398L121.518 40.8598L121.038 41.6998ZM109.698 0.059783L115.638 3.77979C115.718 3.81978 115.638 3.83978 115.398 3.83978C115.158 3.83978 115.078 3.81978 115.158 3.77979L121.038 0.059783L121.518 0.899783L115.638 4.61979C115.598 4.65978 115.518 4.67978 115.398 4.67978C115.318 4.67978 115.238 4.65978 115.158 4.61979L109.218 0.899783L109.698 0.059783ZM109.458 41.7598C109.298 41.7598 109.158 41.6798 109.038 41.5198C108.958 41.3598 108.958 41.1998 109.038 41.0398C109.358 40.4398 109.618 39.7398 109.818 38.9398C110.018 38.0998 110.158 36.9398 110.238 35.4598C110.358 33.9798 110.438 32.0398 110.478 29.6398C110.558 27.1998 110.598 24.0998 110.598 20.3398C110.598 16.7798 110.558 13.8598 110.478 11.5798C110.438 9.29978 110.358 7.45978 110.238 6.05978C110.158 4.65978 110.018 3.55978 109.818 2.75978C109.618 1.95978 109.358 1.27978 109.038 0.719782C108.958 0.519782 108.958 0.359783 109.038 0.239784C109.158 0.0797839 109.298 -0.000216246 109.458 -0.000216246H121.278C121.478 -0.000216246 121.618 0.0797839 121.698 0.239784C121.778 0.359783 121.778 0.519782 121.698 0.719782C121.418 1.27978 121.158 1.95978 120.918 2.75978C120.718 3.55978 120.558 4.65978 120.438 6.05978C120.358 7.45978 120.278 9.29978 120.198 11.5798C120.158 13.8598 120.138 16.7798 120.138 20.3398C120.138 24.0998 120.158 27.1998 120.198 29.6398C120.278 32.0398 120.358 33.9798 120.438 35.4598C120.558 36.9398 120.718 38.0998 120.918 38.9398C121.158 39.7398 121.418 40.4398 121.698 41.0398C121.778 41.1998 121.778 41.3598 121.698 41.5198C121.618 41.6798 121.478 41.7598 121.278 41.7598H109.458ZM109.458 40.7998H121.278L120.858 41.5198C120.578 40.9198 120.318 40.1998 120.078 39.3598C119.878 38.4798 119.698 37.2998 119.538 35.8198C119.418 34.2998 119.318 32.2998 119.238 29.8198C119.198 27.3398 119.178 24.1798 119.178 20.3398C119.178 16.6998 119.198 13.7198 119.238 11.3998C119.318 9.03978 119.418 7.15978 119.538 5.75978C119.698 4.31978 119.878 3.19978 120.078 2.39979C120.318 1.55978 120.578 0.839784 120.858 0.239784L121.278 0.959782H109.458L109.878 0.239784C110.198 0.839784 110.458 1.55978 110.658 2.39979C110.858 3.19978 111.018 4.31978 111.138 5.75978C111.298 7.15978 111.398 9.03978 111.438 11.3998C111.518 13.7198 111.558 16.6998 111.558 20.3398C111.558 24.1798 111.518 27.3398 111.438 29.8198C111.398 32.2998 111.298 34.2998 111.138 35.8198C111.018 37.2998 110.858 38.4798 110.658 39.3598C110.458 40.1998 110.198 40.9198 109.878 41.5198L109.458 40.7998ZM151.538 0.119782L156.758 4.31978C156.838 4.35978 156.738 4.37978 156.458 4.37978C156.218 4.33978 156.138 4.29978 156.218 4.25978L163.238 0.059783L163.718 0.899783L156.698 5.09978C156.618 5.13978 156.518 5.15978 156.398 5.15978C156.318 5.11978 156.238 5.07978 156.158 5.03978L150.938 0.839784L151.538 0.119782ZM124.598 0.059783L131.978 4.25978C132.058 4.29978 131.978 4.33978 131.738 4.37978C131.498 4.37978 131.398 4.35978 131.438 4.31978L137.018 0.119782L137.618 0.839784L132.038 5.03978C131.958 5.07978 131.858 5.11978 131.738 5.15978C131.658 5.15978 131.578 5.13978 131.498 5.09978L124.118 0.899783L124.598 0.059783ZM132.218 4.49978L137.858 21.2398C138.658 23.4798 139.498 25.9198 140.378 28.5598C141.258 31.1998 142.018 33.5998 142.658 35.7598C142.698 35.8398 142.598 35.7998 142.358 35.6398C142.118 35.4798 142.058 35.3998 142.178 35.3998H146.018C146.138 35.3998 146.078 35.4798 145.838 35.6398C145.598 35.7998 145.498 35.8398 145.538 35.7598C146.178 33.5998 146.938 31.1998 147.818 28.5598C148.698 25.9198 149.538 23.4798 150.338 21.2398L155.978 4.49978L156.938 4.85978L151.298 21.5998C150.498 23.8398 149.658 26.2598 148.778 28.8598C147.898 31.4598 147.138 33.8398 146.498 35.9998C146.458 36.1198 146.398 36.2198 146.318 36.2998C146.238 36.3398 146.138 36.3598 146.018 36.3598H142.178C142.058 36.3598 141.958 36.3398 141.878 36.2998C141.798 36.2198 141.738 36.1198 141.698 35.9998C141.058 33.8398 140.298 31.4598 139.418 28.8598C138.538 26.2598 137.698 23.8398 136.898 21.5998L131.258 4.85978L132.218 4.49978ZM138.998 41.0398L141.758 35.6398C141.758 35.6398 141.738 35.6598 141.698 35.6998C141.698 35.7398 141.698 35.7598 141.698 35.7598L143.798 28.6198C143.878 28.3798 144.038 28.2598 144.278 28.2598C144.558 28.2598 144.718 28.3798 144.758 28.6198L146.498 35.7598C146.498 35.7998 146.478 35.7998 146.438 35.7598C146.438 35.6798 146.438 35.6598 146.438 35.6998L149.018 41.0998L148.178 41.4598L145.598 36.0598C145.598 36.0598 145.578 36.0598 145.538 36.0598C145.538 36.0198 145.538 35.9998 145.538 35.9998L143.798 28.8598C143.758 28.6198 143.918 28.4998 144.278 28.4998C144.678 28.4998 144.838 28.6198 144.758 28.8598L142.658 35.9998C142.658 36.0398 142.638 36.0598 142.598 36.0598C142.598 36.0598 142.598 36.0798 142.598 36.1198L139.838 41.5198L138.998 41.0398ZM139.418 41.7598C139.298 41.7598 139.198 41.7198 139.118 41.6398C139.038 41.5598 138.978 41.4598 138.938 41.3398C138.858 40.7398 138.718 40.0398 138.518 39.2398C138.318 38.4398 137.978 37.3398 137.498 35.9398C137.058 34.5398 136.438 32.6998 135.638 30.4198C134.838 28.0998 133.798 25.1598 132.518 21.5998C131.158 17.7998 130.018 14.6798 129.098 12.2398C128.178 9.79978 127.418 7.85978 126.818 6.41978C126.218 4.93978 125.698 3.77978 125.258 2.93978C124.858 2.09978 124.438 1.37978 123.998 0.779784C123.878 0.579785 123.858 0.399785 123.938 0.239784C124.018 0.0797839 124.158 -0.000216246 124.358 -0.000216246H137.318C137.518 -0.000216246 137.658 0.0797839 137.738 0.239784C137.818 0.359783 137.818 0.499782 137.738 0.659782C137.458 1.37978 137.278 2.17978 137.198 3.05978C137.158 3.89978 137.278 5.03978 137.558 6.47978C137.878 7.87978 138.418 9.75978 139.178 12.1198C139.938 14.4798 140.958 17.5198 142.238 21.2398L144.758 28.5598H143.798L146.318 21.2398C147.598 17.5198 148.598 14.4798 149.318 12.1198C150.078 9.75978 150.618 7.87978 150.938 6.47978C151.258 5.03978 151.398 3.89978 151.358 3.05978C151.318 2.17978 151.138 1.37978 150.818 0.659782C150.738 0.499782 150.738 0.359783 150.818 0.239784C150.938 0.0797839 151.078 -0.000216246 151.238 -0.000216246H163.478C163.678 -0.000216246 163.818 0.0797839 163.898 0.239784C163.978 0.399785 163.958 0.579785 163.838 0.779784C163.438 1.37978 163.018 2.09978 162.578 2.93978C162.138 3.77978 161.618 4.93978 161.018 6.41978C160.418 7.85978 159.658 9.79978 158.738 12.2398C157.818 14.6798 156.678 17.7998 155.318 21.5998C154.038 25.1598 152.978 28.0998 152.138 30.4198C151.338 32.6998 150.718 34.5398 150.278 35.9398C149.838 37.2998 149.518 38.3798 149.318 39.1798C149.158 39.9798 149.078 40.6798 149.078 41.2798C149.078 41.4398 149.018 41.5598 148.898 41.6398C148.818 41.7198 148.718 41.7598 148.598 41.7598H139.418ZM139.418 40.7998H148.598L148.118 41.2798C148.118 40.6798 148.198 39.9798 148.358 39.1798C148.558 38.3398 148.878 37.2198 149.318 35.8198C149.758 34.3798 150.378 32.4998 151.178 30.1798C152.018 27.8198 153.078 24.8398 154.358 21.2398C155.758 17.3998 156.918 14.2598 157.838 11.8198C158.758 9.33978 159.518 7.35978 160.118 5.87978C160.758 4.39978 161.298 3.23978 161.738 2.39979C162.218 1.51978 162.678 0.779783 163.118 0.179781L163.478 0.959782H151.238L151.658 0.299783C151.978 1.05978 152.178 1.87978 152.258 2.75978C152.338 3.59978 152.238 4.75978 151.958 6.23978C151.678 7.67978 151.158 9.61978 150.398 12.0598C149.638 14.4998 148.598 17.6798 147.278 21.5998L144.758 28.9198C144.678 29.1198 144.518 29.2198 144.278 29.2198C144.038 29.2198 143.878 29.1198 143.798 28.9198L141.278 21.5998C139.918 17.6798 138.858 14.4998 138.098 12.0598C137.378 9.61978 136.858 7.67978 136.538 6.23978C136.258 4.75978 136.158 3.59978 136.238 2.75978C136.358 1.87978 136.578 1.05978 136.898 0.299783L137.318 0.959782H124.358L124.718 0.179781C125.158 0.779783 125.598 1.51978 126.038 2.39979C126.518 3.23978 127.058 4.39978 127.658 5.87978C128.298 7.35978 129.078 9.33978 129.998 11.8198C130.918 14.2598 132.078 17.3998 133.478 21.2398C134.758 24.8398 135.798 27.7998 136.598 30.1198C137.398 32.4398 138.018 34.3198 138.458 35.7598C138.938 37.1598 139.278 38.2798 139.478 39.1198C139.678 39.9198 139.818 40.6198 139.898 41.2198L139.418 40.7998Z" fill="black"/>
</svg>
