<?xml version="1.0" encoding="UTF-8"?>
<!-- Generator: Adobe Illustrator 28.0.0, SVG Export Plug-In . SVG Version: 6.00 Build 0)  -->
<svg xmlns="http://www.w3.org/2000/svg" xmlns:xlink="http://www.w3.org/1999/xlink" version="1.1" id="Calque_1" x="0px" y="0px" viewBox="0 0 88.6 88.6" style="enable-background:new 0 0 88.6 88.6;" xml:space="preserve">
<style type="text/css">
	.st0{fill-rule:evenodd;clip-rule:evenodd;fill:#FFFFFF;}
	.st1{fill:#243C36;}
</style>
<g>
	<path id="Tracé_3559_00000083082684276713393360000016529852342334837919_" class="st0" d="M44.3,0.5L44.3,0.5   c4,0,7.8,1.7,10.5,4.8c7.2-2.5,15.1,1.3,17.6,8.6c0.2,0.6,0.4,1.2,0.5,1.9c7.5,1.4,12.4,8.7,11,16.2c-0.1,0.6-0.3,1.3-0.5,1.9   c5.8,5,6.4,13.7,1.4,19.5c-0.4,0.5-0.9,1-1.4,1.4c2.5,7.2-1.3,15.1-8.6,17.6c-0.6,0.2-1.3,0.4-1.9,0.5c-1.5,7.5-8.7,12.4-16.2,11   c-0.6-0.1-1.3-0.3-1.9-0.5c-5,5.8-13.8,6.4-19.5,1.4c-0.5-0.4-1-0.9-1.4-1.4c-7.2,2.5-15.1-1.3-17.6-8.6c-0.2-0.6-0.4-1.2-0.5-1.9   c-7.5-1.4-12.4-8.7-11-16.2c0.1-0.6,0.3-1.3,0.5-1.9c-5.8-5-6.4-13.8-1.4-19.5c0.4-0.5,0.9-1,1.4-1.4c-2.5-7.2,1.3-15.1,8.6-17.6   c0.6-0.2,1.3-0.4,1.9-0.5c1.5-7.5,8.7-12.4,16.2-11c0.6,0.1,1.3,0.3,1.9,0.5C36.5,2.2,40.3,0.5,44.3,0.5 M55.1,5.7   c2,2.5,3.1,5.5,3.1,8.7v5.8l5.1-2.9c2.7-1.6,6-2.2,9.1-1.7C70.8,8.4,63.7,3.8,56.5,5.3C56,5.4,55.6,5.5,55.1,5.7 M33.5,82.9   c-2-2.5-3.1-5.5-3.1-8.7v-5.8l-5.1,2.9c-2.7,1.6-6,2.2-9.1,1.7c1.5,7.2,8.6,11.8,15.8,10.3C32.5,83.2,33,83,33.5,82.9 M15.6,72.3   c-0.5-3.1,0.1-6.3,1.7-9.1l2.9-5.1h-5.8c-3.2,0-6.2-1.1-8.7-3.1c-2.3,7,1.5,14.5,8.5,16.8C14.7,72.1,15.1,72.2,15.6,72.3    M20.5,57.7l4.8-8.3L17,44.6l-5.3,3.1c-2.7,1.6-4.8,4-5.8,6.9c2.4,2,5.4,3.1,8.5,3.1L20.5,57.7z M25.6,48.9l2.7-4.7l-2.7-4.7   l-8.1,4.7L25.6,48.9z M28.5,43.8l1.9-3.2v-3.7L26,39.4L28.5,43.8z M30.9,39.7l2.7-4.7l-2.7,1.6V39.7z M34.1,34.1l1.9-3.2h-5.1V36   L34.1,34.1z M36.3,30.4l2.7-4.6l-8-4.6v9.3L36.3,30.4z M39.2,25.3L44,17l-3.1-5.3c-1.6-2.7-4-4.8-6.9-5.8c-2,2.4-3.1,5.4-3.1,8.5   v6.1L39.2,25.3z M44.3,16.5l2.9-5.1c1.6-2.7,4.1-4.9,7-6c-4.9-5.5-13.3-6-18.8-1.1c-0.4,0.3-0.7,0.7-1.1,1.1c3,1.1,5.4,3.3,7,6   L44.3,16.5z M72.9,16.3c0.5,3.1-0.1,6.3-1.7,9.1l-2.9,5.1h5.8c3.2,0,6.2,1.1,8.7,3.1c2.3-7-1.5-14.5-8.5-16.8   C73.9,16.5,73.4,16.4,72.9,16.3 M68.1,30.9l-4.8,8.3l8.3,4.8l5.3-3.1c2.7-1.6,4.8-4,5.8-6.9c-2.4-2-5.4-3.1-8.5-3.1H68.1z M63,39.6   l-2.7,4.7l2.7,4.7l8.1-4.7L63,39.6z M60,44.8L58.2,48v3.7l4.4-2.5L60,44.8z M57.7,48.9L55,53.6l2.7-1.6V48.9z M54.5,54.5l-1.9,3.2   h5.1v-5.1L54.5,54.5z M52.3,58.2l-2.7,4.7l8.1,4.7v-9.3H52.3z M49.4,63.3l-4.8,8.3l3.1,5.3c1.6,2.7,4,4.8,6.9,5.8   c2-2.4,3.1-5.4,3.1-8.5v-6.1L49.4,63.3z M44.3,72.1l-2.9,5.1c-1.6,2.7-4.1,4.9-7,6c4.9,5.5,13.3,6,18.8,1.1   c0.4-0.3,0.7-0.7,1.1-1.1c-3-1.1-5.4-3.3-7-6L44.3,72.1z M34,82.7c2.9-1.1,5.4-3.1,6.9-5.8l3.1-5.3l-4.8-8.3l-8.3,4.8v6.1   C30.9,77.3,32,80.3,34,82.7 M44.3,71.1l4.7-8.1l-4.7-2.7L39.6,63L44.3,71.1z M49.2,62.6l2.5-4.4H48L44.8,60L49.2,62.6z M52,57.7   l1.6-2.7l-4.7,2.7H52z M54.1,54.1l3.6-6.2v-7.2l-3.6-6.2l-6.2-3.6h-7.2l-6.2,3.6l-3.6,6.2v7.2l3.6,6.2l6.2,3.6h7.2L54.1,54.1z    M58.2,47l1.6-2.7l-1.6-2.7V47z M60,43.8l2.5-4.4l-4.4-2.5v3.7L60,43.8z M62.8,39l4.7-8.1h-9.3v5.4L62.8,39z M67.8,30.4l3.1-5.3   c1.6-2.7,2.1-5.9,1.6-8.9c-3.1-0.5-6.2,0-8.9,1.6l-5.3,3.1v9.6H67.8z M54.6,5.9c-2.9,1.1-5.4,3.1-6.9,5.8L44.6,17l4.8,8.3l8.3-4.8   v-6.1C57.7,11.3,56.6,8.3,54.6,5.9 M44.3,17.5l-4.7,8.1l4.7,2.7l4.7-2.7L44.3,17.5z M39.4,26l-2.5,4.4h3.7l3.2-1.9L39.4,26z    M36.6,30.9L35,33.6l4.7-2.7L36.6,30.9z M30.4,41.6l-1.6,2.7l1.6,2.7V41.6z M28.5,44.8L26,49.2l4.4,2.5V48L28.5,44.8z M25.7,49.6   l-4.7,8.1h9.3v-5.4L25.7,49.6z M20.8,58.2l-3.1,5.3c-1.6,2.7-2.1,5.9-1.6,8.9c3.1,0.5,6.2,0,8.9-1.6l5.3-3.1v-9.6L20.8,58.2z    M5.5,54.2c1.1-3,3.3-5.4,6-7l5.1-2.9l-5.1-2.9c-2.7-1.6-4.9-4.1-6-7c-5.5,4.9-6,13.3-1.1,18.8C4.7,53.5,5.1,53.9,5.5,54.2 M17,44   l8.3-4.8l-4.8-8.3h-6.1c-3.1,0-6.1,1.1-8.5,3.1c1.1,2.9,3.1,5.4,5.8,6.9L17,44z M25.7,39l4.6-2.7v-5.4h-9.3L25.7,39z M83.1,34.3   c-1.1,3-3.3,5.4-6,7l-5.1,2.9l5.1,2.9c2.7,1.6,4.9,4.1,6,7c5.5-4.9,6-13.3,1.1-18.8C83.8,35,83.5,34.7,83.1,34.3 M71.6,44.6   l-8.3,4.8l4.8,8.3h6.1c3.1,0,6.1-1.1,8.5-3.1c-1.1-2.9-3.1-5.4-5.8-6.9L71.6,44.6z M62.8,49.6l-4.7,2.7v5.4h9.3L62.8,49.6z    M30.9,67.5l8.1-4.7l-2.7-4.7h-5.4V67.5z M39.4,62.6l4.4-2.5l-3.2-1.9h-3.7L39.4,62.6z M44.3,59.8l2.7-1.6h-5.4L44.3,59.8z    M57.7,21.1l-8.1,4.6l2.7,4.6h5.4L57.7,21.1z M49.2,26l-4.4,2.5l3.2,1.9h3.7L49.2,26z M44.3,28.8l-2.7,1.6H47L44.3,28.8z M5.7,33.5   c2.5-2,5.5-3.1,8.7-3.1h5.8l-2.9-5.1c-1.6-2.7-2.2-6-1.7-9.1C8.4,17.8,3.8,24.8,5.3,32C5.4,32.5,5.5,33,5.7,33.5 M20.8,30.4h9.6   v-9.6l-5.3-3.1c-2.7-1.6-5.9-2.1-8.9-1.6c-0.5,3.1,0,6.2,1.6,8.9L20.8,30.4z M82.9,55.1c-2.5,2-5.5,3.1-8.7,3.1h-5.8l2.9,5.1   c1.6,2.7,2.2,6,1.7,9.1c7.2-1.5,11.8-8.6,10.3-15.8C83.2,56.1,83,55.6,82.9,55.1 M67.8,58.2h-9.6v9.6l5.3,3.1   c2.7,1.6,5.9,2.1,8.9,1.6c0.5-3.1,0-6.2-1.6-8.9L67.8,58.2z M30.9,57.7H36l-1.9-3.2l-3.2-1.9L30.9,57.7z M36.6,57.7h3.1L35,55   L36.6,57.7z M57.7,30.9h-5.1l1.9,3.2l3.2,1.9V30.9z M52,30.9h-3.1l4.7,2.7L52,30.9z M16.3,15.6c3.1-0.5,6.3,0.1,9.1,1.7l5.1,2.9   v-5.8c0-3.2,1.1-6.2,3.1-8.7c-7-2.3-14.5,1.5-16.8,8.5C16.5,14.7,16.4,15.1,16.3,15.6 M72.3,72.9c-3.1,0.5-6.3-0.1-9.1-1.7   l-5.1-2.9v5.8c0,3.2-1.1,6.2-3.1,8.7c7,2.3,14.5-1.5,16.8-8.5C72.1,73.9,72.2,73.4,72.3,72.9 M30.9,52l2.7,1.6l-2.7-4.7V52z    M57.7,36.6L55,35l2.7,4.7V36.6z"></path>
	<path class="st1" d="M44.3,88.6c-3.3,0-6.7-1.2-9.4-3.5c-0.4-0.4-0.8-0.8-1.2-1.2c-3.5,1.1-7.3,0.9-10.6-0.8   c-3.4-1.7-6-4.6-7.3-8.2c-0.2-0.5-0.3-1.1-0.5-1.6c-3.6-0.8-6.7-2.9-8.8-6c-2.1-3.2-2.9-7-2.2-10.8c0.1-0.6,0.2-1.1,0.4-1.6   c-5.7-5.2-6.3-14.1-1.2-20c0.4-0.4,0.8-0.8,1.2-1.2c-2.4-7.4,1.6-15.4,9-17.9c0.5-0.2,1.1-0.3,1.6-0.5c0.8-3.6,2.9-6.7,6-8.8   c3.2-2.1,7-2.9,10.8-2.2c0.6,0.1,1.1,0.2,1.6,0.4c2.7-3,6.6-4.7,10.6-4.7h0c4,0,7.9,1.7,10.6,4.7c3.5-1.1,7.3-0.9,10.6,0.8   c3.4,1.7,6,4.6,7.3,8.2c0.2,0.5,0.3,1.1,0.5,1.6c7.6,1.6,12.5,9.1,11,16.7c-0.1,0.6-0.2,1.1-0.4,1.7c2.7,2.5,4.4,5.9,4.7,9.6   c0.3,3.8-1,7.5-3.5,10.4c-0.4,0.4-0.8,0.8-1.2,1.2c2.4,7.4-1.6,15.4-9,17.9c-0.5,0.2-1.1,0.3-1.6,0.5c-1.6,7.6-9.1,12.5-16.7,11   c-0.6-0.1-1.1-0.2-1.6-0.4C52.1,87,48.2,88.6,44.3,88.6z M35.2,83.3c4.8,4.8,12.5,5.1,17.6,0.5c0.2-0.2,0.4-0.3,0.5-0.5   c-2.8-1.2-5.1-3.3-6.6-5.9l-2.5-4.3l-2.5,4.3C40.3,80,38,82.1,35.2,83.3z M55.9,82.6c3.1,0.8,6.3,0.5,9.1-0.9   c3.1-1.5,5.3-4.2,6.4-7.4c0.1-0.2,0.1-0.5,0.2-0.7c-3,0.3-6.1-0.3-8.7-1.8l-4.3-2.5v5C58.7,77.2,57.7,80.2,55.9,82.6z M16.9,73.5   c1.7,6.5,8.3,10.7,15,9.3c0.2,0,0.5-0.1,0.7-0.2c-1.8-2.4-2.7-5.4-2.7-8.4v-5l-4.3,2.5C23,73.2,19.9,73.9,16.9,73.5z M31.4,68.3   v5.8c0,2.9,1,5.7,2.7,7.9c2.7-1.1,4.9-3,6.3-5.5l2.9-5L39,63.9L31.4,68.3z M45.1,71.6l2.9,5c1.4,2.5,3.7,4.4,6.4,5.5   c1.8-2.3,2.8-5.1,2.8-7.9v-5.8l-7.6-4.4L45.1,71.6z M58.7,67.5l5.1,2.9c2.5,1.4,5.4,2,8.2,1.6c0.4-2.8-0.1-5.8-1.6-8.2l-2.9-5.1   h-8.8V67.5z M16.6,72c2.8,0.4,5.8-0.1,8.2-1.6l5.1-2.9v-8.8l-8.8,0l-2.9,5.1C16.7,66.2,16.2,69.1,16.6,72z M69.2,58.7l2.5,4.3   c1.5,2.6,2.2,5.7,1.8,8.7c6.5-1.7,10.7-8.3,9.3-15c-0.1-0.2-0.1-0.5-0.2-0.7c-2.4,1.8-5.4,2.8-8.4,2.8c0,0,0,0,0,0H69.2z M6,55.9   C5.1,59,5.4,62.2,6.9,65c1.5,3.1,4.2,5.3,7.4,6.4c0.2,0.1,0.5,0.1,0.7,0.2c-0.3-3,0.3-6.1,1.8-8.7l2.5-4.3h-5   C11.4,58.7,8.4,57.7,6,55.9z M40.3,63.2l4,6.9l4-6.9l-4-2.3L40.3,63.2z M50.3,62.6l6.9,4v-7.9h-4.6L50.3,62.6z M31.4,58.7v7.9   l6.9-4l-2.3-4H31.4z M45.8,60l3.2,1.9l1.9-3.2h-2.7L45.8,60z M37.7,58.7l1.9,3.2l3.2-1.9l-2.4-1.4H37.7z M43.4,58.7l0.9,0.5   l0.9-0.5H43.4z M53.5,57.2h3.7v-3.7l-2.4,1.4L53.5,57.2z M50.7,57.2h1l0.5-0.9L50.7,57.2z M68.3,57.2h5.8c2.9,0,5.7-1,7.9-2.8   c-1.1-2.7-3-4.9-5.5-6.4l-5.1-2.9l-7.6,4.4L68.3,57.2z M22,57.2h7.9v-4.6l-4-2.3L22,57.2z M40.8,57.2h6.9l6-3.5l3.5-6v-6.9l-3.5-6   l-6-3.5h-6.9l-6,3.5l-3.5,6v6.9l3.5,6L40.8,57.2z M6.5,54.4c2.3,1.8,5.1,2.8,7.9,2.8l5.8,0l4.4-7.6L17,45.2l-5.1,2.9   C9.5,49.5,7.5,51.8,6.5,54.4z M36.8,57.2h1l-1.5-0.9L36.8,57.2z M31.4,57.2h3.7l-1.4-2.4l-2.4-1.4L31.4,57.2z M58.7,57.2h7.9   l-4-6.9l-4,2.3V57.2z M73.1,44.3l4.3,2.5c2.6,1.5,4.7,3.8,5.9,6.6c2.2-2.2,3.6-5.2,3.7-8.4c0.2-3.4-1-6.7-3.2-9.3   c-0.2-0.2-0.3-0.4-0.5-0.5c-1.2,2.8-3.3,5.1-5.9,6.6L73.1,44.3z M5.3,35.2C0.5,40,0.2,47.7,4.8,52.8c0.2,0.2,0.3,0.4,0.5,0.5   c1.2-2.8,3.3-5.1,5.9-6.6l4.3-2.5l-4.3-2.5C8.6,40.3,6.5,38,5.3,35.2z M57.2,50.7l-0.9,1.5l0.9-0.5V50.7z M31.4,51.7l0.9,0.5   l-0.9-1.5V51.7z M58.7,48.1v2.7l3.2-1.9L60,45.8L58.7,48.1z M26.7,49l3.2,1.9v-2.7l-1.4-2.4L26.7,49z M60.9,44.3l2.3,4l6.9-4   l-6.9-4L60.9,44.3z M18.5,44.3l6.9,4l2.3-4l-2.3-4L18.5,44.3z M58.7,43.4v1.7l0.5-0.9L58.7,43.4z M29.4,44.3l0.5,0.9v-1.7   L29.4,44.3z M63.9,39l7.6,4.4l5.1-2.9c2.5-1.4,4.4-3.7,5.5-6.4c-2.3-1.8-5.1-2.7-7.9-2.7h-5.8L63.9,39z M6.5,34.2   c1.1,2.7,3,4.9,5.5,6.4l5.1,2.9l7.6-4.4l-4.4-7.6h-5.8C11.5,31.4,8.7,32.4,6.5,34.2z M58.7,40.4l1.4,2.4l1.9-3.2l-3.2-1.9V40.4z    M26.7,39.6l1.9,3.2l1.4-2.4v-2.7L26.7,39.6z M58.7,36l4,2.3l4-6.9h-7.9V36z M22,31.4l4,6.9l4-2.3v-4.6H22z M56.3,36.3l0.9,1.5v-1   L56.3,36.3z M31.4,36.8v1l0.9-1.5L31.4,36.8z M54.8,33.8l2.4,1.4v-3.7h-3.7L54.8,33.8z M31.4,31.4v3.7l2.4-1.4l1.4-2.4H31.4z    M15,16.9c-6.5,1.7-10.7,8.3-9.3,15c0.1,0.2,0.1,0.5,0.2,0.7c2.4-1.8,5.4-2.8,8.4-2.8h5l-2.5-4.3C15.4,23,14.7,19.9,15,16.9z    M74.2,29.9c3,0,6,1,8.4,2.8c0.8-3.1,0.5-6.3-0.9-9.1c-1.5-3.1-4.2-5.3-7.4-6.4C74,17,73.8,17,73.5,16.9c0.3,3-0.3,6.1-1.8,8.7   l-2.5,4.3H74.2C74.2,29.9,74.2,29.9,74.2,29.9z M50.7,31.4l1.5,0.9l-0.5-0.9H50.7z M36.8,31.4l-0.5,0.9l1.5-0.9L36.8,31.4z    M58.7,29.9h8.8l2.9-5.1c1.4-2.5,2-5.4,1.6-8.3c-2.8-0.4-5.8,0.1-8.2,1.6l-5.1,2.9V29.9z M52.6,29.9h4.6l0-7.9l-6.9,4L52.6,29.9z    M48.1,29.9h2.7L49,26.7l-3.2,1.9L48.1,29.9z M43.4,29.9h1.7l-0.9-0.5L43.4,29.9z M31.4,29.9H36l2.3-4l-6.9-4V29.9z M21.1,29.9h8.8   v-8.8l-5.1-2.9c-2.5-1.4-5.4-2-8.2-1.6c-0.4,2.8,0.1,5.8,1.6,8.3L21.1,29.9z M37.7,29.9h2.7l2.4-1.4l-3.2-1.9L37.7,29.9z    M40.3,25.4l4,2.3l4-2.3l-4-6.9L40.3,25.4z M31.4,20.2l7.6,4.4l4.4-7.6L40.5,12c-1.4-2.5-3.7-4.4-6.4-5.5c-1.8,2.3-2.7,5.1-2.7,7.9   V20.2z M45.2,17l4.4,7.6l7.6-4.4v-5.8c0-2.9-1-5.7-2.8-7.9c-2.7,1.1-4.9,3-6.4,5.5L45.2,17z M18.4,15c2.5,0,5,0.7,7.2,1.9l4.3,2.5   v-5c0-3,1-6,2.7-8.4c-3.1-0.8-6.3-0.5-9.1,0.9c-3.1,1.5-5.3,4.2-6.4,7.4C17,14.6,17,14.8,16.9,15C17.4,15,17.9,15,18.4,15z M55.9,6   c1.8,2.4,2.8,5.4,2.7,8.4v5l4.3-2.5c2.6-1.5,5.7-2.2,8.7-1.8c-1.7-6.5-8.3-10.7-15-9.3C56.4,5.8,56.2,5.9,55.9,6z M35.2,5.3   c2.8,1.2,5.1,3.3,6.6,5.9l2.5,4.3l2.5-4.3c1.5-2.6,3.8-4.7,6.6-5.9C51.1,3,48.2,1.7,45,1.5c-3.4-0.2-6.7,1-9.3,3.2   C35.5,4.9,35.4,5.1,35.2,5.3z M54.6,5.9L54.6,5.9L54.6,5.9L54.6,5.9z"></path>
</g>
</svg>
