<?xml version="1.0" encoding="UTF-8"?>
<!-- Generator: Adobe Illustrator 28.0.0, SVG Export Plug-In . SVG Version: 6.00 Build 0)  -->
<svg xmlns="http://www.w3.org/2000/svg" xmlns:xlink="http://www.w3.org/1999/xlink" version="1.1" id="Calque_1" x="0px" y="0px" viewBox="0 0 87.6 87.6" style="enable-background:new 0 0 87.6 87.6;" xml:space="preserve">
<style type="text/css">
	.st0{fill:none;}
	.st1{fill-rule:evenodd;clip-rule:evenodd;fill:#FFFFFF;}
	.st2{fill:#243C36;}
</style>
<g id="Groupe_913" transform="translate(0)">
	<rect class="st0" width="87.6" height="87.6"></rect>
	<g id="Groupe_531" transform="translate(0 0)">
		<g>
			<path id="Tracé_3561_00000028297469955881312900000015710400201595402684_" class="st1" d="M3.2-0.1h0.3C3.5,1.8,2,3.3,0,3.3V3     C1.8,3,3.2,1.6,3.2-0.1C3.2-0.1,3.2-0.1,3.2-0.1 M6.6-0.1h0.3c0,3.8-3.1,6.8-6.8,6.8c0,0,0,0,0,0V6.4C3.6,6.4,6.6,3.5,6.6-0.1     C6.6-0.1,6.6-0.1,6.6-0.1 M9.9-0.1h0.3C10.2,5.5,5.7,10,0,10c0,0,0,0,0,0V9.7C5.5,9.7,9.9,5.3,9.9-0.1L9.9-0.1 M13.3-0.1h0.3     c0,7.5-6.1,13.6-13.6,13.6c0,0,0,0,0,0v-0.3C7.4,13.1,13.3,7.2,13.3-0.1 M16.7-0.1H17C17,9.2,9.4,16.8,0,16.8v-0.3     C9.2,16.5,16.7,9,16.7-0.1L16.7-0.1 M20-0.1h0.3c0,11.2-9.1,20.3-20.3,20.3c0,0,0,0,0,0v-0.3C11.1,19.8,20,10.9,20-0.1 M23.4-0.1     h0.3c0,13.1-10.6,23.6-23.6,23.6c0,0,0,0,0,0v-0.3C12.9,23.2,23.4,12.7,23.4-0.1 M26.7-0.1H27c0,14.9-12.1,27-27,27v-0.3     C14.8,26.6,26.7,14.6,26.7-0.1C26.7-0.1,26.7-0.1,26.7-0.1 M30.1-0.1h0.3c0,16.8-13.6,30.4-30.4,30.4v-0.3     C16.6,29.9,30.1,16.5,30.1-0.1C30.1-0.1,30.1-0.1,30.1-0.1 M33.5-0.1h0.3c0,18.6-15.1,33.7-33.7,33.7c0,0,0,0,0,0v-0.3     C18.5,33.3,33.5,18.3,33.5-0.1C33.5-0.1,33.5-0.1,33.5-0.1 M36.8-0.1h0.3c0,20.5-16.6,37.1-37.1,37.1c0,0,0,0,0,0v-0.3     C20.4,36.6,36.8,20.2,36.8-0.1C36.8-0.1,36.8-0.1,36.8-0.1 M40.2-0.1h0.3c0,22.3-18.1,40.4-40.4,40.4V40     C22.2,40,40.2,22,40.2-0.1C40.2-0.1,40.2-0.1,40.2-0.1 M43.5-0.1h0.3C43.8,24,24.2,43.7,0,43.7v-0.3     C24.1,43.4,43.5,23.9,43.5-0.1 M46.9-0.1h0.3C47.2,25.9,26.1,47,0,47c0,0,0,0,0,0v-0.3C25.9,46.7,46.9,25.7,46.9-0.1     C46.9-0.1,46.9-0.1,46.9-0.1 M50.3-0.1h0.3c0,27.9-22.6,50.5-50.5,50.5v-0.3C27.8,50.1,50.3,27.6,50.3-0.1     C50.3-0.1,50.3-0.1,50.3-0.1 M53.6-0.1h0.3c0,29.8-24.1,53.9-53.9,53.9c0,0,0,0,0,0v-0.3C29.6,53.4,53.6,29.4,53.6-0.1     C53.6-0.1,53.6-0.1,53.6-0.1 M57-0.1h0.3c0,31.6-25.6,57.2-57.2,57.2c0,0,0,0,0,0v-0.3C31.5,56.8,57,31.3,57-0.1     C57-0.1,57-0.1,57-0.1 M60.3-0.1h0.3c0,33.5-27.1,60.6-60.6,60.6v-0.3C33.3,60.2,60.3,33.2,60.3-0.1L60.3-0.1 M63.7-0.1H64     c0,35.3-28.6,64-64,64v-0.3C35.2,63.5,63.7,35,63.7-0.1C63.7-0.1,63.7-0.1,63.7-0.1 M67.1-0.1h0.3C67.4,37,37.2,67.2,0,67.2     c0,0,0,0,0,0v-0.3C37.1,66.9,67.1,36.9,67.1-0.1L67.1-0.1 M70.4-0.1h0.3c0,39-31.6,70.7-70.7,70.7v-0.3     C38.9,70.2,70.4,38.7,70.4-0.1C70.4-0.1,70.4-0.1,70.4-0.1 M73.8-0.1h0.3c0,40.9-33.2,74.1-74,74.1c0,0,0,0,0,0v-0.3     C40.8,73.6,73.8,40.6,73.8-0.1C73.8-0.1,73.8-0.1,73.8-0.1 M77.2-0.1h0.3c0,42.8-34.7,77.4-77.4,77.4c0,0,0,0,0,0V77     C42.6,77,77.2,42.4,77.2-0.1 M80.5-0.1h0.3c0,44.6-36.2,80.8-80.8,80.8v-0.3C44.5,80.3,80.5,44.3,80.5-0.1     C80.5-0.1,80.5-0.1,80.5-0.1 M83.9-0.1h0.3C84.2,46.3,46.5,84,0,84v-0.3C46.3,83.7,83.9,46.2,83.9-0.1 M87.2-0.1h0.3     c0,48.3-39.2,87.5-87.5,87.5v-0.3C48.2,87.1,87.2,48,87.2-0.1C87.2-0.1,87.2-0.1,87.2-0.1"></path>
			<path class="st2" d="M0,87.9h-0.5v-1.3H0c47.8,0,86.7-38.9,86.7-86.7v-0.5l1.3,0v0.5C88,48.4,48.6,87.9,0,87.9z M0,84.5h-0.5     v-1.3H0c45.9,0,83.3-37.4,83.3-83.3v-0.5h1.3v0.5C84.7,46.5,46.7,84.5,0,84.5z M0,81.1h-0.5v-1.3H0c21.4,0,41.4-8.3,56.5-23.4     C71.7,41.3,80,21.2,80-0.1v-0.5l1.3,0v0.5C81.3,44.7,44.9,81.1,0,81.1z M0,77.8h-0.5l0-1.3H0c42.2,0,76.6-34.4,76.6-76.6v-0.5H78     v0.5c0,20.8-8.1,40.4-22.8,55.1C40.4,69.7,20.9,77.8,0,77.8z M-0.4,74.4l0-1.3H0c19.6,0,38-7.6,51.8-21.5     C65.7,37.8,73.3,19.4,73.3-0.1v-0.5h1.3v0.5C74.6,41,41.2,74.4,0,74.4H-0.4z M0,71h-0.5v-1.3H0c38.5,0,69.9-31.4,69.9-69.9v-0.5     l1.3,0v0.5C71.2,39.1,39.3,71,0,71z M-0.5,67.7l0-1.3H0c36.7,0,66.5-29.8,66.5-66.5h0.5v-0.5h0.8v0.5c0,18.1-7.1,35.2-19.9,48     C35.2,60.6,18.2,67.7,0,67.7H-0.5z M-0.5,64.3V63H0c34.8,0,63.2-28.3,63.2-63.2h0.3c0,0,0,0,0,0h0.2v-0.5h0.8v0.5     c0,35.5-28.9,64.5-64.5,64.5H-0.5z M-0.5,61v-1.3H0c33,0,59.8-26.8,59.8-59.8v-0.5h1.3v0.5C61.2,33.6,33.7,61,0,61H-0.5z      M-0.5,57.6l0-1.3H0c15.1,0,29.2-5.9,39.9-16.5S56.5,14.9,56.5-0.1v-0.5l1.3,0v0.5c0,31.8-25.9,57.7-57.7,57.7H-0.5z M-0.4,54.2     l0-1.3H0c29.3,0,53.1-23.8,53.1-53.1v-0.5l1.3,0v0.5c0,30-24.4,54.4-54.4,54.4H-0.4z M-0.5,50.9v-1.3H0     c27.4,0,49.7-22.3,49.7-49.7v-0.5l1.3,0v0.5c0,28.1-22.9,51-51,51H-0.5z M0,47.5h-0.5l0-1.3H0c25.6,0,46.4-20.8,46.4-46.4h0.5     v-0.5h0.8v0.5C47.7,26.1,26.3,47.5,0,47.5z M0,44.2h-0.5v-1.3H0c23.7,0,43-19.3,43-43v-0.5h1.3v0.5C44.3,24.3,24.5,44.2,0,44.2z      M-0.5,40.8v-1.3H0c21.9,0,39.6-17.8,39.6-39.6v-0.5l1.3,0v0.5C41,22.4,22.6,40.8,0,40.8H-0.5z M-0.5,37.4l0-1.3H0     c20,0,36.3-16.3,36.3-36.3l0.3,0c0,0,0,0,0,0h0.2v-0.5h0.8v0.5c0,10-3.9,19.5-11,26.6c-7.1,7.1-16.5,11-26.6,11H-0.5z M-0.5,34.1     l0-1.3H0c0,0,0,0,0,0c8.8,0,17.1-3.4,23.3-9.6C29.5,16.9,33,8.6,33-0.1v-0.5l1.3,0v0.5c0,9.1-3.6,17.7-10,24.2     c-6.5,6.5-15.1,10-24.2,10H-0.5z M0,30.7h-0.5v-1.3H0c16.3,0,29.6-13.3,29.6-29.6v-0.5l1.3,0v0.5C30.9,16.9,17.1,30.7,0,30.7z      M0,27.4h-0.5v-1.3H0c14.4,0,26.2-11.7,26.2-26.2v-0.5l1.3,0v0.5C27.5,15,15.2,27.4,0,27.4z M0,24h-0.5v-1.3H0     c12.6,0,22.8-10.2,22.8-22.8v-0.5h1.3v0.5C24.2,13.2,13.4,24,0,24z M-0.5,20.6l0-1.3H0c10.7,0,19.5-8.7,19.5-19.5v-0.5h1.3v0.5     c0,5.5-2.2,10.8-6.1,14.7c-3.9,3.9-9.1,6.1-14.7,6.1H-0.5z M-0.5,17.3V16H0c8.9,0,16.1-7.2,16.1-16.1v-0.5h1.3v0.5     c0,9.6-7.8,17.4-17.4,17.4H-0.5z M0,13.9h-0.5v-1.3H0c7,0,12.7-5.7,12.7-12.7v-0.5h1.3v0.5C14.1,7.6,7.8,13.9,0,13.9z M-0.5,10.5     l0-1.3H0c5.2,0,9.4-4.2,9.4-9.4v-0.5h1.3v0.5c0,5.9-4.8,10.7-10.7,10.7H-0.5z M-0.4,7.2l0-1.3H0c3.3,0,6-2.7,6-6v-0.5l1.3,0v0.5     c0,4-3.3,7.3-7.3,7.3H-0.4z M-0.5,3.8V2.5H0c0,0,0,0,0,0c0.7,0,1.4-0.3,1.9-0.8s0.8-1.2,0.8-1.9v-0.5l1.3,0v0.5c0,2.2-1.8,4-4,4     L-0.5,3.8z"></path>
		</g>
	</g>
</g>
</svg>
