<?xml version="1.0" encoding="UTF-8"?>
<!-- Generator: Adobe Illustrator 28.0.0, SVG Export Plug-In . SVG Version: 6.00 Build 0)  -->
<svg xmlns="http://www.w3.org/2000/svg" xmlns:xlink="http://www.w3.org/1999/xlink" version="1.1" id="Calque_1" x="0px" y="0px" viewBox="0 0 87.3 88" style="enable-background:new 0 0 87.3 88;" xml:space="preserve">
<style type="text/css">
	.st0{fill:none;stroke:#243C36;stroke-width:2;}
	.st1{fill:none;}
	.st2{fill:#243C36;}
</style>
<g id="Groupe_922" transform="translate(0)">
	<path id="Tracé_1" class="st0" d="M51.1,87.8"></path>
	<g id="Groupe_29" transform="translate(0 0)">
		<g id="Ellipse_20" transform="translate(12.662 12.662)">
			<ellipse class="st1" cx="31.3" cy="31.7" rx="31.3" ry="31.7"></ellipse>
			<path class="st2" d="M31.3,63.3C14.1,63.3,0,49.1,0,31.7S14.1,0,31.3,0s31.3,14.2,31.3,31.7S48.6,63.3,31.3,63.3z M31.3,2     C15.2,2,2,15.3,2,31.7C2,48,15.2,61.3,31.3,61.3c16.2,0,29.3-13.3,29.3-29.7C60.6,15.3,47.5,2,31.3,2z"></path>
		</g>
		<g id="Ellipse_21" transform="translate(24.658 24.658)">
			<circle class="st1" cx="19" cy="19" r="19"></circle>
			<path class="st2" d="M19,38C8.5,38,0,29.5,0,19C0,8.5,8.5,0,19,0c10.5,0,19,8.5,19,19C38,29.5,29.5,38,19,38z M19,2     C9.6,2,2,9.6,2,19s7.6,17,17,17s17-7.6,17-17S28.4,2,19,2z"></path>
		</g>
		<g id="Ellipse_22" transform="translate(0 0)">
			<ellipse class="st1" cx="43.7" cy="44" rx="43.7" ry="44"></ellipse>
			<path class="st2" d="M43.7,88C19.6,88,0,68.2,0,44C0,19.7,19.6,0,43.7,0c24.1,0,43.7,19.7,43.7,44C87.3,68.2,67.7,88,43.7,88z      M43.7,2C20.7,2,2,20.8,2,44s18.7,42,41.7,42s41.7-18.8,41.7-42S66.6,2,43.7,2z"></path>
		</g>
	</g>
</g>
</svg>
