<svg width="199" height="199" viewBox="0 0 199 199" fill="none" xmlns="http://www.w3.org/2000/svg">
<path d="M72.931 20.1322L69.2799 6.42615L73.5935 5.27707C74.3666 5.07114 75.0421 5.08987 75.6203 5.33326C76.1943 5.56118 76.5863 6.06939 76.7964 6.8579L77.3894 9.08426C77.5995 9.87276 77.5225 10.5473 77.1586 11.1079C76.8101 11.6643 76.2379 12.0651 75.4422 12.3102L75.436 12.287C75.939 12.1861 76.3574 12.2651 76.6913 12.5239C77.021 12.7672 77.3672 13.1965 77.7299 13.8119L80.3986 18.1429L78.7752 18.5754L76.2935 14.2939C76.0545 13.894 75.7892 13.5507 75.4976 13.2641C75.2174 12.9579 74.8608 12.8625 74.4279 12.9778L72.7581 13.4226L74.4385 19.7306L72.931 20.1322ZM72.4801 12.379L74.5209 11.8353C75.2321 11.6459 75.6836 11.3518 75.8754 10.9529C76.0786 10.5346 76.0937 10.0007 75.9207 9.35133L75.4265 7.49603C75.2741 6.92397 75.0237 6.5436 74.6754 6.3549C74.3385 6.14662 73.8917 6.11661 73.3351 6.26488L71.016 6.88267L72.4801 12.379Z" fill="white"/>
<path d="M84.5435 17.2836C84.4005 17.3006 84.2416 17.3195 84.0668 17.3403C83.8921 17.3611 83.7243 17.373 83.5635 17.376L83.436 16.3035L84.2224 16.21C84.7327 16.1654 85.0719 16.0364 85.2398 15.8231C85.4218 15.592 85.4807 15.2063 85.4164 14.6661L84.033 3.03613L85.5345 2.85753L86.8413 13.8441C86.9358 14.6385 86.9389 15.2746 86.8508 15.7523C86.7626 16.2301 86.5392 16.587 86.1805 16.823C85.82 17.0431 85.2743 17.1966 84.5435 17.2836Z" fill="white"/>
<path d="M99.3495 16.4469C98.6459 16.4225 98.0251 16.321 97.4869 16.1422C96.9648 15.9641 96.5524 15.6216 96.2498 15.1148C95.9637 14.5926 95.8383 13.8198 95.8738 12.7964L96.1505 4.80918C96.1815 3.91371 96.3567 3.24738 96.676 2.81017C97.0113 2.37352 97.4533 2.09265 98.002 1.96757C98.5672 1.82706 99.1936 1.76871 99.8812 1.79253C100.585 1.8169 101.198 1.91818 101.72 2.09636C102.242 2.27454 102.647 2.59276 102.935 3.05102C103.224 3.50928 103.353 4.17814 103.322 5.05761L103.236 7.55212L101.725 7.49977L101.812 4.98128C101.834 4.35766 101.762 3.89089 101.596 3.58098C101.431 3.25507 101.191 3.03861 100.874 2.93159C100.574 2.82513 100.224 2.76497 99.8239 2.75112C99.4242 2.73727 99.0627 2.77278 98.7396 2.85764C98.4325 2.94306 98.1854 3.14263 97.9984 3.45634C97.828 3.75462 97.732 4.21557 97.7104 4.8392L97.4187 13.2582C97.3966 13.8978 97.4599 14.3802 97.6087 14.7056C97.7741 15.0155 98.007 15.2237 98.3075 15.3302C98.624 15.4372 98.9821 15.4976 99.3819 15.5115C99.7977 15.5259 100.159 15.4904 100.466 15.4049C100.773 15.3195 101.02 15.128 101.207 14.8302C101.394 14.5165 101.498 14.0398 101.52 13.4002L101.594 11.2655L103.105 11.3179L103.046 13.0208C103.01 14.0602 102.832 14.8305 102.51 15.3317C102.189 15.8168 101.762 16.1302 101.229 16.2719C100.695 16.4135 100.069 16.4718 99.3495 16.4469Z" fill="white"/>
<path d="M119.018 19.062C118.341 18.8693 117.763 18.6215 117.283 18.3187C116.819 18.0202 116.501 17.5886 116.329 17.024C116.177 16.4483 116.241 15.668 116.522 14.6832L118.71 6.99657C118.955 6.13481 119.285 5.53011 119.7 5.18246C120.131 4.83919 120.627 4.67279 121.19 4.68323C121.772 4.68267 122.394 4.77658 123.056 4.96495C123.733 5.15771 124.304 5.40331 124.768 5.70176C125.232 6.00021 125.549 6.40649 125.718 6.92061C125.888 7.43473 125.853 8.11497 125.612 8.96134L124.928 11.362L123.474 10.948L124.164 8.52428C124.335 7.92412 124.377 7.45376 124.291 7.11319C124.209 6.75723 124.028 6.48927 123.746 6.30933C123.48 6.13376 123.155 5.99122 122.77 5.8817C122.385 5.77218 122.026 5.71978 121.692 5.72449C121.373 5.73359 121.086 5.86793 120.829 6.12752C120.592 6.37609 120.388 6.80046 120.217 7.40061L117.91 15.5027C117.735 16.1183 117.681 16.6018 117.747 16.9534C117.833 17.294 118.009 17.552 118.275 17.7276C118.557 17.9075 118.89 18.0523 119.274 18.1618C119.674 18.2757 120.034 18.3281 120.353 18.319C120.671 18.3099 120.957 18.1833 121.209 17.9391C121.466 17.6795 121.682 17.2419 121.857 16.6264L122.442 14.572L123.897 14.986L123.43 16.6249C123.145 17.6251 122.787 18.3299 122.354 18.7391C121.926 19.1329 121.436 19.3344 120.884 19.3438C120.333 19.3531 119.711 19.2592 119.018 19.062Z" fill="white"/>
<path d="M129.12 21.9878L135.053 9.10421L140.612 11.6641L140.16 12.645L136.018 10.7377L133.89 15.3592L137.203 16.8851L136.702 17.9751L133.388 16.4492L130.989 21.6593L135.131 23.5667L134.679 24.5477L129.12 21.9878Z" fill="white"/>
<path d="M139.617 27.0454L147.347 15.1533L151.09 17.5863C151.761 18.0223 152.199 18.5365 152.406 19.1287C152.621 19.7076 152.506 20.3391 152.062 21.0233L150.806 22.955C150.361 23.6391 149.809 24.0339 149.149 24.1391C148.502 24.2531 147.821 24.0968 147.106 23.6702L147.119 23.6501C147.531 23.9559 147.753 24.3195 147.784 24.7407C147.825 25.1486 147.738 25.6932 147.524 26.3747L146.096 31.2574L144.687 30.3417L146.204 25.6311C146.341 25.1857 146.418 24.7588 146.435 24.3503C146.475 23.9371 146.307 23.6084 145.931 23.3643L144.482 22.4225L140.924 27.8957L139.617 27.0454ZM145.071 21.517L146.842 22.6681C147.459 23.0692 147.98 23.2074 148.404 23.0827C148.851 22.9532 149.257 22.6068 149.624 22.0434L150.67 20.4336C150.993 19.9373 151.108 19.4966 151.014 19.1116C150.943 18.7219 150.666 18.37 150.183 18.0561L148.171 16.748L145.071 21.517Z" fill="white"/>
<path d="M150.703 34.7408L159.408 24.9458L157.632 23.3674L158.349 22.5601L163.067 26.7531L162.35 27.5604L160.538 25.9501L151.833 35.7452L150.703 34.7408Z" fill="white"/>
<path d="M158.878 42.4844L169.422 32.9969L170.434 34.1208L159.89 43.6084L158.878 42.4844Z" fill="white"/>
<path d="M162.781 46.8501L174.263 38.5226L177.856 43.4768L176.982 44.1109L174.305 40.4195L170.186 43.4067L172.328 46.3598L171.356 47.0643L169.214 44.1112L163.697 48.113L162.781 46.8501Z" fill="white"/>
<path d="M169.237 56.2895L181.536 49.2235L182.289 50.5345L169.99 57.6006L169.237 56.2895Z" fill="white"/>
<path d="M172.134 61.3611L185.108 55.6287L187.582 61.2266L186.594 61.6631L184.751 57.4921L180.097 59.5484L181.571 62.8852L180.474 63.3702L178.999 60.0334L173.753 62.3516L175.596 66.5226L174.608 66.9591L172.134 61.3611Z" fill="white"/>
<path d="M176.748 72.2548L190.448 68.5776L191.549 72.6804C191.706 73.2676 191.756 73.7926 191.698 74.2555C191.644 74.7338 191.438 75.1371 191.079 75.4654C190.739 75.8051 190.214 76.0703 189.503 76.2611L181.599 78.3828C180.811 78.5944 180.167 78.6346 179.668 78.5035C179.169 78.3724 178.773 78.0979 178.478 77.6799C178.188 77.2774 177.962 76.7748 177.8 76.1722L176.748 72.2548ZM177.987 73.5375L178.585 75.7627C178.726 76.2881 178.977 76.668 179.338 76.9024C179.719 77.1481 180.319 77.1611 181.138 76.9412L188.926 74.8506C189.745 74.6307 190.258 74.3192 190.464 73.9158C190.675 73.528 190.71 73.0713 190.568 72.5459L189.971 70.3207L177.987 73.5375Z" fill="white"/>
<path d="M179.691 100.768C180.74 100.657 181.886 100.264 183.131 99.5884C184.392 98.9139 185.585 97.9145 186.71 96.5903C187.834 95.282 188.582 93.9502 188.956 92.5949L189.962 92.658C190.196 94.0353 190.706 95.3738 191.49 96.6734C192.289 97.9899 193.277 99.1099 194.454 100.033C195.661 100.975 196.872 101.604 198.087 101.92L198.024 102.926C197.216 103.02 196.376 103.256 195.502 103.634C194.645 104.013 193.812 104.514 193.004 105.137C192.21 105.776 191.483 106.5 190.823 107.309C189.85 108.514 189.179 109.762 188.809 111.054L187.803 110.991C187.683 110.102 187.38 109.169 186.896 108.193C186.412 107.232 185.819 106.33 185.118 105.484C184.434 104.64 183.7 103.936 182.918 103.374C181.767 102.549 180.671 102.015 179.628 101.774L179.691 100.768Z" fill="white"/>
<path d="M176.81 124.806L189.946 130.157L188.344 134.091C188.114 134.654 187.837 135.102 187.511 135.436C187.179 135.784 186.771 135.981 186.286 136.025C185.81 136.091 185.231 135.985 184.55 135.707L176.97 132.62C176.215 132.312 175.678 131.955 175.359 131.549C175.041 131.143 174.891 130.684 174.909 130.173C174.921 129.677 175.045 129.14 175.28 128.562L176.81 124.806ZM177.022 126.577L176.153 128.711C175.948 129.214 175.918 129.669 176.064 130.074C176.219 130.5 176.689 130.872 177.474 131.192L184.942 134.234C185.728 134.554 186.325 134.616 186.733 134.419C187.135 134.238 187.439 133.895 187.644 133.391L188.513 131.257L177.022 126.577Z" fill="white"/>
<path d="M171.27 137.3L183.685 144.16L182.954 145.483L170.539 138.623L171.27 137.3Z" fill="white"/>
<path d="M169.101 141.553L178.82 152.352L177.691 153.934L164.347 148.215L165.295 146.886L168.417 148.171L170.439 145.339L168.181 142.842L169.101 141.553ZM171.095 145.866L169.115 148.64L176.772 152.04L171.095 145.866Z" fill="white"/>
<path d="M160.629 153.199L170.484 163.401L169.206 164.635L158.976 158.466L164.736 168.953L163.51 170.137L153.655 159.936L154.622 159.002L162.593 167.253L156.745 156.951L157.522 156.201L167.616 162.401L159.645 154.15L160.629 153.199Z" fill="white"/>
<path d="M145.245 166.195C145.822 165.82 146.375 165.555 146.905 165.402C147.435 165.248 147.969 165.292 148.508 165.534C149.042 165.797 149.588 166.358 150.146 167.217L154.501 173.918C154.989 174.669 155.228 175.316 155.217 175.857C155.193 176.407 154.992 176.89 154.615 177.308C154.246 177.738 153.773 178.141 153.196 178.516C152.619 178.891 152.066 179.155 151.536 179.309C150.992 179.471 150.471 179.447 149.972 179.237C149.46 179.036 148.964 178.566 148.484 177.829L144.142 171.148C143.575 170.276 143.287 169.538 143.276 168.934C143.26 168.353 143.437 167.847 143.806 167.416C144.162 166.994 144.641 166.587 145.245 166.195ZM145.735 166.992C145.386 167.219 145.11 167.456 144.908 167.702C144.701 167.97 144.606 168.28 144.624 168.63C144.651 168.995 144.834 169.438 145.174 169.962L149.752 177.005C150.092 177.528 150.419 177.869 150.732 178.028C151.054 178.2 151.375 178.24 151.696 178.146C152.025 178.065 152.357 177.916 152.693 177.698C153.042 177.471 153.32 177.224 153.527 176.955C153.73 176.709 153.817 176.404 153.791 176.04C153.773 175.689 153.593 175.252 153.253 174.729L148.676 167.686C148.336 167.163 148.005 166.815 147.683 166.642C147.37 166.483 147.055 166.44 146.739 166.512C146.418 166.605 146.084 166.766 145.735 166.992Z" fill="white"/>
<path d="M135.89 172.269L141.438 185.322L140.223 185.839L131.8 177.371L136.137 187.576L134.878 188.111L129.33 175.057L130.589 174.522L138.809 182.633L134.631 172.804L135.89 172.269Z" fill="white"/>
<path d="M122.46 177.638L125.722 191.442L121.587 192.419C120.996 192.558 120.469 192.592 120.009 192.52C119.532 192.452 119.135 192.234 118.818 191.865C118.489 191.515 118.239 190.982 118.07 190.266L116.188 182.301C116 181.507 115.98 180.862 116.126 180.368C116.272 179.873 116.558 179.484 116.985 179.203C117.396 178.925 117.905 178.714 118.513 178.571L122.46 177.638ZM121.14 178.837L118.898 179.367C118.369 179.492 117.981 179.732 117.736 180.086C117.479 180.459 117.448 181.058 117.643 181.883L119.497 189.731C119.692 190.556 119.988 191.078 120.385 191.297C120.767 191.519 121.222 191.568 121.751 191.443L123.994 190.913L121.14 178.837Z" fill="white"/>
<path d="M92.7545 179.641C92.833 180.693 93.1907 181.851 93.8278 183.116C94.4633 184.396 95.4257 185.619 96.7149 186.784C97.9881 187.948 99.2963 188.737 100.64 189.152L100.546 190.156C99.1619 190.348 97.8084 190.816 96.4854 191.56C95.145 192.318 93.9953 193.271 93.0363 194.419C92.0585 195.597 91.3927 196.788 91.0391 197.993L90.0355 197.899C89.9665 197.089 89.7565 196.242 89.4053 195.357C89.0526 194.489 88.5774 193.641 87.9798 192.814C87.3648 192.001 86.6634 191.252 85.8757 190.568C84.7006 189.558 83.4733 188.849 82.1938 188.44L82.2876 187.436C83.1801 187.343 84.1217 187.07 85.1122 186.616C86.0868 186.161 87.0074 185.596 87.8739 184.921C88.7389 184.263 89.4643 183.552 90.05 182.787C90.9104 181.662 91.4774 180.582 91.7509 179.547L92.7545 179.641Z" fill="white"/>
<path d="M69.8678 176.198L63.8773 189.055L62.2675 188.305L64.3584 176.544L56.633 185.68L55.0885 184.96L61.079 172.103L62.2973 172.671L57.4521 183.07L64.9731 173.918L65.952 174.374L63.7827 186.019L68.6278 175.621L69.8678 176.198Z" fill="white"/>
<path d="M55.6983 169.313L44.9197 179.055L43.3351 177.929L49.027 164.573L50.3573 165.518L49.0789 168.643L51.9157 170.659L54.4071 168.396L55.6983 169.313ZM51.39 171.316L48.6119 169.342L45.2271 177.006L51.39 171.316Z" fill="white"/>
<path d="M44.1207 160.814L34.0993 170.852L33.1651 169.919L37.857 158.935L30.023 166.782L29.0549 165.816L39.0763 155.778L40.0444 156.744L35.6068 167.405L43.1526 159.847L44.1207 160.814Z" fill="white"/>
<path d="M32.458 147.52C32.7432 147.925 32.9774 148.328 33.1604 148.727C33.3434 149.127 33.4399 149.528 33.4499 149.932C33.4506 150.323 33.3295 150.721 33.0866 151.126C32.8213 151.528 32.3876 151.94 31.7855 152.364L22.6754 158.768L21.8058 157.531L31.1712 150.947C31.6424 150.616 31.9406 150.289 32.0657 149.966C32.1909 149.644 32.2119 149.326 32.1287 149.013C32.0232 148.696 31.8646 148.386 31.653 148.085C31.4506 147.797 31.218 147.55 30.9555 147.344C30.6798 147.146 30.369 147.052 30.0229 147.06C29.6769 147.069 29.2683 147.239 28.7971 147.57L19.4318 154.154L18.576 152.937L27.6861 146.532C28.2882 146.109 28.8277 145.847 29.3046 145.747C29.7592 145.642 30.1702 145.656 30.5375 145.789C30.9048 145.922 31.25 146.149 31.5731 146.469C31.8869 146.777 32.1819 147.127 32.458 147.52Z" fill="white"/>
<path d="M26.4302 138.772L13.7624 145.153L11.0093 139.687L11.9739 139.201L14.0252 143.274L18.5693 140.985L16.9283 137.727L18 137.187L19.641 140.445L25.7285 137.379L26.4302 138.772Z" fill="white"/>
<path d="M22.4343 130.884L7.99784 132.514L7.36681 130.675L19.7778 123.143L20.3075 124.687L17.4469 126.48L18.5765 129.772L21.9202 129.386L22.4343 130.884ZM17.7664 129.999L16.6601 126.776L9.44194 131.029L17.7664 129.999Z" fill="white"/>
<path d="M17.8611 114.389C17.9805 115.082 18.0075 115.711 17.9421 116.274C17.874 116.822 17.6227 117.295 17.1882 117.695C16.7352 118.081 16.0041 118.361 14.9949 118.535L7.11874 119.891C6.23572 120.043 5.54768 120.007 5.0546 119.783C4.55881 119.544 4.19382 119.168 3.95962 118.657C3.70695 118.132 3.52225 117.531 3.40554 116.853C3.28612 116.159 3.26046 115.538 3.32858 114.991C3.39669 114.443 3.62572 113.982 4.01565 113.606C4.40559 113.23 5.03418 112.968 5.90143 112.819L8.36125 112.395L8.61774 113.885L6.13427 114.313C5.51931 114.419 5.07696 114.584 4.80723 114.809C4.52172 115.037 4.3588 115.317 4.31848 115.648C4.27544 115.964 4.28785 116.319 4.3557 116.713C4.42356 117.108 4.53193 117.454 4.68082 117.753C4.827 118.037 5.0727 118.238 5.41792 118.357C5.74465 118.463 6.2155 118.463 6.83045 118.357L15.1324 116.928C15.7631 116.82 16.2226 116.66 16.5108 116.448C16.7805 116.223 16.9369 115.952 16.9799 115.636C17.0203 115.305 17.0065 114.942 16.9387 114.547C16.8681 114.138 16.7597 113.791 16.6135 113.508C16.4674 113.224 16.2295 113.022 15.9001 112.9C15.5549 112.781 15.0669 112.775 14.4362 112.884L12.3311 113.246L12.0746 111.756L13.7539 111.467C14.7789 111.291 15.5694 111.309 16.1256 111.522C16.6659 111.737 17.0598 112.091 17.307 112.585C17.5543 113.078 17.7389 113.679 17.8611 114.389Z" fill="white"/>
<path d="M16.0926 102.882L2.9892 103.01L3.01231 105.386L1.93236 105.396L1.87096 99.0844L2.95091 99.0739L2.97449 101.498L16.0779 101.37L16.0926 102.882Z" fill="white"/>
<path d="M16.9864 88.2008C16.9112 88.691 16.8013 89.1436 16.6568 89.5585C16.5122 89.9734 16.3038 90.3299 16.0314 90.6281C15.7615 90.9104 15.3985 91.1137 14.9424 91.238C14.4729 91.3441 13.8744 91.3414 13.1469 91.2298L2.13955 89.5419L2.36872 88.0474L13.6845 89.7826C14.2538 89.8699 14.6954 89.8404 15.0091 89.6943C15.3229 89.5482 15.5582 89.3334 15.715 89.0499C15.8584 88.7481 15.958 88.4154 16.0137 88.0516C16.0671 87.7037 16.0706 87.3643 16.0242 87.0334C15.962 86.7001 15.8031 86.4168 15.5475 86.1834C15.2919 85.9499 14.8795 85.7896 14.3101 85.7022L2.9944 83.9671L3.21994 82.4963L14.2273 84.1842C14.9548 84.2957 15.5254 84.4803 15.9391 84.738C16.3394 84.9775 16.6261 85.2723 16.799 85.6226C16.9719 85.9728 17.0639 86.3754 17.0751 86.8304C17.0887 87.2695 17.0591 87.7263 16.9864 88.2008Z" fill="white"/>
<path d="M18.6421 77.6738L5.14625 73.3096L6.51977 69.0621C6.76592 68.3009 7.14798 67.7434 7.66597 67.3897C8.16873 67.031 8.80832 66.9771 9.58473 67.2282L11.777 67.9371C12.5534 68.1882 13.0784 68.6186 13.3521 69.2284C13.6306 69.823 13.6571 70.521 13.4316 71.3225L13.4088 71.3151C13.5967 70.8378 13.89 70.529 14.2884 70.3888C14.6717 70.2437 15.2202 70.1856 15.9339 70.2146L21.02 70.3207L20.503 71.9192L15.56 71.6828C15.0943 71.6668 14.662 71.7035 14.2631 71.7931C13.8539 71.8626 13.5804 72.1105 13.4425 72.5367L12.9108 74.1809L19.1221 76.1895L18.6421 77.6738ZM11.8832 73.8486L12.5331 71.8391C12.7595 71.1388 12.7572 70.5999 12.5261 70.2225C12.2847 69.8249 11.8443 69.5228 11.2049 69.316L9.37808 68.7253C8.8148 68.5431 8.35945 68.5472 8.01203 68.7375C7.65432 68.9077 7.38684 69.2668 7.20961 69.8149L6.47116 72.0985L11.8832 73.8486Z" fill="white"/>
<path d="M22.6962 65.981L9.972 59.7136L12.6762 54.2235L13.6451 54.7007L11.6302 58.7914L16.1945 61.0396L17.8064 57.7671L18.8829 58.2973L17.271 61.5698L22.4167 64.1044L24.4316 60.0137L25.4004 60.4909L22.6962 65.981Z" fill="white"/>
<path d="M28.0308 55.6187L16.3456 47.5787L18.8759 43.9011C19.3294 43.242 19.8549 42.817 20.4524 42.6261C21.0367 42.426 21.665 42.5573 22.3372 43.0198L24.2353 44.3258C24.9076 44.7884 25.2877 45.3509 25.3756 46.0135C25.4726 46.6629 25.2985 47.3394 24.8532 48.0429L24.8334 48.0293C25.15 47.6257 25.5193 47.4136 25.9412 47.3932C26.3499 47.3636 26.8921 47.4648 27.5677 47.6966L32.4113 49.2522L31.459 50.6362L26.7898 48.9966C26.3481 48.8482 25.9234 48.7598 25.5155 48.7317C25.1035 48.6812 24.7705 48.8406 24.5166 49.2096L23.5371 50.6332L28.915 54.3335L28.0308 55.6187ZM22.6473 50.021L23.8445 48.2811C24.2617 47.6748 24.4135 47.1577 24.2999 46.73C24.1823 46.28 23.8466 45.8646 23.293 45.4837L21.7113 44.3954C21.2236 44.0598 20.786 43.9335 20.3987 44.0166C20.0073 44.0775 19.6483 44.3451 19.3218 44.8197L17.9614 46.7968L22.6473 50.021Z" fill="white"/>
<path d="M50.9868 32.4368C50.2161 31.7167 49.1679 31.1076 47.8422 30.6096C46.5068 30.0989 44.9703 29.8523 43.2328 29.8697C41.508 29.8773 40.0113 30.184 38.7426 30.7896L38.1312 29.9881C39.0184 28.9088 39.6961 27.6473 40.1644 26.2034C40.6356 24.7371 40.8347 23.257 40.7617 21.7632C40.682 20.2342 40.364 18.9071 39.8076 17.782L40.609 17.1707C41.2087 17.7194 41.9375 18.1998 42.7953 18.612C43.6433 19.0115 44.5674 19.3128 45.5675 19.5158C46.5706 19.6965 47.5937 19.7713 48.6367 19.7404C50.1851 19.6861 51.5682 19.3756 52.786 18.8089L53.3974 19.6103C52.8044 20.284 52.2977 21.1233 51.8771 22.1284C51.4692 23.1238 51.1753 24.163 50.9953 25.2461C50.8056 26.3165 50.7547 27.3313 50.8426 28.2907C50.9725 29.7008 51.2877 30.8791 51.7883 31.8255L50.9868 32.4368Z" fill="white"/>
</svg>
