<?xml version="1.0" encoding="UTF-8"?>
<svg xmlns="http://www.w3.org/2000/svg" xmlns:xlink="http://www.w3.org/1999/xlink" width="1920px" height="1080px" viewBox="0 0 1920 1080" version="1.1">
<g id="surface1">
<path style=" stroke:none;fill-rule:nonzero;fill:rgb(0%,0%,0%);fill-opacity:1;" d="M 1028.9375 284.394531 C 1028.9375 273.214844 1028.480469 263.617188 1027.566406 255.605469 C 1026.648438 247.585938 1025.4375 240.628906 1023.9375 234.722656 C 1022.4375 228.707031 1020.730469 223.488281 1018.8125 219.058594 C 1016.898438 214.628906 1014.941406 210.460938 1012.9375 206.558594 C 1010.941406 202.660156 1008.980469 198.757812 1007.0625 194.855469 C 1005.148438 190.953125 1003.4375 186.519531 1001.9375 181.566406 C 1000.441406 176.609375 999.230469 170.914062 998.316406 164.480469 C 997.398438 157.941406 996.9375 150.136719 996.9375 141.066406 L 996.9375 102.9375 C 996.9375 100.40625 997.230469 97.558594 997.8125 94.394531 C 998.480469 91.125 999.6875 88.117188 1001.4375 85.378906 C 1003.1875 82.527344 1005.605469 80.15625 1008.6875 78.257812 C 1011.855469 76.253906 1015.9375 75.253906 1020.9375 75.253906 C 1025.9375 75.253906 1029.980469 76.253906 1033.066406 78.257812 C 1036.230469 80.15625 1038.6875 82.527344 1040.441406 85.378906 C 1042.1875 88.117188 1043.355469 91.125 1043.9375 94.394531 C 1044.605469 97.558594 1044.9375 100.40625 1044.9375 102.9375 L 1044.9375 173.8125 L 1028.9375 173.8125 L 1028.9375 102.9375 C 1028.9375 100.40625 1028.6875 98.351562 1028.191406 96.765625 C 1027.773438 95.078125 1027.1875 93.816406 1026.4375 92.972656 C 1025.691406 92.019531 1024.8125 91.390625 1023.8125 91.074219 C 1022.898438 90.648438 1021.9375 90.441406 1020.9375 90.441406 C 1019.9375 90.441406 1018.941406 90.648438 1017.9375 91.074219 C 1017.023438 91.390625 1016.191406 92.019531 1015.4375 92.972656 C 1014.6875 93.816406 1014.0625 95.078125 1013.5625 96.765625 C 1013.148438 98.351562 1012.9375 100.40625 1012.9375 102.9375 L 1012.9375 133.789062 C 1012.9375 145.703125 1013.730469 155.671875 1015.3125 163.6875 C 1016.898438 171.703125 1018.855469 178.714844 1021.1875 184.730469 C 1023.605469 190.636719 1026.1875 196.015625 1028.9375 200.863281 C 1031.6875 205.714844 1034.230469 210.988281 1036.5625 216.683594 C 1038.980469 222.273438 1040.980469 228.816406 1042.5625 236.300781 C 1044.148438 243.683594 1044.9375 252.914062 1044.9375 263.988281 L 1044.9375 325.6875 C 1044.9375 326.953125 1044.8125 329.273438 1044.5625 332.648438 C 1044.3125 335.917969 1043.4375 339.292969 1041.9375 342.773438 C 1040.441406 346.253906 1038.0625 349.3125 1034.8125 351.949219 C 1031.566406 354.691406 1026.941406 356.0625 1020.9375 356.0625 C 1014.941406 356.0625 1010.316406 354.691406 1007.0625 351.949219 C 1003.8125 349.3125 1001.4375 346.253906 999.9375 342.773438 C 998.4375 339.292969 997.5625 335.917969 997.3125 332.648438 C 997.066406 329.273438 996.9375 326.953125 996.9375 325.6875 L 996.9375 234.5625 L 1012.9375 234.5625 L 1012.9375 325.6875 C 1012.9375 326.953125 1012.980469 328.480469 1013.066406 330.273438 C 1013.148438 331.960938 1013.4375 333.597656 1013.9375 335.179688 C 1014.4375 336.761719 1015.230469 338.132812 1016.3125 339.292969 C 1017.398438 340.347656 1018.941406 340.875 1020.9375 340.875 C 1022.941406 340.875 1024.480469 340.347656 1025.5625 339.292969 C 1026.648438 338.132812 1027.4375 336.761719 1027.9375 335.179688 C 1028.441406 333.597656 1028.730469 331.960938 1028.8125 330.273438 C 1028.898438 328.480469 1028.9375 326.953125 1028.9375 325.6875 Z M 1072.9375 204.1875 L 1088.9375 204.1875 L 1088.9375 77.625 L 1104.9375 77.625 L 1104.9375 351 L 1088.9375 351 L 1088.9375 219.375 L 1072.9375 219.375 L 1072.9375 351 L 1056.9375 351 L 1056.9375 77.625 L 1072.9375 77.625 Z M 1164.9375 351 L 1148.9375 351 L 1146.941406 285.1875 L 1135.0625 285.1875 L 1132.9375 351 L 1116.9375 351 L 1128.9375 77.625 L 1152.9375 77.625 Z M 1144.9375 209.25 L 1140.9375 87.75 L 1136.9375 209.25 L 1135.0625 270 L 1146.941406 270 Z M 1224.9375 194.0625 C 1224.9375 200.390625 1224.019531 205.296875 1222.1875 208.773438 C 1220.355469 212.148438 1217.9375 214.628906 1214.941406 216.210938 C 1211.9375 217.792969 1208.523438 218.742188 1204.6875 219.058594 C 1200.855469 219.269531 1196.9375 219.375 1192.9375 219.375 L 1192.9375 351 L 1176.9375 351 L 1176.9375 77.625 L 1192.9375 77.625 C 1200.9375 77.625 1207.105469 78.46875 1211.4375 80.15625 C 1215.773438 81.84375 1218.941406 83.953125 1220.9375 86.484375 C 1222.941406 89.015625 1224.105469 91.757812 1224.441406 94.710938 C 1224.773438 97.664062 1224.9375 100.40625 1224.9375 102.9375 Z M 1208.9375 102.9375 C 1208.9375 100.40625 1208.644531 98.453125 1208.0625 97.082031 C 1207.566406 95.710938 1206.6875 94.710938 1205.4375 94.078125 C 1204.191406 93.445312 1202.523438 93.078125 1200.441406 92.972656 C 1198.4375 92.863281 1195.9375 92.8125 1192.9375 92.8125 L 1192.9375 204.1875 C 1194.941406 204.1875 1196.898438 204.136719 1198.8125 204.027344 C 1200.730469 203.921875 1202.4375 203.554688 1203.9375 202.921875 C 1205.4375 202.289062 1206.648438 201.289062 1207.566406 199.917969 C 1208.480469 198.546875 1208.9375 196.59375 1208.9375 194.0625 Z M 1272.9375 92.8125 L 1252.9375 92.8125 L 1252.9375 199.125 L 1268.9375 199.125 L 1268.9375 214.3125 L 1252.9375 214.3125 L 1252.9375 335.8125 L 1272.9375 335.8125 L 1272.9375 351 L 1236.9375 351 L 1236.9375 77.625 L 1272.9375 77.625 Z M 1362.6875 325.6875 C 1362.6875 332.015625 1361.773438 336.917969 1359.9375 340.398438 C 1358.105469 343.773438 1355.6875 346.253906 1352.6875 347.835938 C 1349.691406 349.417969 1346.273438 350.367188 1342.4375 350.683594 C 1338.605469 350.894531 1334.6875 351 1330.6875 351 L 1314.6875 351 L 1314.6875 77.625 L 1330.6875 77.625 C 1335.6875 77.625 1340.148438 77.785156 1344.0625 78.101562 C 1348.0625 78.308594 1351.4375 79.207031 1354.1875 80.789062 C 1356.9375 82.371094 1359.023438 84.902344 1360.441406 88.382812 C 1361.9375 91.757812 1362.6875 96.609375 1362.6875 102.9375 L 1362.6875 189 C 1362.6875 194.0625 1361.691406 197.964844 1359.6875 200.707031 C 1357.691406 203.449219 1354.6875 205.507812 1350.6875 206.878906 C 1354.6875 208.039062 1357.691406 209.988281 1359.6875 212.730469 C 1361.691406 215.472656 1362.6875 219.375 1362.6875 224.4375 Z M 1330.6875 199.125 L 1342.6875 199.125 C 1343.6875 199.125 1344.441406 198.859375 1344.9375 198.332031 C 1345.523438 197.703125 1345.9375 196.910156 1346.1875 195.960938 C 1346.4375 195.011719 1346.5625 193.957031 1346.5625 192.796875 C 1346.648438 191.53125 1346.6875 190.265625 1346.6875 189 L 1346.6875 102.9375 C 1346.6875 100.40625 1346.398438 98.453125 1345.8125 97.082031 C 1345.3125 95.710938 1344.441406 94.710938 1343.1875 94.078125 C 1341.9375 93.445312 1340.273438 93.078125 1338.1875 92.972656 C 1336.191406 92.863281 1333.691406 92.8125 1330.6875 92.8125 Z M 1346.6875 224.4375 C 1346.6875 223.171875 1346.648438 221.957031 1346.5625 220.796875 C 1346.5625 219.535156 1346.4375 218.425781 1346.1875 217.476562 C 1345.9375 216.527344 1345.523438 215.789062 1344.9375 215.261719 C 1344.441406 214.628906 1343.6875 214.3125 1342.6875 214.3125 L 1330.6875 214.3125 L 1330.6875 335.8125 C 1333.691406 335.8125 1336.191406 335.757812 1338.1875 335.652344 C 1340.273438 335.546875 1341.9375 335.179688 1343.1875 334.546875 C 1344.441406 333.914062 1345.3125 332.914062 1345.8125 331.542969 C 1346.398438 330.167969 1346.6875 328.21875 1346.6875 325.6875 Z M 1426.6875 189 C 1426.6875 196.59375 1425.691406 201.867188 1423.6875 204.820312 C 1421.691406 207.773438 1418.6875 209.25 1414.6875 209.25 C 1416.6875 209.25 1418.4375 209.828125 1419.9375 210.988281 C 1421.4375 212.148438 1422.6875 213.679688 1423.6875 215.578125 C 1424.6875 217.476562 1425.4375 219.640625 1425.9375 222.066406 C 1426.4375 224.488281 1426.6875 226.96875 1426.6875 229.5 L 1426.6875 351 L 1410.6875 351 L 1410.6875 224.4375 C 1410.6875 221.90625 1410.230469 219.953125 1409.3125 218.582031 C 1408.398438 217.210938 1407.1875 216.210938 1405.691406 215.578125 C 1404.191406 214.945312 1402.480469 214.578125 1400.5625 214.472656 C 1398.648438 214.363281 1396.6875 214.3125 1394.6875 214.3125 L 1394.6875 351 L 1378.6875 351 L 1378.6875 77.625 L 1394.6875 77.625 C 1398.6875 77.625 1402.605469 77.785156 1406.4375 78.101562 C 1410.273438 78.308594 1413.691406 79.207031 1416.6875 80.789062 C 1419.6875 82.371094 1422.105469 84.902344 1423.9375 88.382812 C 1425.773438 91.757812 1426.6875 96.609375 1426.6875 102.9375 Z M 1410.6875 102.9375 C 1410.6875 100.40625 1410.398438 98.453125 1409.8125 97.082031 C 1409.3125 95.710938 1408.441406 94.710938 1407.1875 94.078125 C 1405.9375 93.445312 1404.273438 93.078125 1402.1875 92.972656 C 1400.191406 92.863281 1397.691406 92.8125 1394.6875 92.8125 L 1394.6875 204.1875 C 1396.6875 204.1875 1398.648438 204.136719 1400.5625 204.027344 C 1402.480469 203.921875 1404.191406 203.554688 1405.691406 202.921875 C 1407.1875 202.289062 1408.398438 201.289062 1409.3125 199.917969 C 1410.230469 198.546875 1410.6875 196.59375 1410.6875 194.0625 Z M 1460.6875 77.625 L 1460.6875 351 L 1444.6875 351 L 1444.6875 77.625 Z M 1494.6875 77.625 L 1494.6875 335.8125 L 1510.6875 335.8125 L 1510.6875 351 L 1478.6875 351 L 1478.6875 77.625 Z M 1542.6875 77.625 L 1542.6875 335.8125 L 1558.6875 335.8125 L 1558.6875 351 L 1526.6875 351 L 1526.6875 77.625 Z M 1592.6875 77.625 L 1592.6875 351 L 1576.6875 351 L 1576.6875 77.625 Z M 1654.6875 351 L 1638.6875 351 L 1636.6875 285.1875 L 1624.8125 285.1875 L 1622.6875 351 L 1606.6875 351 L 1618.6875 77.625 L 1642.6875 77.625 Z M 1634.6875 209.25 L 1630.6875 87.75 L 1626.6875 209.25 L 1624.8125 270 L 1636.6875 270 Z M 1714.6875 351 L 1698.6875 351 L 1678.6875 148.5 L 1678.6875 351 L 1666.6875 351 L 1666.6875 77.625 L 1682.6875 77.625 L 1702.6875 280.125 L 1702.6875 77.625 L 1714.6875 77.625 Z M 1778.6875 189 L 1762.6875 189 L 1762.6875 102.9375 C 1762.6875 100.40625 1762.4375 98.351562 1761.9375 96.765625 C 1761.523438 95.078125 1760.9375 93.816406 1760.191406 92.972656 C 1759.4375 92.019531 1758.5625 91.390625 1757.5625 91.074219 C 1756.644531 90.648438 1755.6875 90.441406 1754.6875 90.441406 C 1753.691406 90.441406 1752.6875 90.648438 1751.6875 91.074219 C 1750.769531 91.390625 1749.9375 92.019531 1749.1875 92.972656 C 1748.441406 93.816406 1747.8125 95.078125 1747.3125 96.765625 C 1746.898438 98.351562 1746.6875 100.40625 1746.6875 102.9375 L 1746.6875 325.6875 C 1746.6875 326.953125 1746.730469 328.480469 1746.8125 330.273438 C 1746.898438 331.960938 1747.1875 333.597656 1747.6875 335.179688 C 1748.191406 336.761719 1748.980469 338.132812 1750.0625 339.292969 C 1751.148438 340.347656 1752.6875 340.875 1754.6875 340.875 C 1756.6875 340.875 1758.230469 340.347656 1759.3125 339.292969 C 1760.398438 338.132812 1761.1875 336.761719 1761.691406 335.179688 C 1762.1875 333.597656 1762.480469 331.960938 1762.5625 330.273438 C 1762.648438 328.480469 1762.6875 326.953125 1762.6875 325.6875 L 1762.6875 219.375 L 1778.6875 219.375 L 1778.6875 325.6875 C 1778.6875 326.953125 1778.5625 329.273438 1778.316406 332.648438 C 1778.0625 335.917969 1777.1875 339.292969 1775.6875 342.773438 C 1774.1875 346.253906 1771.8125 349.3125 1768.5625 351.949219 C 1765.3125 354.691406 1760.6875 356.0625 1754.6875 356.0625 C 1748.6875 356.0625 1744.0625 354.691406 1740.8125 351.949219 C 1737.5625 349.3125 1735.1875 346.253906 1733.691406 342.773438 C 1732.191406 339.292969 1731.3125 335.917969 1731.0625 332.648438 C 1730.8125 329.273438 1730.6875 326.953125 1730.6875 325.6875 L 1730.6875 102.9375 C 1730.6875 98.085938 1731.394531 93.921875 1732.8125 90.441406 C 1734.230469 86.855469 1736.0625 83.953125 1738.316406 81.738281 C 1740.644531 79.523438 1743.230469 77.890625 1746.0625 76.832031 C 1748.898438 75.777344 1751.773438 75.253906 1754.6875 75.253906 C 1757.773438 75.253906 1760.730469 75.832031 1763.566406 76.992188 C 1766.480469 78.152344 1769.066406 79.890625 1771.3125 82.210938 C 1773.5625 84.535156 1775.355469 87.433594 1776.6875 90.914062 C 1778.023438 94.394531 1778.6875 98.402344 1778.6875 102.9375 Z M 1830.6875 92.8125 L 1810.6875 92.8125 L 1810.6875 199.125 L 1826.6875 199.125 L 1826.6875 214.3125 L 1810.6875 214.3125 L 1810.6875 335.8125 L 1830.6875 335.8125 L 1830.6875 351 L 1794.6875 351 L 1794.6875 77.625 L 1830.6875 77.625 Z M 1830.6875 92.8125 "/>
<path style=" stroke:none;fill-rule:nonzero;fill:rgb(0%,0%,0%);fill-opacity:1;" d="M 1044.9375 725.625 L 1060.9375 725.625 L 1064.9375 999 L 1048.9375 999 L 1048.9375 811.6875 L 1036.9375 983.8125 L 1028.9375 983.8125 L 1016.9375 811.6875 L 1016.9375 999 L 1000.9375 999 L 1004.9375 725.625 L 1020.9375 725.625 L 1032.9375 912.9375 Z M 1124.9375 999 L 1108.9375 999 L 1106.941406 933.1875 L 1095.0625 933.1875 L 1092.9375 999 L 1076.9375 999 L 1088.9375 725.625 L 1112.9375 725.625 Z M 1104.9375 857.25 L 1100.9375 735.75 L 1096.9375 857.25 L 1095.0625 918 L 1106.941406 918 Z M 1184.9375 999 L 1168.9375 999 L 1152.9375 862.3125 L 1152.9375 999 L 1136.9375 999 L 1136.9375 725.625 L 1152.9375 725.625 L 1152.9375 852.1875 L 1168.9375 725.625 L 1184.9375 725.625 L 1168.9375 842.0625 L 1167.1875 857.25 L 1168.9375 872.4375 Z M 1232.9375 740.8125 L 1212.9375 740.8125 L 1212.9375 847.125 L 1228.9375 847.125 L 1228.9375 862.3125 L 1212.9375 862.3125 L 1212.9375 983.8125 L 1232.9375 983.8125 L 1232.9375 999 L 1196.9375 999 L 1196.9375 725.625 L 1232.9375 725.625 Z M 1302.6875 932.394531 C 1302.6875 921.214844 1302.230469 911.621094 1301.3125 903.605469 C 1300.398438 895.585938 1299.1875 888.625 1297.691406 882.722656 C 1296.191406 876.707031 1294.480469 871.488281 1292.5625 867.058594 C 1290.648438 862.628906 1288.6875 858.460938 1286.6875 854.5625 C 1284.6875 850.660156 1282.730469 846.753906 1280.8125 842.855469 C 1278.898438 838.953125 1277.1875 834.519531 1275.6875 829.5625 C 1274.1875 824.605469 1272.980469 818.914062 1272.0625 812.480469 C 1271.148438 805.9375 1270.6875 798.132812 1270.6875 789.0625 L 1270.6875 750.9375 C 1270.6875 748.40625 1270.980469 745.558594 1271.566406 742.394531 C 1272.230469 739.125 1273.4375 736.121094 1275.1875 733.375 C 1276.9375 730.527344 1279.355469 728.15625 1282.4375 726.257812 C 1285.605469 724.253906 1289.691406 723.25 1294.6875 723.25 C 1299.6875 723.25 1303.730469 724.253906 1306.8125 726.257812 C 1309.980469 728.15625 1312.441406 730.527344 1314.1875 733.375 C 1315.9375 736.121094 1317.105469 739.125 1317.691406 742.394531 C 1318.355469 745.558594 1318.6875 748.40625 1318.6875 750.9375 L 1318.6875 821.8125 L 1302.6875 821.8125 L 1302.6875 750.9375 C 1302.6875 748.40625 1302.4375 746.351562 1301.9375 744.769531 C 1301.523438 743.082031 1300.9375 741.8125 1300.191406 740.972656 C 1299.4375 740.019531 1298.5625 739.390625 1297.5625 739.070312 C 1296.644531 738.648438 1295.6875 738.4375 1294.6875 738.4375 C 1293.691406 738.4375 1292.6875 738.648438 1291.6875 739.070312 C 1290.769531 739.390625 1289.9375 740.019531 1289.1875 740.972656 C 1288.441406 741.8125 1287.8125 743.082031 1287.3125 744.769531 C 1286.898438 746.351562 1286.6875 748.40625 1286.6875 750.9375 L 1286.6875 781.789062 C 1286.6875 793.707031 1287.480469 803.671875 1289.066406 811.6875 C 1290.648438 819.703125 1292.605469 826.714844 1294.941406 832.730469 C 1297.355469 838.632812 1299.9375 844.015625 1302.6875 848.867188 C 1305.4375 853.714844 1307.980469 858.992188 1310.316406 864.6875 C 1312.730469 870.273438 1314.730469 876.8125 1316.3125 884.304688 C 1317.898438 891.6875 1318.6875 900.914062 1318.6875 911.988281 L 1318.6875 973.6875 C 1318.6875 974.953125 1318.5625 977.273438 1318.316406 980.648438 C 1318.0625 983.917969 1317.1875 987.292969 1315.6875 990.773438 C 1314.1875 994.253906 1311.8125 997.3125 1308.5625 999.949219 C 1305.3125 1002.691406 1300.6875 1004.0625 1294.6875 1004.0625 C 1288.6875 1004.0625 1284.0625 1002.691406 1280.8125 999.949219 C 1277.5625 997.3125 1275.1875 994.253906 1273.691406 990.773438 C 1272.191406 987.292969 1271.3125 983.917969 1271.0625 980.648438 C 1270.8125 977.273438 1270.6875 974.953125 1270.6875 973.6875 L 1270.6875 882.5625 L 1286.6875 882.5625 L 1286.6875 973.6875 C 1286.6875 974.953125 1286.730469 976.480469 1286.8125 978.273438 C 1286.898438 979.960938 1287.1875 981.597656 1287.6875 983.179688 C 1288.191406 984.761719 1288.980469 986.132812 1290.0625 987.292969 C 1291.148438 988.347656 1292.6875 988.875 1294.6875 988.875 C 1296.6875 988.875 1298.230469 988.347656 1299.3125 987.292969 C 1300.398438 986.132812 1301.1875 984.761719 1301.691406 983.179688 C 1302.1875 981.597656 1302.480469 979.960938 1302.5625 978.273438 C 1302.648438 976.480469 1302.6875 974.953125 1302.6875 973.6875 Z M 1346.6875 852.1875 L 1362.6875 852.1875 L 1362.6875 725.625 L 1378.6875 725.625 L 1378.6875 999 L 1362.6875 999 L 1362.6875 867.375 L 1346.6875 867.375 L 1346.6875 999 L 1330.6875 999 L 1330.6875 725.625 L 1346.6875 725.625 Z M 1412.6875 725.625 L 1412.6875 999 L 1396.6875 999 L 1396.6875 725.625 Z M 1478.6875 999 L 1462.6875 999 L 1442.6875 796.5 L 1442.6875 999 L 1430.6875 999 L 1430.6875 725.625 L 1446.6875 725.625 L 1466.6875 928.125 L 1466.6875 725.625 L 1478.6875 725.625 Z M 1530.6875 740.8125 L 1510.6875 740.8125 L 1510.6875 847.125 L 1526.6875 847.125 L 1526.6875 862.3125 L 1510.6875 862.3125 L 1510.6875 983.8125 L 1530.6875 983.8125 L 1530.6875 999 L 1494.6875 999 L 1494.6875 725.625 L 1530.6875 725.625 Z M 1570.6875 932.394531 C 1570.6875 921.214844 1570.230469 911.621094 1569.3125 903.605469 C 1568.398438 895.585938 1567.1875 888.625 1565.691406 882.722656 C 1564.191406 876.707031 1562.480469 871.488281 1560.5625 867.058594 C 1558.648438 862.628906 1556.6875 858.460938 1554.6875 854.5625 C 1552.6875 850.660156 1550.730469 846.753906 1548.8125 842.855469 C 1546.898438 838.953125 1545.1875 834.519531 1543.6875 829.5625 C 1542.1875 824.605469 1540.980469 818.914062 1540.0625 812.480469 C 1539.148438 805.9375 1538.6875 798.132812 1538.6875 789.0625 L 1538.6875 750.9375 C 1538.6875 748.40625 1538.980469 745.558594 1539.566406 742.394531 C 1540.230469 739.125 1541.4375 736.121094 1543.1875 733.375 C 1544.9375 730.527344 1547.355469 728.15625 1550.4375 726.257812 C 1553.605469 724.253906 1557.691406 723.25 1562.6875 723.25 C 1567.6875 723.25 1571.730469 724.253906 1574.8125 726.257812 C 1577.980469 728.15625 1580.441406 730.527344 1582.1875 733.375 C 1583.9375 736.121094 1585.105469 739.125 1585.691406 742.394531 C 1586.355469 745.558594 1586.6875 748.40625 1586.6875 750.9375 L 1586.6875 821.8125 L 1570.6875 821.8125 L 1570.6875 750.9375 C 1570.6875 748.40625 1570.4375 746.351562 1569.9375 744.769531 C 1569.523438 743.082031 1568.9375 741.8125 1568.191406 740.972656 C 1567.4375 740.019531 1566.5625 739.390625 1565.5625 739.070312 C 1564.644531 738.648438 1563.6875 738.4375 1562.6875 738.4375 C 1561.691406 738.4375 1560.6875 738.648438 1559.6875 739.070312 C 1558.769531 739.390625 1557.9375 740.019531 1557.1875 740.972656 C 1556.441406 741.8125 1555.8125 743.082031 1555.3125 744.769531 C 1554.898438 746.351562 1554.6875 748.40625 1554.6875 750.9375 L 1554.6875 781.789062 C 1554.6875 793.707031 1555.480469 803.671875 1557.066406 811.6875 C 1558.648438 819.703125 1560.605469 826.714844 1562.941406 832.730469 C 1565.355469 838.632812 1567.9375 844.015625 1570.6875 848.867188 C 1573.4375 853.714844 1575.980469 858.992188 1578.316406 864.6875 C 1580.730469 870.273438 1582.730469 876.8125 1584.3125 884.304688 C 1585.898438 891.6875 1586.6875 900.914062 1586.6875 911.988281 L 1586.6875 973.6875 C 1586.6875 974.953125 1586.5625 977.273438 1586.316406 980.648438 C 1586.0625 983.917969 1585.1875 987.292969 1583.6875 990.773438 C 1582.1875 994.253906 1579.8125 997.3125 1576.5625 999.949219 C 1573.3125 1002.691406 1568.6875 1004.0625 1562.6875 1004.0625 C 1556.6875 1004.0625 1552.0625 1002.691406 1548.8125 999.949219 C 1545.5625 997.3125 1543.1875 994.253906 1541.691406 990.773438 C 1540.191406 987.292969 1539.3125 983.917969 1539.0625 980.648438 C 1538.8125 977.273438 1538.6875 974.953125 1538.6875 973.6875 L 1538.6875 882.5625 L 1554.6875 882.5625 L 1554.6875 973.6875 C 1554.6875 974.953125 1554.730469 976.480469 1554.8125 978.273438 C 1554.898438 979.960938 1555.1875 981.597656 1555.6875 983.179688 C 1556.191406 984.761719 1556.980469 986.132812 1558.0625 987.292969 C 1559.148438 988.347656 1560.6875 988.875 1562.6875 988.875 C 1564.6875 988.875 1566.230469 988.347656 1567.3125 987.292969 C 1568.398438 986.132812 1569.1875 984.761719 1569.691406 983.179688 C 1570.1875 981.597656 1570.480469 979.960938 1570.5625 978.273438 C 1570.648438 976.480469 1570.6875 974.953125 1570.6875 973.6875 Z M 1570.6875 932.394531 "/>
<path style=" stroke:none;fill-rule:nonzero;fill:rgb(0%,0%,0%);fill-opacity:1;" d="M 1343.605469 401.625 L 1359.605469 401.625 L 1363.605469 675 L 1347.605469 675 L 1347.605469 487.6875 L 1335.605469 659.8125 L 1327.605469 659.8125 L 1315.605469 487.6875 L 1315.605469 675 L 1299.605469 675 L 1303.605469 401.625 L 1319.605469 401.625 L 1331.605469 588.9375 Z M 1423.605469 675 L 1407.605469 675 L 1405.605469 609.1875 L 1393.730469 609.1875 L 1391.605469 675 L 1375.605469 675 L 1387.605469 401.625 L 1411.605469 401.625 Z M 1403.605469 533.25 L 1399.605469 411.75 L 1395.605469 533.25 L 1393.730469 594 L 1405.605469 594 Z M 1467.605469 426.9375 C 1467.605469 424.40625 1467.3125 422.457031 1466.730469 421.082031 C 1466.230469 419.710938 1465.355469 418.710938 1464.105469 418.078125 C 1462.855469 417.445312 1461.1875 417.078125 1459.105469 416.972656 C 1457.105469 416.867188 1454.605469 416.8125 1451.605469 416.8125 L 1451.605469 659.8125 C 1454.605469 659.8125 1457.105469 659.757812 1459.105469 659.652344 C 1461.1875 659.546875 1462.855469 659.179688 1464.105469 658.546875 C 1465.355469 657.914062 1466.230469 656.914062 1466.730469 655.542969 C 1467.3125 654.167969 1467.605469 652.21875 1467.605469 649.6875 Z M 1483.605469 649.6875 C 1483.605469 656.015625 1482.6875 660.917969 1480.855469 664.398438 C 1479.023438 667.773438 1476.605469 670.253906 1473.605469 671.835938 C 1470.605469 673.417969 1467.1875 674.367188 1463.355469 674.683594 C 1459.523438 674.894531 1455.605469 675 1451.605469 675 L 1435.605469 675 L 1435.605469 401.625 L 1451.605469 401.625 C 1455.605469 401.625 1459.523438 401.785156 1463.355469 402.101562 C 1467.1875 402.3125 1470.605469 403.207031 1473.605469 404.789062 C 1476.605469 406.371094 1479.023438 408.902344 1480.855469 412.382812 C 1482.6875 415.757812 1483.605469 420.609375 1483.605469 426.9375 Z M 1535.605469 416.8125 L 1515.605469 416.8125 L 1515.605469 523.125 L 1531.605469 523.125 L 1531.605469 538.3125 L 1515.605469 538.3125 L 1515.605469 659.8125 L 1535.605469 659.8125 L 1535.605469 675 L 1499.605469 675 L 1499.605469 401.625 L 1535.605469 401.625 Z M 1605.355469 608.394531 C 1605.355469 597.214844 1604.898438 587.621094 1603.980469 579.605469 C 1603.0625 571.585938 1601.855469 564.625 1600.355469 558.722656 C 1598.855469 552.707031 1597.148438 547.488281 1595.230469 543.058594 C 1593.3125 538.628906 1591.355469 534.460938 1589.355469 530.5625 C 1587.355469 526.660156 1585.398438 522.753906 1583.480469 518.855469 C 1581.5625 514.953125 1579.855469 510.519531 1578.355469 505.5625 C 1576.855469 500.605469 1575.648438 494.914062 1574.730469 488.480469 C 1573.8125 481.9375 1573.355469 474.132812 1573.355469 465.0625 L 1573.355469 426.9375 C 1573.355469 424.40625 1573.648438 421.558594 1574.230469 418.394531 C 1574.898438 415.125 1576.105469 412.121094 1577.855469 409.375 C 1579.605469 406.527344 1582.023438 404.15625 1585.105469 402.257812 C 1588.273438 400.253906 1592.355469 399.25 1597.355469 399.25 C 1602.355469 399.25 1606.398438 400.253906 1609.480469 402.257812 C 1612.644531 404.15625 1615.105469 406.527344 1616.855469 409.375 C 1618.605469 412.121094 1619.773438 415.125 1620.355469 418.394531 C 1621.023438 421.558594 1621.355469 424.40625 1621.355469 426.9375 L 1621.355469 497.8125 L 1605.355469 497.8125 L 1605.355469 426.9375 C 1605.355469 424.40625 1605.105469 422.351562 1604.605469 420.769531 C 1604.191406 419.082031 1603.605469 417.8125 1602.855469 416.972656 C 1602.105469 416.019531 1601.230469 415.390625 1600.230469 415.070312 C 1599.3125 414.648438 1598.355469 414.4375 1597.355469 414.4375 C 1596.355469 414.4375 1595.355469 414.648438 1594.355469 415.070312 C 1593.4375 415.390625 1592.605469 416.019531 1591.855469 416.972656 C 1591.105469 417.8125 1590.480469 419.082031 1589.980469 420.769531 C 1589.5625 422.351562 1589.355469 424.40625 1589.355469 426.9375 L 1589.355469 457.789062 C 1589.355469 469.707031 1590.144531 479.671875 1591.730469 487.6875 C 1593.3125 495.703125 1595.273438 502.714844 1597.605469 508.730469 C 1600.019531 514.632812 1602.605469 520.015625 1605.355469 524.867188 C 1608.105469 529.714844 1610.648438 534.992188 1612.980469 540.6875 C 1615.394531 546.273438 1617.398438 552.8125 1618.980469 560.304688 C 1620.5625 567.6875 1621.355469 576.914062 1621.355469 587.988281 L 1621.355469 649.6875 C 1621.355469 650.953125 1621.230469 653.273438 1620.980469 656.648438 C 1620.730469 659.917969 1619.855469 663.292969 1618.355469 666.773438 C 1616.855469 670.253906 1614.480469 673.3125 1611.230469 675.949219 C 1607.980469 678.691406 1603.355469 680.0625 1597.355469 680.0625 C 1591.355469 680.0625 1586.730469 678.691406 1583.480469 675.949219 C 1580.230469 673.3125 1577.855469 670.253906 1576.355469 666.773438 C 1574.855469 663.292969 1573.980469 659.917969 1573.730469 656.648438 C 1573.480469 653.273438 1573.355469 650.953125 1573.355469 649.6875 L 1573.355469 558.5625 L 1589.355469 558.5625 L 1589.355469 649.6875 C 1589.355469 650.953125 1589.398438 652.480469 1589.480469 654.273438 C 1589.5625 655.960938 1589.855469 657.597656 1590.355469 659.179688 C 1590.855469 660.761719 1591.648438 662.132812 1592.730469 663.292969 C 1593.8125 664.347656 1595.355469 664.875 1597.355469 664.875 C 1599.355469 664.875 1600.898438 664.347656 1601.980469 663.292969 C 1603.0625 662.132812 1603.855469 660.761719 1604.355469 659.179688 C 1604.855469 657.597656 1605.148438 655.960938 1605.230469 654.273438 C 1605.3125 652.480469 1605.355469 650.953125 1605.355469 649.6875 Z M 1649.355469 528.1875 L 1665.355469 528.1875 L 1665.355469 401.625 L 1681.355469 401.625 L 1681.355469 675 L 1665.355469 675 L 1665.355469 543.375 L 1649.355469 543.375 L 1649.355469 675 L 1633.355469 675 L 1633.355469 401.625 L 1649.355469 401.625 Z M 1741.355469 675 L 1725.355469 675 L 1723.355469 609.1875 L 1711.480469 609.1875 L 1709.355469 675 L 1693.355469 675 L 1705.355469 401.625 L 1729.355469 401.625 Z M 1721.355469 533.25 L 1717.355469 411.75 L 1713.355469 533.25 L 1711.480469 594 L 1723.355469 594 Z M 1801.355469 518.0625 C 1801.355469 524.390625 1800.441406 529.292969 1798.605469 532.773438 C 1796.773438 536.148438 1794.355469 538.628906 1791.355469 540.210938 C 1788.355469 541.792969 1784.9375 542.742188 1781.105469 543.058594 C 1777.269531 543.269531 1773.355469 543.375 1769.355469 543.375 L 1769.355469 675 L 1753.355469 675 L 1753.355469 401.625 L 1769.355469 401.625 C 1777.355469 401.625 1783.523438 402.46875 1787.855469 404.15625 C 1792.191406 405.84375 1795.355469 407.953125 1797.355469 410.484375 C 1799.355469 413.015625 1800.523438 415.757812 1800.855469 418.710938 C 1801.1875 421.664062 1801.355469 424.40625 1801.355469 426.9375 Z M 1785.355469 426.9375 C 1785.355469 424.40625 1785.066406 422.457031 1784.480469 421.082031 C 1783.980469 419.710938 1783.105469 418.710938 1781.855469 418.078125 C 1780.605469 417.445312 1778.941406 417.078125 1776.855469 416.972656 C 1774.855469 416.867188 1772.355469 416.8125 1769.355469 416.8125 L 1769.355469 528.1875 C 1771.355469 528.1875 1773.3125 528.132812 1775.230469 528.027344 C 1777.148438 527.921875 1778.855469 527.554688 1780.355469 526.921875 C 1781.855469 526.289062 1783.0625 525.289062 1783.980469 523.917969 C 1784.898438 522.542969 1785.355469 520.59375 1785.355469 518.0625 Z M 1849.355469 416.8125 L 1829.355469 416.8125 L 1829.355469 523.125 L 1845.355469 523.125 L 1845.355469 538.3125 L 1829.355469 538.3125 L 1829.355469 659.8125 L 1849.355469 659.8125 L 1849.355469 675 L 1813.355469 675 L 1813.355469 401.625 L 1849.355469 401.625 Z M 1889.355469 608.394531 C 1889.355469 597.214844 1888.898438 587.621094 1887.980469 579.605469 C 1887.0625 571.585938 1885.855469 564.625 1884.355469 558.722656 C 1882.855469 552.707031 1881.148438 547.488281 1879.230469 543.058594 C 1877.3125 538.628906 1875.355469 534.460938 1873.355469 530.5625 C 1871.355469 526.660156 1869.398438 522.753906 1867.480469 518.855469 C 1865.5625 514.953125 1863.855469 510.519531 1862.355469 505.5625 C 1860.855469 500.605469 1859.648438 494.914062 1858.730469 488.480469 C 1857.8125 481.9375 1857.355469 474.132812 1857.355469 465.0625 L 1857.355469 426.9375 C 1857.355469 424.40625 1857.648438 421.558594 1858.230469 418.394531 C 1858.898438 415.125 1860.105469 412.121094 1861.855469 409.375 C 1863.605469 406.527344 1866.023438 404.15625 1869.105469 402.257812 C 1872.273438 400.253906 1876.355469 399.25 1881.355469 399.25 C 1886.355469 399.25 1890.398438 400.253906 1893.480469 402.257812 C 1896.644531 404.15625 1899.105469 406.527344 1900.855469 409.375 C 1902.605469 412.121094 1903.773438 415.125 1904.355469 418.394531 C 1905.023438 421.558594 1905.355469 424.40625 1905.355469 426.9375 L 1905.355469 497.8125 L 1889.355469 497.8125 L 1889.355469 426.9375 C 1889.355469 424.40625 1889.105469 422.351562 1888.605469 420.769531 C 1888.191406 419.082031 1887.605469 417.8125 1886.855469 416.972656 C 1886.105469 416.019531 1885.230469 415.390625 1884.230469 415.070312 C 1883.3125 414.648438 1882.355469 414.4375 1881.355469 414.4375 C 1880.355469 414.4375 1879.355469 414.648438 1878.355469 415.070312 C 1877.4375 415.390625 1876.605469 416.019531 1875.855469 416.972656 C 1875.105469 417.8125 1874.480469 419.082031 1873.980469 420.769531 C 1873.5625 422.351562 1873.355469 424.40625 1873.355469 426.9375 L 1873.355469 457.789062 C 1873.355469 469.707031 1874.144531 479.671875 1875.730469 487.6875 C 1877.3125 495.703125 1879.273438 502.714844 1881.605469 508.730469 C 1884.019531 514.632812 1886.605469 520.015625 1889.355469 524.867188 C 1892.105469 529.714844 1894.648438 534.992188 1896.980469 540.6875 C 1899.394531 546.273438 1901.398438 552.8125 1902.980469 560.304688 C 1904.5625 567.6875 1905.355469 576.914062 1905.355469 587.988281 L 1905.355469 649.6875 C 1905.355469 650.953125 1905.230469 653.273438 1904.980469 656.648438 C 1904.730469 659.917969 1903.855469 663.292969 1902.355469 666.773438 C 1900.855469 670.253906 1898.480469 673.3125 1895.230469 675.949219 C 1891.980469 678.691406 1887.355469 680.0625 1881.355469 680.0625 C 1875.355469 680.0625 1870.730469 678.691406 1867.480469 675.949219 C 1864.230469 673.3125 1861.855469 670.253906 1860.355469 666.773438 C 1858.855469 663.292969 1857.980469 659.917969 1857.730469 656.648438 C 1857.480469 653.273438 1857.355469 650.953125 1857.355469 649.6875 L 1857.355469 558.5625 L 1873.355469 558.5625 L 1873.355469 649.6875 C 1873.355469 650.953125 1873.398438 652.480469 1873.480469 654.273438 C 1873.5625 655.960938 1873.855469 657.597656 1874.355469 659.179688 C 1874.855469 660.761719 1875.648438 662.132812 1876.730469 663.292969 C 1877.8125 664.347656 1879.355469 664.875 1881.355469 664.875 C 1883.355469 664.875 1884.898438 664.347656 1885.980469 663.292969 C 1887.0625 662.132812 1887.855469 660.761719 1888.355469 659.179688 C 1888.855469 657.597656 1889.148438 655.960938 1889.230469 654.273438 C 1889.3125 652.480469 1889.355469 650.953125 1889.355469 649.6875 Z M 1889.355469 608.394531 "/>
<path style=" stroke:none;fill-rule:nonzero;fill:rgb(0%,0%,0%);fill-opacity:1;" d="M 510.632812 205.199219 L 518.144531 205.199219 C 523.152344 205.199219 526.5625 207.214844 528.382812 211.246094 C 530.660156 214.703125 531.796875 217.871094 531.796875 220.753906 C 531.796875 223.054688 531.570312 225.070312 531.113281 226.800781 L 408.917969 782.351562 C 404.367188 801.359375 394.808594 810.863281 380.246094 810.863281 C 366.136719 810.863281 357.035156 801.359375 352.9375 782.351562 L 268.96875 402.191406 L 185.003906 784.078125 C 179.996094 801.933594 170.667969 810.863281 157.011719 810.863281 C 143.816406 810.863281 134.714844 801.933594 129.707031 784.078125 L 0.683594 227.664062 C 0.226562 225.359375 0 222.769531 0 219.886719 C 0 217.007812 1.136719 213.839844 3.414062 210.382812 C 5.234375 206.929688 8.648438 205.199219 13.652344 205.199219 L 20.480469 205.199219 C 25.941406 205.199219 30.265625 209.230469 33.449219 217.296875 L 157.695312 751.246094 L 245.761719 352.945312 C 249.402344 336.816406 257.367188 328.753906 269.652344 328.753906 C 282.394531 328.753906 290.132812 337.101562 292.863281 353.808594 C 302.421875 397.582031 316.984375 463.824219 336.554688 552.527344 C 356.582031 640.65625 371.371094 706.609375 380.929688 750.382812 L 497.664062 218.160156 C 498.574219 215.28125 500.167969 212.398438 502.441406 209.519531 C 505.171875 206.640625 507.902344 205.199219 510.632812 205.199219 Z M 611.902344 205.199219 L 850.15625 205.199219 C 853.796875 205.199219 856.980469 206.929688 859.710938 210.382812 C 862.441406 213.839844 863.808594 217.871094 863.808594 222.480469 L 863.808594 230.257812 C 863.808594 235.441406 862.441406 239.761719 859.710938 243.214844 C 856.980469 246.097656 853.796875 247.535156 850.15625 247.535156 L 618.730469 247.535156 L 618.730469 767.664062 L 850.15625 767.664062 C 853.796875 767.664062 856.980469 769.390625 859.710938 772.847656 C 862.441406 775.730469 863.808594 779.761719 863.808594 784.945312 L 863.808594 792.71875 C 863.808594 797.328125 862.441406 801.359375 859.710938 804.816406 C 856.980469 808.273438 853.796875 810 850.15625 810 L 611.222656 810 C 600.296875 810 593.019531 807.117188 589.375 801.359375 C 586.191406 795.023438 584.597656 786.382812 584.597656 775.441406 L 584.597656 238.894531 C 584.597656 227.375 586.644531 219.023438 590.742188 213.839844 C 594.835938 208.082031 601.890625 205.199219 611.902344 205.199219 Z M 659.691406 474.769531 L 805.78125 474.769531 C 809.878906 474.769531 813.0625 476.496094 815.339844 479.953125 C 818.070312 483.40625 819.433594 487.4375 819.433594 492.046875 L 819.433594 499.824219 C 819.433594 511.34375 814.882812 517.105469 805.78125 517.105469 L 659.691406 517.105469 C 650.585938 517.105469 646.039062 511.34375 646.039062 499.824219 L 646.039062 492.046875 C 646.039062 487.4375 647.175781 483.40625 649.449219 479.953125 C 652.179688 476.496094 655.59375 474.769531 659.691406 474.769531 Z M 659.691406 474.769531 "/>
</g>
</svg>
