<svg width="162" height="60" viewBox="0 0 162 60" fill="none" xmlns="http://www.w3.org/2000/svg">
<path d="M10.44 11.7001L23.4 4.20009C24.76 3.40009 25.96 3.30009 27 3.90009C28.08 4.5001 28.62 5.6001 28.62 7.20009V45.6001L23.4 48.6001V36.6001L10.44 44.1001V56.1001L5.21998 59.1001V20.7001C5.21998 19.6201 5.45998 18.5001 5.93998 17.3401C6.41998 16.1401 7.05998 15.0401 7.85998 14.0401C8.65998 13.0001 9.51998 12.2201 10.44 11.7001ZM23.4 30.6001V10.2001L10.44 17.7001V38.1001L23.4 30.6001ZM23.4 36.6001V48.6001L18.18 45.6001V33.6001L23.4 36.6001ZM23.4 10.2001V30.6001L18.18 27.6001V7.20009L23.4 10.2001ZM23.4 30.6001L10.44 38.1001L5.21998 35.1001L18.18 27.6001L23.4 30.6001ZM27.06 3.90009C25.98 3.30009 24.76 3.40009 23.4 4.20009L10.44 11.7001C9.51998 12.2201 8.65998 13.0001 7.85998 14.0401C7.05998 15.0401 6.41998 16.1401 5.93998 17.3401C5.45998 18.5001 5.21998 19.6201 5.21998 20.7001V59.1001L-1.70022e-05 56.1001V17.7001C-1.70022e-05 16.6201 0.239983 15.5001 0.719983 14.3401C1.19998 13.1401 1.83998 12.0401 2.63998 11.0401C3.43998 10.0001 4.29998 9.2201 5.21998 8.7001L18.18 1.2001C19.58 0.400095 20.8 0.300095 21.84 0.900097L27.06 3.90009ZM56.6086 36.6001L43.6486 44.1001V56.1001L38.4286 59.1001V14.7001L56.6086 4.20009C57.9686 3.40009 59.1686 3.30009 60.2086 3.90009C61.2886 4.5001 61.8286 5.6001 61.8286 7.20009V21.6001C61.8286 22.6401 61.5686 23.7601 61.0486 24.9601C60.5686 26.1601 59.9286 27.2801 59.1286 28.3201C58.3686 29.3201 57.5286 30.0801 56.6086 30.6001C57.9686 29.8001 59.1686 29.7001 60.2086 30.3001C61.2886 30.9001 61.8286 32.0001 61.8286 33.6001V45.6001L56.6086 48.6001V36.6001ZM56.6086 30.6001V10.2001L43.6486 17.7001V38.1001L56.6086 30.6001ZM56.6086 36.6001V48.6001L51.3886 45.6001V33.6001L56.6086 36.6001ZM60.2686 30.3001C59.1886 29.7001 57.9686 29.8001 56.6086 30.6001L51.3886 27.6001C52.7886 26.8001 54.0086 26.7001 55.0486 27.3001L60.2686 30.3001ZM56.6086 10.2001V30.6001L51.3886 27.6001V7.20009L56.6086 10.2001ZM56.6086 30.6001L43.6486 38.1001L38.4286 35.1001L51.3886 27.6001L56.6086 30.6001ZM60.2686 3.90009C59.1886 3.30009 57.9686 3.40009 56.6086 4.20009L38.4286 14.7001L33.2086 11.7001L51.3886 1.2001C52.7886 0.400095 54.0086 0.300095 55.0486 0.900097L60.2686 3.90009ZM38.4286 14.7001V59.1001L33.2086 56.1001V11.7001L38.4286 14.7001ZM76.8572 14.1001L95.0372 3.60009V42.0001C95.0372 43.0401 94.7772 44.1601 94.2572 45.3601C93.7772 46.5601 93.1372 47.6801 92.3372 48.7201C91.5772 49.7201 90.7372 50.4801 89.8172 51.0001L76.8572 58.5001C75.4572 59.3001 74.2372 59.4001 73.1972 58.8001C72.1572 58.2001 71.6372 57.1001 71.6372 55.5001V41.1001L76.8572 38.1001V52.5001L89.8172 45.0001V6.60009C89.8172 7.6401 89.5772 8.7601 89.0972 9.96009C88.6172 11.1601 87.9772 12.2801 87.1772 13.3201C86.3772 14.3201 85.5172 15.0801 84.5972 15.6001L76.8572 20.1001V14.1001ZM89.8172 6.60009V45.0001L84.5972 42.0001V3.60009L89.8172 6.60009ZM89.8172 45.0001L76.8572 52.5001L71.6372 49.5001L84.5972 42.0001L89.8172 45.0001ZM95.0372 3.60009L76.8572 14.1001L71.6372 11.1001L89.8172 0.600093L95.0372 3.60009ZM76.8572 14.1001V20.1001L71.6372 17.1001V11.1001L76.8572 14.1001ZM76.8572 38.1001L71.6372 41.1001L66.4172 38.1001L71.6372 35.1001L76.8572 38.1001ZM71.6372 41.1001V55.5001C71.6372 57.1001 72.1572 58.2001 73.1972 58.8001L67.9772 55.8001C66.9372 55.2001 66.4172 54.1001 66.4172 52.5001V38.1001L71.6372 41.1001ZM114.206 47.7001V17.7001L104.846 23.1001V17.1001L128.726 3.30009V9.3001L119.366 14.7001V44.7001L128.726 39.3001V45.3001L104.846 59.1001V53.1001L114.206 47.7001ZM114.206 47.7001L104.846 53.1001L99.6258 50.1001L108.986 44.7001L114.206 47.7001ZM104.846 53.1001V59.1001L99.6258 56.1001V50.1001L104.846 53.1001ZM128.726 39.3001L119.366 44.7001L114.206 41.7001L123.566 36.3001L128.726 39.3001ZM114.206 17.7001V47.7001L108.986 44.7001V14.7001L114.206 17.7001ZM128.726 3.30009L104.846 17.1001L99.6258 14.1001L123.566 0.300094L128.726 3.30009ZM104.846 17.1001V23.1001L99.6258 20.1001V14.1001L104.846 17.1001ZM148.962 57.9001C147.602 58.7001 146.402 58.8001 145.362 58.2001C144.322 57.6001 143.802 56.5001 143.802 54.9001L156.762 47.4001V6.60009L161.982 3.60009V38.4001C161.982 39.4401 161.722 40.5601 161.202 41.7601C160.722 42.9601 160.082 44.0801 159.282 45.1201C158.522 46.1201 157.682 46.8801 156.762 47.4001C156.762 48.4401 156.522 49.5601 156.042 50.7601C155.562 51.9601 154.922 53.0801 154.122 54.1201C153.322 55.1201 152.462 55.8801 151.542 56.4001L148.962 57.9001ZM143.802 54.9001C142.402 55.7001 141.182 55.8001 140.142 55.2001C139.102 54.6001 138.582 53.5001 138.582 51.9001V17.1001L143.802 14.1001V54.9001ZM161.982 3.60009L156.762 6.60009L151.542 3.60009L156.762 0.600093L161.982 3.60009ZM156.762 6.60009V47.4001L151.542 44.4001V3.60009L156.762 6.60009ZM156.762 47.4001L143.802 54.9001L138.582 51.9001L151.542 44.4001L156.762 47.4001ZM143.802 54.9001C143.802 56.5001 144.322 57.6001 145.362 58.2001L140.142 55.2001C139.102 54.6001 138.582 53.5001 138.582 51.9001L143.802 54.9001ZM143.802 14.1001L138.582 17.1001L133.362 14.1001L138.582 11.1001L143.802 14.1001ZM138.582 17.1001V51.9001C138.582 53.5001 139.102 54.6001 140.142 55.2001L134.922 52.2001C133.882 51.6001 133.362 50.5001 133.362 48.9001V14.1001L138.582 17.1001Z" fill="black"/>
</svg>
