<svg width="291" height="53" viewBox="0 0 291 53" fill="none" xmlns="http://www.w3.org/2000/svg">
<path d="M0 52.5V15H7.5V7.5H15V0H37.5V7.5H45V15H52.5V52.5H37.5V37.5H15V52.5H0ZM15 30H37.5V15H30V7.5H22.5V15H15V30ZM59.4 52.5V0H104.4V7.5H111.9V30H96.9V37.5H104.4V45H111.9V52.5H89.4V45H81.9V37.5H74.4V52.5H59.4ZM74.4 30H89.4V22.5H96.9V7.5H74.4V30ZM126.3 52.5V45H118.8V37.5H133.8V45H156.3V0H171.3V45H163.8V52.5H126.3ZM185.7 52.5V45H200.7V7.5H185.7V0H230.7V7.5H215.7V45H230.7V52.5H185.7ZM260.1 52.5V45H252.6V37.5H245.1V30H237.6V0H252.6V22.5H260.1V30H267.6V22.5H275.1V0H290.1V30H282.6V37.5H275.1V45H267.6V52.5H260.1Z" fill="black"/>
</svg>
