<svg width="228" height="42" viewBox="0 0 228 42" fill="none" xmlns="http://www.w3.org/2000/svg">
<path d="M48.48 42H42.48V30H8.93999V24H42.48V6H20.94C18.22 6 15.72 6.68 13.44 8.04C11.16 9.36 9.33999 11.16 7.97999 13.44C6.65999 15.72 5.99999 18.24 5.99999 21V42H-7.06315e-06V21C-7.06315e-06 18.12 0.539993 15.42 1.61999 12.9C2.69999 10.34 4.19999 8.1 6.11999 6.18C8.03999 4.22 10.26 2.7 12.78 1.62C15.34 0.539997 18.06 -2.86102e-06 20.94 -2.86102e-06H48.48V42ZM106.432 42H98.332L85.732 30H67.312V24.06H91.432C93.112 24.06 94.632 23.66 95.992 22.86C97.352 22.02 98.432 20.92 99.232 19.56C100.032 18.16 100.432 16.64 100.432 15C100.432 13.32 100.032 11.8 99.232 10.44C98.432 9.08 97.352 8 95.992 7.2C94.632 6.4 93.112 6 91.432 6H63.952V42H57.952V-2.86102e-06H91.432C94.192 -2.86102e-06 96.712 0.679998 98.992 2.04C101.272 3.36 103.072 5.16 104.392 7.44C105.752 9.72 106.432 12.24 106.432 15C106.432 17.48 105.872 19.78 104.752 21.9C103.672 24.02 102.172 25.78 100.252 27.18C98.372 28.54 96.232 29.42 93.832 29.82L106.432 42ZM156.565 21C156.565 23.92 156.025 26.66 154.945 29.22C153.865 31.74 152.365 33.96 150.445 35.88C148.525 37.8 146.285 39.3 143.725 40.38C141.205 41.46 138.485 42 135.565 42H110.665V36H135.565C138.325 36 140.845 35.32 143.125 33.96C145.405 32.6 147.205 30.8 148.525 28.56C149.885 26.28 150.565 23.76 150.565 21V6H110.665V-2.86102e-06H156.565V21ZM171.326 42H165.326V-2.86102e-06H171.326V42ZM227.641 -2.86102e-06L205.561 42H198.721L176.641 -2.86102e-06H183.481L202.141 35.52L220.801 -2.86102e-06H227.641Z" fill="black"/>
</svg>
