<svg width="196" height="36" viewBox="0 0 196 36" fill="none" xmlns="http://www.w3.org/2000/svg">
<path d="M0 35.3401L17.58 0.0600879H29.4L46.92 35.3401H37.68L34.14 27.7201H12.66L8.76 35.3401H0ZM14.82 21.8401H31.92L23.7 5.46009H23.1L14.82 21.8401ZM89.4736 35.9401C87.8736 35.9401 86.2936 35.7001 84.7336 35.2201C83.2136 34.7001 81.4736 33.4601 79.5136 31.5001L75.1936 27.1801C73.4336 25.3801 71.4936 24.0601 69.3736 23.2201C67.2936 22.3801 64.6736 21.9601 61.5136 21.9601H59.6536V35.3401H51.7336V4.86009L51.1336 8.51154e-05H77.7136C80.2736 8.51154e-05 82.2736 0.340086 83.7136 1.02009C85.1936 1.70009 86.2736 2.60009 86.9536 3.72009C87.6736 4.80009 88.1336 5.96009 88.3336 7.20009C88.5336 8.44009 88.6336 9.62009 88.6336 10.7401V11.8801C88.6336 12.7601 88.5136 13.7401 88.2736 14.8201C88.0336 15.9001 87.5736 16.9601 86.8936 18.0001C86.2136 19.0401 85.2336 19.9201 83.9536 20.6401C82.7136 21.3601 81.0736 21.7801 79.0336 21.9001C79.5536 22.1801 80.2136 22.6201 81.0136 23.2201C81.8136 23.7801 82.6336 24.4001 83.4736 25.0801C84.3536 25.7601 85.1536 26.3801 85.8736 26.9401C86.5936 27.5001 87.1536 27.9001 87.5536 28.1401C88.9936 28.9801 90.2736 29.5601 91.3936 29.8801C92.5136 30.2001 93.4336 30.3801 94.1536 30.4201C94.8736 30.4601 95.2936 30.4801 95.4136 30.4801L94.2136 35.3401C93.8536 35.4601 93.2536 35.5801 92.4136 35.7001C91.5736 35.8601 90.5936 35.9401 89.4736 35.9401ZM68.6536 16.5001C70.1736 16.5001 71.5336 16.4801 72.7336 16.4401C73.9336 16.3601 75.0136 16.2801 75.9736 16.2001C77.7336 16.0001 78.9536 15.5201 79.6336 14.7601C80.3536 13.9601 80.7136 12.9401 80.7136 11.7001V10.3201C80.7136 9.04009 80.3736 7.96009 79.6936 7.08009C79.0136 6.20009 77.7936 5.76009 76.0336 5.76009H59.6536V16.2001C61.4136 16.3201 63.0336 16.4001 64.5136 16.4401C65.9936 16.4801 67.3736 16.5001 68.6536 16.5001ZM111.741 35.3401C108.861 35.3401 106.221 35.2801 103.821 35.1601C101.461 35.0001 99.5611 34.7401 98.1211 34.3801C96.7211 34.0201 96.0211 33.5201 96.0211 32.8801L99.0211 28.2601C100.181 28.7801 101.781 29.1401 103.821 29.3401C105.901 29.5001 108.641 29.5801 112.041 29.5801H117.801C119.681 29.5801 120.921 29.1401 121.521 28.2601C122.121 27.3401 122.421 26.3601 122.421 25.3201V4.86009L121.941 0.0600879H130.341V24.6001C130.341 26.6001 130.081 28.4201 129.561 30.0601C129.081 31.7001 128.061 33.0001 126.501 33.9601C124.981 34.8801 122.641 35.3401 119.481 35.3401H111.741ZM139.348 35.3401V0.0600879H147.268V35.3401H139.348ZM168.807 35.3401L152.067 0.120087H160.467L171.747 24.4201L173.367 28.7401H173.907L175.467 24.4201L186.867 0.120087H195.027L194.067 3.72009L178.407 35.3401H168.807Z" fill="black"/>
</svg>
