<svg xmlns="http://www.w3.org/2000/svg" width="1154" height="1118" fill="none"><ellipse cx="577" cy="559" stroke="#091717" stroke-opacity=".05" rx="558" ry="576" transform="rotate(90 577 559)"/><ellipse cx="577" cy="559" stroke="url(#a)" rx="558" ry="576" transform="rotate(90 577 559)"/><ellipse cx="577" cy="559" stroke="url(#b)" rx="558" ry="576" transform="rotate(90 577 559)"/><ellipse cx="576.5" cy="624.5" stroke="#091717" stroke-opacity=".08" rx="468.5" ry="443.5" transform="rotate(90 576.5 624.5)"/><ellipse cx="576.5" cy="624.5" stroke="url(#c)" rx="468.5" ry="443.5" transform="rotate(90 576.5 624.5)"/><ellipse cx="576.5" cy="728.5" stroke="#091717" stroke-opacity=".04" rx="340.5" ry="323.5" transform="rotate(90 576.5 728.5)"/><ellipse cx="576.5" cy="728.5" stroke="url(#d)" rx="340.5" ry="323.5" transform="rotate(90 576.5 728.5)"/><circle cx="577" cy="870" r="175" stroke="#091717" stroke-opacity=".08" transform="rotate(-180 577 870)"/><circle cx="577" cy="870" r="175" stroke="url(#e)" transform="rotate(-180 577 870)"/><defs><radialGradient id="a" cx="0" cy="0" r="1" gradientTransform="matrix(-44.7704 33.5737 -.68867 -71.6248 1117.12 455.926)" gradientUnits="userSpaceOnUse"><stop stop-color="#E1385A"/><stop offset="1" stop-color="#944454" stop-opacity="0"/></radialGradient><radialGradient id="b" cx="0" cy="0" r="1" gradientTransform="matrix(-83.2143 -44.5 116.412 -46.5142 1065.5 897)" gradientUnits="userSpaceOnUse"><stop stop-color="#1FB8CD"/><stop offset="1" stop-color="#1FB8CD" stop-opacity="0"/></radialGradient><radialGradient id="c" cx="0" cy="0" r="1" gradientTransform="matrix(-20.7259 -74.4809 47.7063 -13.3661 1045 731.385)" gradientUnits="userSpaceOnUse"><stop stop-color="#FFD2A6"/><stop offset="1" stop-color="#FFD2A6" stop-opacity="0"/></radialGradient><radialGradient id="d" cx="0" cy="0" r="1" gradientTransform="matrix(-59.6603 40.8632 -17.0555 -128.863 859.159 555.804)" gradientUnits="userSpaceOnUse"><stop stop-color="#1FB8CD"/><stop offset="1" stop-color="#BADEDD" stop-opacity="0"/></radialGradient><radialGradient id="e" cx="0" cy="0" r="1" gradientTransform="matrix(19 101 -117.655 15.0549 649.5 680.999)" gradientUnits="userSpaceOnUse"><stop stop-color="#CACA49"/><stop offset="1" stop-color="#848456" stop-opacity="0"/></radialGradient></defs></svg>