<svg width="1291" height="1292" viewBox="0 0 1291 1292" fill="none" xmlns="http://www.w3.org/2000/svg">
<path d="M668.194 76.6699L649.934 45.3199L637.834 45.3199L637.834 76.6699L627.824 76.6699L627.824 -8.01464e-05L652.574 -7.74699e-05C658.367 -7.68435e-05 663.244 0.989924 667.204 2.96993C671.237 4.94993 674.244 7.62659 676.224 10.9999C678.204 14.3733 679.194 18.2233 679.194 22.5499C679.194 27.8299 677.654 32.4866 674.574 36.5199C671.567 40.5533 667.02 43.2299 660.934 44.5499L680.184 76.6699L668.194 76.6699ZM637.834 37.2899L652.574 37.2899C658 37.2899 662.07 35.9699 664.784 33.3299C667.497 30.6166 668.854 27.0233 668.854 22.5499C668.854 18.0033 667.497 14.4833 664.784 11.9899C662.144 9.49659 658.074 8.24992 652.574 8.24992L637.834 8.24992L637.834 37.2899Z" fill="white" fill-opacity="0.941176"/>
<path d="M769.933 11.7231L761.071 67.6756C760.085 73.9046 757.374 78.5983 752.939 81.7567C748.515 84.8427 743.152 85.8866 736.851 84.8885C730.477 83.879 725.669 81.1871 722.426 76.8127C719.195 72.3658 718.102 66.8468 719.146 60.2557L729.033 61.8216C728.52 65.527 728.986 68.682 730.429 71.2866C731.945 73.9026 734.55 75.5032 738.244 76.0882C741.938 76.6733 744.863 76.0228 747.018 74.1367C749.184 72.1781 750.537 69.4967 751.076 66.0925L759.938 10.14L769.933 11.7231Z" fill="white" fill-opacity="0.941176"/>
<path d="M807.2 59.6973C809.512 52.5834 813.189 46.723 818.233 42.1162C823.299 37.4396 829.109 34.3923 835.661 32.9743C842.283 31.5789 848.977 31.9804 855.742 34.1785C863.693 36.7619 870.009 40.9346 874.691 46.6968C879.373 52.4589 881.929 59.304 882.36 67.2319L870.957 63.5268C870.362 58.4757 868.532 54.1414 865.467 50.5237C862.471 46.9287 858.323 44.2701 853.022 42.5478C847.931 40.8935 842.978 40.5949 838.162 41.6518C833.346 42.7087 829.074 45.0602 825.345 48.7063C821.638 52.2826 818.833 57 816.929 62.8585C815.049 68.6473 814.545 74.1125 815.419 79.2542C816.315 84.3262 818.401 88.705 821.676 92.3907C824.95 96.0763 829.133 98.7463 834.225 100.401C839.525 102.123 844.433 102.445 848.947 101.367C853.553 100.242 857.581 97.8114 861.032 94.0747L872.435 97.7798C867.449 103.87 861.368 107.871 854.194 109.78C847.042 111.62 839.49 111.249 831.539 108.665C824.774 106.467 819.112 102.892 814.552 97.9409C810.085 92.9425 807.165 87.0974 805.792 80.4057C804.419 73.714 804.889 66.8112 807.2 59.6973Z" fill="white" fill-opacity="0.941176"/>
<path d="M980.193 138.421C984.59 132.369 989.899 127.932 996.119 125.109C1002.38 122.227 1008.85 121.124 1015.52 121.801C1022.25 122.52 1028.49 124.97 1034.24 129.151C1041.01 134.065 1045.73 139.985 1048.4 146.912C1051.07 153.839 1051.39 161.139 1049.35 168.812L1039.65 161.765C1040.64 156.777 1040.24 152.089 1038.44 147.702C1036.7 143.357 1033.58 139.546 1029.07 136.27C1024.74 133.124 1020.12 131.309 1015.22 130.826C1010.31 130.343 1005.52 131.259 1000.85 133.575C996.216 135.83 992.09 139.45 988.47 144.434C984.892 149.358 982.724 154.4 981.966 159.56C981.252 164.661 981.882 169.47 983.858 173.987C985.833 178.504 988.986 182.336 993.317 185.483C997.826 188.759 1002.39 190.582 1007.02 190.952C1011.75 191.305 1016.33 190.238 1020.77 187.75L1030.47 194.798C1023.84 199.05 1016.82 200.975 1009.41 200.574C1002.04 200.114 994.973 197.427 988.209 192.513C982.455 188.332 978.174 183.183 975.367 177.064C972.663 170.93 971.692 164.469 972.455 157.68C973.217 150.892 975.797 144.472 980.193 138.421Z" fill="white" fill-opacity="0.941176"/>
<path d="M1090.43 189.536L1072.31 207.659L1092.06 227.416L1086.23 233.25L1066.47 213.493L1047.81 232.161L1069.9 254.251L1064.06 260.084L1034.89 230.916L1089.18 176.624L1118.35 205.793L1112.52 211.626L1090.43 189.536Z" fill="white" fill-opacity="0.941176"/>
<path d="M1118.63 329.64L1133.26 296.441L1126.15 286.652L1100.78 305.079L1094.9 296.98L1156.93 251.915L1171.47 271.938C1174.88 276.625 1176.94 281.152 1177.67 285.52C1178.44 289.947 1178.04 293.952 1176.48 297.537C1174.91 301.122 1172.38 304.186 1168.88 306.729C1164.61 309.832 1159.93 311.323 1154.86 311.202C1149.83 311.141 1144.99 309.036 1140.35 304.887L1125.68 339.341L1118.63 329.64ZM1132.64 281.932L1141.31 293.857C1144.5 298.247 1147.96 300.764 1151.69 301.407C1155.48 302.007 1159.18 300.993 1162.8 298.364C1166.48 295.691 1168.53 292.524 1168.95 288.864C1169.42 285.262 1168.03 281.237 1164.8 276.787L1156.14 264.862L1132.64 281.932Z" fill="white" fill-opacity="0.941176"/>
<path d="M1233.57 378.858L1226.32 382.554L1216.83 363.932L1155.77 395.044L1151.22 386.125L1212.28 355.013L1202.74 336.293L1210 332.597L1233.57 378.858Z" fill="white" fill-opacity="0.941176"/>
<path d="M1260.93 452.469L1188.01 476.161L1184.92 466.641L1257.83 442.949L1260.93 452.469Z" fill="white" fill-opacity="0.941176"/>
<path d="M1286.46 569.915L1278.42 571.188L1273.21 538.269L1247.68 542.312L1251.91 569.039L1243.87 570.313L1239.64 543.586L1205.52 548.989L1203.96 539.102L1279.68 527.108L1286.46 569.915Z" fill="white" fill-opacity="0.941176"/>
<path d="M1290.34 652.176L1213.67 652.176L1213.67 642.166L1290.34 642.166L1290.34 652.176Z" fill="white" fill-opacity="0.941176"/>
<path d="M1275.51 737.576L1250.19 733.567L1245.82 761.163L1237.67 759.872L1242.04 732.276L1215.97 728.146L1211.08 759.002L1202.93 757.711L1209.38 716.969L1285.22 728.98L1278.77 769.722L1270.62 768.432L1275.51 737.576Z" fill="white" fill-opacity="0.941176"/>
<path d="M1258.52 845.29C1255.94 853.241 1252.2 859.623 1247.33 864.438C1242.49 869.344 1236.82 872.437 1230.32 873.716C1223.79 875.064 1216.79 874.526 1209.33 872.101C1201.86 869.676 1195.89 865.999 1191.4 861.071C1186.96 856.234 1184.22 850.411 1183.2 843.601C1182.22 836.883 1183.02 829.548 1185.6 821.598L1192.98 798.896L1265.9 822.588L1258.52 845.29ZM1193.45 824.147C1190.39 833.562 1190.53 841.551 1193.87 848.111C1197.29 854.695 1203.49 859.448 1212.49 862.371C1221.56 865.317 1229.45 865.107 1236.17 861.739C1242.87 858.442 1247.74 852.12 1250.78 842.775L1255.06 829.593L1197.73 810.965L1193.45 824.147Z" fill="white" fill-opacity="0.941176"/>
<path d="M1096.45 983.373C1100.78 985.522 1106.18 986.819 1112.66 987.263C1119.19 987.751 1126.26 986.815 1133.87 984.455C1141.43 982.155 1147.6 978.841 1152.37 974.515L1156.11 977.231C1153.63 983.135 1152.32 989.566 1152.16 996.521C1152.02 1003.58 1153.09 1010.34 1155.37 1016.8C1157.73 1023.41 1160.87 1028.82 1164.79 1033.03L1162.08 1036.77C1158.72 1035.15 1154.89 1033.99 1150.58 1033.31C1146.33 1032.67 1141.88 1032.56 1137.22 1032.99C1132.58 1033.51 1127.99 1034.53 1123.45 1036.03C1116.72 1038.31 1111.06 1041.49 1106.46 1045.58L1102.72 1042.86C1104.44 1039.12 1105.56 1034.77 1106.08 1029.81C1106.57 1024.9 1106.49 1019.95 1105.86 1014.96C1105.28 1010.01 1104.17 1005.49 1102.53 1001.39C1100.1 995.368 1097.17 990.608 1093.73 987.111L1096.45 983.373Z" fill="white" fill-opacity="0.941176"/>
<path d="M1023.76 1167.59C1016.99 1172.51 1010.22 1175.48 1003.45 1176.5C996.652 1177.63 990.247 1176.8 984.231 1174.01C978.156 1171.26 972.813 1166.72 968.2 1160.37C963.588 1154.02 960.914 1147.53 960.179 1140.91C959.427 1134.38 960.638 1128.06 963.811 1121.95C966.968 1115.94 971.928 1110.48 978.692 1105.57L998.003 1091.53L1043.07 1153.56L1023.76 1167.59ZM983.541 1112.24C975.532 1118.06 970.951 1124.6 969.799 1131.88C968.69 1139.21 970.916 1146.7 976.477 1154.36C982.08 1162.07 988.591 1166.54 996.009 1167.77C1003.37 1169.04 1011.02 1166.78 1018.97 1161.01L1030.19 1152.86L994.754 1104.09L983.541 1112.24Z" fill="white" fill-opacity="0.941176"/>
<path d="M931.832 1223.2L897.025 1154.89L905.944 1150.35L940.751 1218.66L931.832 1223.2Z" fill="white" fill-opacity="0.941176"/>
<path d="M802.243 1209.83L834.046 1199.49L834.636 1181.37L844.679 1178.11L841.872 1259.18L830.887 1262.74L781.072 1198.78L791.116 1195.51L802.243 1209.83ZM807.478 1216.68L832.625 1249.23L833.842 1208.12L807.478 1216.68Z" fill="white" fill-opacity="0.941176"/>
<path d="M697.669 1289.52L685.761 1214.34L695.648 1212.77L704.527 1268.83L720.636 1208.81L727.59 1207.71L761.583 1259.91L752.687 1203.74L762.574 1202.17L774.481 1277.35L763.834 1279.04L726.178 1221.3L708.207 1287.85L697.669 1289.52Z" fill="white" fill-opacity="0.941176"/>
<path d="M633.498 1212.9C640.611 1212.9 647.101 1214.55 652.968 1217.85C658.834 1221.23 663.491 1225.88 666.938 1231.82C670.311 1237.84 671.998 1244.58 671.998 1252.06C671.998 1259.54 670.311 1266.25 666.938 1272.19C663.491 1278.21 658.834 1282.86 652.968 1286.16C647.101 1289.54 640.611 1291.22 633.498 1291.22C626.311 1291.22 619.784 1289.54 613.918 1286.16C608.051 1282.86 603.431 1278.24 600.058 1272.3C596.684 1266.36 594.998 1259.62 594.998 1252.06C594.998 1244.51 596.684 1237.76 600.058 1231.82C603.431 1225.88 608.051 1221.23 613.918 1217.85C619.784 1214.55 626.311 1212.9 633.498 1212.9ZM633.498 1221.59C628.144 1221.59 623.341 1222.84 619.088 1225.33C614.761 1227.83 611.388 1231.38 608.968 1236C606.474 1240.62 605.228 1245.98 605.228 1252.06C605.228 1258.22 606.474 1263.58 608.968 1268.12C611.388 1272.74 614.724 1276.3 618.978 1278.79C623.231 1281.29 628.071 1282.53 633.498 1282.53C638.924 1282.53 643.764 1281.29 648.018 1278.79C652.271 1276.3 655.644 1272.74 658.138 1268.12C660.558 1263.58 661.768 1258.22 661.768 1252.06C661.768 1245.98 660.558 1240.62 658.138 1236C655.644 1231.38 652.271 1227.83 648.018 1225.33C643.691 1222.84 638.851 1221.59 633.498 1221.59Z" fill="white" fill-opacity="0.941176"/>
<path d="M519.502 1200.87L529.389 1202.43L559.603 1269.03L569.153 1208.73L579.04 1210.29L567.029 1286.13L557.142 1284.56L526.911 1218.08L517.378 1278.27L507.491 1276.7L519.502 1200.87Z" fill="white" fill-opacity="0.941176"/>
<path d="M445.058 1258.53C437.107 1255.95 430.724 1252.22 425.91 1247.34C421.003 1242.5 417.911 1236.83 416.632 1230.33C415.284 1223.8 415.822 1216.8 418.247 1209.34C420.672 1201.88 424.348 1195.9 429.277 1191.41C434.113 1186.97 439.937 1184.23 446.747 1183.21C453.465 1182.23 460.799 1183.03 468.75 1185.61L491.452 1192.99L467.759 1265.91L445.058 1258.53ZM466.201 1193.46C456.785 1190.4 448.797 1190.54 442.236 1193.88C435.653 1197.3 430.899 1203.5 427.976 1212.5C425.03 1221.57 425.241 1229.46 428.608 1236.18C431.906 1242.88 438.227 1247.75 447.573 1250.79L460.755 1255.07L479.382 1197.74L466.201 1193.46Z" fill="white" fill-opacity="0.941176"/>
<path d="M306.97 1096.46C304.82 1100.79 303.524 1106.19 303.079 1112.67C302.592 1119.2 303.528 1126.27 305.888 1133.88C308.188 1141.44 311.501 1147.61 315.828 1152.39L313.112 1156.12C307.207 1153.65 300.777 1152.33 293.822 1152.17C286.764 1152.03 280.004 1153.1 273.54 1155.38C266.931 1157.74 261.523 1160.88 257.314 1164.8L253.576 1162.09C255.197 1158.73 256.349 1154.9 257.032 1150.59C257.671 1146.35 257.78 1141.89 257.357 1137.23C256.832 1132.59 255.816 1128 254.31 1123.46C252.036 1116.73 248.855 1111.07 244.766 1106.47L247.482 1102.73C251.219 1104.45 255.571 1105.57 260.537 1106.1C265.443 1106.58 270.393 1106.5 275.385 1105.87C280.334 1105.3 284.857 1104.19 288.954 1102.54C294.975 1100.12 299.735 1097.18 303.232 1093.74L306.97 1096.46Z" fill="white" fill-opacity="0.941176"/>
<path d="M94.8914 984.475L156.474 939.733L162.357 947.831L116.438 981.194L177.228 968.3L181.366 973.995L150.293 1027.98L196.302 994.552L202.186 1002.65L140.604 1047.39L134.267 1038.67L168.618 978.906L101.163 993.108L94.8914 984.475Z" fill="white" fill-opacity="0.941176"/>
<path d="M112.045 888.641L127.226 918.436L145.214 916.184L150.008 925.593L69.5024 935.502L64.2588 925.211L119.646 866.002L124.44 875.411L112.045 888.641ZM106.09 894.884L77.8828 924.812L118.675 919.583L106.09 894.884Z" fill="white" fill-opacity="0.941176"/>
<path d="M92.9998 785.48L96.0931 795L50.4721 852.155L108.534 833.289L111.627 842.809L38.6053 866.536L35.512 857.016L81.0283 799.895L23.071 818.726L19.9777 809.206L92.9998 785.48Z" fill="white" fill-opacity="0.941176"/>
<path d="M10.0231 759.231L57.9359 751.642C64.6719 750.575 69.4115 748.154 72.1546 744.379C74.8863 740.531 75.7875 735.673 74.8583 729.806C73.9406 724.012 71.5939 719.743 67.8183 717C64.0312 714.184 58.7696 713.31 52.0336 714.377L4.12085 721.965L2.55494 712.079L50.3591 704.507C56.6605 703.509 62.1849 703.934 66.9322 705.78C71.6072 707.639 75.339 710.574 78.1278 714.587C80.9051 718.528 82.7183 723.178 83.5672 728.538C84.4161 733.898 84.1345 738.917 82.7223 743.596C81.2986 748.202 78.6509 752.111 74.779 755.323C70.8232 758.474 65.6946 760.548 59.3931 761.546L11.589 769.118L10.0231 759.231Z" fill="white" fill-opacity="0.941176"/>
<path d="M-2.0134e-05 619.181L8.13998 619.181L8.13994 652.511L33.9899 652.511L33.99 625.451L42.13 625.451L42.1299 652.511L76.6699 652.511L76.6699 662.521L-7.11016e-05 662.521L-2.0134e-05 619.181Z" fill="white" fill-opacity="0.941176"/>
<path d="M70.7565 528.776L65.5252 561.804L81.4017 570.555L79.7497 580.985L8.79467 541.681L10.6015 530.274L90.2122 514.929L88.5602 525.359L70.7565 528.776ZM62.2693 530.327L21.8578 537.959L57.9329 557.706L62.2693 530.327Z" fill="white" fill-opacity="0.941176"/>
<path d="M59.6934 483.148C52.5795 480.837 46.7191 477.159 42.1122 472.116C37.4356 467.049 34.3883 461.24 32.9703 454.688C31.5749 448.066 31.9763 441.372 34.1745 434.607C36.7578 426.656 40.9306 420.34 46.6927 415.658C52.4548 410.976 59.2999 408.419 67.2278 407.988L63.5227 419.391C58.4717 419.986 54.1373 421.816 50.5196 424.882C46.9246 427.878 44.266 432.026 42.5438 437.326C40.8895 442.418 40.5909 447.371 41.6478 452.187C42.7048 457.002 45.0563 461.275 48.7024 465.004C52.2787 468.711 56.9961 471.516 62.8546 473.419C68.6434 475.3 74.1086 475.803 79.2503 474.93C84.3223 474.033 88.7011 471.947 92.3867 468.673C96.0724 465.398 98.7423 461.215 100.397 456.124C102.119 450.823 102.441 445.916 101.363 441.402C100.238 436.795 97.8074 432.767 94.0707 429.317L97.7758 417.914C103.866 422.9 107.867 428.98 109.776 436.155C111.616 443.307 111.245 450.858 108.661 458.809C106.463 465.574 102.888 471.237 97.937 475.796C92.9385 480.264 87.0935 483.184 80.4018 484.557C73.7101 485.929 66.8073 485.46 59.6934 483.148Z" fill="white" fill-opacity="0.941176"/>
<path d="M83.8678 325.684L91.1206 329.379L81.6322 348.001L142.693 379.113L138.148 388.032L77.0878 356.92L67.5494 375.64L60.2967 371.945L83.8678 325.684Z" fill="white" fill-opacity="0.941176"/>
<path d="M115.401 276.711L154.647 305.224C160.164 309.233 165.228 310.872 169.837 310.142C174.49 309.353 178.562 306.555 182.053 301.75C185.501 297.004 186.861 292.326 186.131 287.716C185.444 283.047 182.341 278.709 176.824 274.7L137.578 246.187L143.462 238.088L182.619 266.537C187.78 270.287 191.386 274.494 193.437 279.156C195.429 283.776 195.992 288.491 195.126 293.3C194.304 298.051 192.298 302.621 189.108 307.011C185.918 311.402 182.17 314.752 177.863 317.061C173.599 319.311 168.963 320.203 163.954 319.737C158.929 319.168 153.836 317.008 148.674 313.258L109.518 284.809L115.401 276.711Z" fill="white" fill-opacity="0.941176"/>
<path d="M259.459 226.902L224.38 217.646L215.824 226.202L237.991 248.369L230.913 255.447L176.699 201.234L194.2 183.733C198.297 179.636 202.445 176.888 206.645 175.488C210.897 174.036 214.916 173.803 218.701 174.788C222.487 175.773 225.909 177.795 228.969 180.855C232.702 184.588 234.906 188.97 235.58 194C236.306 198.978 234.984 204.086 231.613 209.323L267.937 218.423L259.459 226.902ZM210.145 220.523L220.568 210.101C224.405 206.263 226.35 202.452 226.402 198.667C226.402 194.83 224.82 191.329 221.657 188.166C218.442 184.951 214.994 183.422 211.312 183.577C207.682 183.681 203.923 185.677 200.034 189.566L189.611 199.989L210.145 220.523Z" fill="white" fill-opacity="0.941176"/>
<path d="M264.798 134.119L279.863 154.854L302.467 138.431L307.316 145.106L284.712 161.528L300.23 182.887L325.503 164.524L330.352 171.198L296.981 195.445L251.85 133.328L285.222 109.082L290.071 115.757L264.798 134.119Z" fill="white" fill-opacity="0.941176"/>
<path d="M407.591 128.184L377.088 108.54L366.307 114.034L380.54 141.967L371.621 146.511L336.813 78.1978L358.866 66.9615C364.028 64.3314 368.822 62.9995 373.25 62.9659C377.742 62.899 381.636 63.919 384.932 66.0257C388.228 68.1325 390.858 71.1134 392.822 74.9685C395.219 79.673 395.961 84.5213 395.048 89.5133C394.2 94.472 391.364 98.9211 386.54 102.86L418.274 122.74L407.591 128.184ZM362.662 106.879L375.795 100.187C380.63 97.7235 383.658 94.6996 384.877 91.1155C386.062 87.4661 385.64 83.6485 383.609 79.6628C381.545 75.6116 378.738 73.0912 375.188 72.1015C371.704 71.0784 367.512 71.8154 362.611 74.3123L349.478 81.0041L362.662 106.879Z" fill="white" fill-opacity="0.941176"/>
<path d="M515.928 93.8918C514.386 89.31 511.482 84.5726 507.218 79.6795C502.941 74.7139 497.28 70.3762 490.233 66.6663C483.258 62.9449 476.553 60.9256 470.117 60.6084L469.395 56.0453C475.322 53.6216 480.8 50.0067 485.831 45.2006C490.922 40.3107 494.945 34.7731 497.9 28.588C500.905 22.2465 502.509 16.2011 502.713 10.4519L507.276 9.72918C508.501 13.2475 510.396 16.7711 512.959 20.3002C515.511 23.7569 518.584 26.9826 522.177 29.9774C525.83 32.8884 529.795 35.416 534.069 37.5604C540.434 40.7102 546.689 42.4667 552.835 42.8297L553.557 47.3928C549.7 48.8205 545.829 51.1041 541.946 54.2436C538.135 57.3716 534.688 60.9245 531.606 64.9023C528.512 68.8077 526.099 72.7909 524.366 76.852C521.823 82.8235 520.531 88.2625 520.491 93.1691L515.928 93.8918Z" fill="white" fill-opacity="0.941176"/>
</svg>
