<svg width="173" height="173" viewBox="0 0 173 173" fill="none" xmlns="http://www.w3.org/2000/svg">
<path d="M63.2374 16.7081L60.6512 6.99968L63.7067 6.18575C64.2543 6.03988 64.7328 6.05315 65.1423 6.22555C65.5489 6.38699 65.8266 6.74698 65.9754 7.3055L66.3955 8.88251C66.5442 9.44103 66.4897 9.91883 66.2319 10.3159C65.9851 10.7101 65.5798 10.9939 65.0162 11.1675L65.0118 11.1511C65.3681 11.0797 65.6645 11.1356 65.901 11.3189C66.1345 11.4913 66.3797 11.7954 66.6366 12.2313L68.527 15.2991L67.3771 15.6054L65.6192 12.5727C65.4499 12.2894 65.262 12.0462 65.0554 11.8432C64.8569 11.6263 64.6043 11.5587 64.2977 11.6404L63.1149 11.9555L64.3052 16.4237L63.2374 16.7081ZM62.918 11.2163L64.3636 10.8312C64.8674 10.697 65.1872 10.4887 65.323 10.2062C65.4669 9.9098 65.4776 9.53164 65.3551 9.07168L65.005 7.75751C64.8971 7.35231 64.7198 7.08287 64.473 6.94921C64.2344 6.80168 63.9179 6.78043 63.5236 6.88545L61.8809 7.32305L62.918 11.2163Z" fill="white"/>
<path d="M73.5739 14.1479C73.4726 14.1599 73.3601 14.1733 73.2363 14.188C73.1125 14.2027 72.9936 14.2112 72.8798 14.2133L72.7894 13.4537L73.3465 13.3874C73.7079 13.3558 73.9482 13.2645 74.0671 13.1134C74.196 12.9496 74.2377 12.6765 74.1922 12.2938L73.2123 4.05591L74.2758 3.92941L75.2015 11.7116C75.2684 12.2743 75.2707 12.7248 75.2082 13.0632C75.1457 13.4016 74.9875 13.6544 74.7335 13.8216C74.4781 13.9775 74.0916 14.0863 73.5739 14.1479Z" fill="white"/>
<path d="M86.0478 13.3156C85.5495 13.2983 85.1097 13.2264 84.7285 13.0998C84.3587 12.9735 84.0666 12.7309 83.8522 12.372C83.6495 12.0021 83.5608 11.4547 83.5859 10.7298L83.7819 5.07217C83.8038 4.43788 83.9279 3.96589 84.1541 3.65621C84.3916 3.34691 84.7047 3.14796 85.0933 3.05937C85.4937 2.95983 85.9374 2.9185 86.4244 2.93537C86.9228 2.95264 87.3569 3.02438 87.7268 3.15059C88.0966 3.2768 88.3836 3.50221 88.5879 3.82681C88.7921 4.1514 88.8834 4.62518 88.8618 5.24814L88.8006 7.01508L87.7303 6.978L87.792 5.19408C87.8074 4.75234 87.7564 4.42171 87.6393 4.20219C87.5226 3.97135 87.3521 3.81802 87.1279 3.74221C86.9151 3.6668 86.6671 3.62419 86.3839 3.61438C86.1007 3.60457 85.8447 3.62972 85.6158 3.68983C85.3983 3.75034 85.2233 3.8917 85.0908 4.11391C84.9701 4.32519 84.9021 4.6517 84.8868 5.09343L84.6802 11.0569C84.6645 11.5099 84.7094 11.8517 84.8148 12.0821C84.9319 12.3017 85.0969 12.4491 85.3098 12.5245C85.534 12.6003 85.7876 12.6431 86.0708 12.653C86.3653 12.6632 86.6213 12.638 86.8389 12.5775C87.0564 12.517 87.2312 12.3813 87.3633 12.1704C87.4957 11.9482 87.5698 11.6106 87.5855 11.1575L87.6379 9.64541L88.7082 9.68248L88.6664 10.8888C88.6409 11.625 88.5143 12.1706 88.2865 12.5256C88.0592 12.8693 87.7566 13.0912 87.3789 13.1916C87.0012 13.2919 86.5575 13.3332 86.0478 13.3156Z" fill="white"/>
<path d="M103.512 15.447C103.033 15.3105 102.623 15.135 102.283 14.9205C101.955 14.7091 101.729 14.4034 101.608 14.0034C101.5 13.5957 101.545 13.043 101.744 12.3454L103.294 6.90068C103.468 6.29027 103.701 5.86193 103.995 5.61568C104.3 5.37254 104.652 5.25467 105.051 5.26207C105.463 5.26167 105.904 5.32819 106.372 5.46162C106.852 5.59815 107.256 5.77212 107.585 5.98352C107.914 6.19493 108.138 6.48271 108.258 6.84687C108.378 7.21104 108.353 7.69288 108.183 8.29239L107.698 9.99283L106.668 9.6996L107.157 7.98281C107.278 7.5577 107.308 7.22452 107.247 6.98328C107.189 6.73114 107.061 6.54134 106.861 6.41388C106.673 6.28952 106.442 6.18856 106.17 6.11098C105.897 6.0334 105.643 5.99629 105.406 5.99963C105.18 6.00607 104.977 6.10123 104.795 6.2851C104.627 6.46117 104.482 6.76177 104.361 7.18688L102.727 12.9259C102.603 13.3619 102.565 13.7044 102.612 13.9534C102.673 14.1947 102.797 14.3775 102.986 14.5018C103.185 14.6293 103.421 14.7318 103.694 14.8094C103.977 14.8901 104.232 14.9272 104.457 14.9207C104.683 14.9143 104.885 14.8246 105.064 14.6516C105.246 14.4677 105.399 14.1578 105.523 13.7218L105.938 12.2666L106.968 12.5598L106.637 13.7207C106.436 14.4292 106.181 14.9284 105.875 15.2183C105.572 15.4972 105.225 15.64 104.834 15.6466C104.443 15.6532 104.003 15.5867 103.512 15.447Z" fill="white"/>
<path d="M113.017 18.2171L117.219 9.09118L121.157 10.9044L120.837 11.5993L117.903 10.2482L116.396 13.5218L118.743 14.6026L118.387 15.3747L116.04 14.2939L114.341 17.9844L117.275 19.3354L116.955 20.0303L113.017 18.2171Z" fill="white"/>
<path d="M122.331 22.6746L127.807 14.251L130.458 15.9744C130.933 16.2832 131.244 16.6474 131.391 17.0669C131.543 17.477 131.462 17.9243 131.147 18.4089L130.257 19.7772C129.942 20.2618 129.551 20.5414 129.083 20.616C128.625 20.6967 128.143 20.586 127.637 20.2838L127.646 20.2695C127.938 20.4862 128.095 20.7437 128.117 21.0421C128.146 21.331 128.084 21.7168 127.932 22.1995L126.921 25.6581L125.923 25.0095L126.997 21.6728C127.094 21.3573 127.149 21.0549 127.161 20.7655C127.189 20.4729 127.07 20.24 126.804 20.0671L125.778 19.4L123.258 23.2768L122.331 22.6746ZM126.195 18.7586L127.449 19.574C127.886 19.8581 128.255 19.956 128.556 19.8676C128.872 19.7759 129.16 19.5306 129.42 19.1315L130.161 17.9912C130.39 17.6396 130.471 17.3275 130.405 17.0548C130.355 16.7787 130.158 16.5295 129.816 16.3071L128.391 15.3806L126.195 18.7586Z" fill="white"/>
<path d="M132.02 29.3345L138.186 22.3963L136.928 21.2784L137.436 20.7065L140.778 23.6765L140.27 24.2484L138.986 23.1078L132.82 30.0459L132.02 29.3345Z" fill="white"/>
<path d="M139.401 36.2827L146.869 29.5624L147.586 30.3585L140.117 37.0789L139.401 36.2827Z" fill="white"/>
<path d="M142.897 40.1615L151.03 34.2628L153.575 37.772L152.956 38.2212L151.059 35.6065L148.142 37.7224L149.659 39.8142L148.971 40.3132L147.454 38.2215L143.545 41.056L142.897 40.1615Z" fill="white"/>
<path d="M148.617 48.483L157.329 43.4779L157.862 44.4065L149.151 49.4116L148.617 48.483Z" fill="white"/>
<path d="M151.219 52.9953L160.409 48.9348L162.161 52.9L161.461 53.2092L160.156 50.2547L156.86 51.7113L157.904 54.0748L157.126 54.4184L156.082 52.0548L152.366 53.6969L153.671 56.6513L152.971 56.9605L151.219 52.9953Z" fill="white"/>
<path d="M155.338 62.6449L165.041 60.0402L165.822 62.9463C165.933 63.3623 165.969 63.7342 165.927 64.062C165.889 64.4008 165.743 64.6865 165.489 64.9191C165.248 65.1597 164.876 65.3475 164.373 65.4827L158.774 66.9856C158.216 67.1354 157.76 67.1639 157.406 67.0711C157.053 66.9782 156.772 66.7837 156.563 66.4877C156.358 66.2026 156.197 65.8466 156.083 65.4197L155.338 62.6449ZM156.216 63.5535L156.639 65.1297C156.739 65.5018 156.916 65.7709 157.172 65.937C157.442 66.111 157.867 66.1201 158.447 65.9644L163.964 64.4836C164.544 64.3278 164.907 64.1071 165.053 63.8214C165.202 63.5467 165.227 63.2232 165.127 62.8511L164.704 61.2749L156.216 63.5535Z" fill="white"/>
<path d="M158.206 91.0996C158.949 91.0212 159.761 90.7428 160.643 90.2644C161.536 89.7866 162.381 89.0787 163.178 88.1407C163.974 87.214 164.504 86.2707 164.769 85.3107L165.481 85.3553C165.647 86.3309 166.008 87.279 166.564 88.1996C167.13 89.1321 167.83 89.9254 168.663 90.5795C169.518 91.2463 170.376 91.6918 171.236 91.9161L171.192 92.6287C170.62 92.695 170.025 92.8621 169.406 93.13C168.799 93.3985 168.209 93.7533 167.636 94.1944C167.074 94.6474 166.559 95.1602 166.092 95.7328C165.402 96.5867 164.927 97.471 164.665 98.3858L163.952 98.3411C163.867 97.7112 163.653 97.0505 163.31 96.3591C162.967 95.6789 162.547 95.0394 162.051 94.4406C161.566 93.8424 161.046 93.3443 160.492 92.9462C159.677 92.3614 158.9 91.9834 158.161 91.8122L158.206 91.0996Z" fill="white"/>
<path d="M155.512 109.203L164.817 112.993L163.682 115.78C163.519 116.179 163.323 116.496 163.092 116.733C162.857 116.98 162.568 117.119 162.224 117.15C161.887 117.197 161.477 117.121 160.994 116.925L155.626 114.738C155.09 114.52 154.71 114.267 154.485 113.979C154.259 113.692 154.153 113.367 154.166 113.005C154.174 112.654 154.262 112.273 154.428 111.864L155.512 109.203ZM155.662 110.457L155.047 111.969C154.901 112.326 154.88 112.648 154.984 112.934C155.093 113.236 155.426 113.5 155.983 113.727L161.273 115.882C161.829 116.108 162.252 116.152 162.541 116.013C162.826 115.884 163.041 115.641 163.186 115.284L163.802 113.773L155.662 110.457Z" fill="white"/>
<path d="M150.648 120.238L159.442 125.097L158.924 126.035L150.13 121.175L150.648 120.238Z" fill="white"/>
<path d="M148.606 124.22L155.49 131.869L154.69 132.99L145.238 128.939L145.91 127.998L148.121 128.908L149.553 126.901L147.954 125.133L148.606 124.22ZM150.018 127.275L148.616 129.24L154.039 131.649L150.018 127.275Z" fill="white"/>
<path d="M141.23 134.408L148.211 141.634L147.306 142.508L140.06 138.139L144.139 145.567L143.271 146.406L136.291 139.18L136.975 138.518L142.621 144.363L138.479 137.066L139.03 136.534L146.179 140.926L140.533 135.081L141.23 134.408Z" fill="white"/>
<path d="M128.155 145.66C128.564 145.395 128.956 145.207 129.331 145.099C129.707 144.99 130.085 145.021 130.466 145.192C130.845 145.379 131.231 145.776 131.627 146.384L134.712 151.131C135.057 151.663 135.227 152.121 135.219 152.504C135.202 152.894 135.06 153.236 134.792 153.532C134.531 153.837 134.196 154.122 133.787 154.388C133.379 154.653 132.987 154.841 132.611 154.949C132.226 155.064 131.857 155.047 131.504 154.899C131.141 154.756 130.789 154.424 130.45 153.901L127.374 149.169C126.973 148.551 126.768 148.028 126.76 147.601C126.75 147.189 126.875 146.83 127.136 146.525C127.388 146.226 127.728 145.938 128.155 145.66ZM128.502 146.225C128.255 146.386 128.06 146.553 127.916 146.728C127.77 146.918 127.703 147.137 127.715 147.386C127.734 147.643 127.864 147.958 128.105 148.328L131.348 153.317C131.589 153.688 131.82 153.929 132.042 154.042C132.27 154.164 132.497 154.192 132.725 154.126C132.958 154.068 133.193 153.963 133.431 153.808C133.678 153.648 133.875 153.473 134.022 153.282C134.165 153.108 134.227 152.892 134.208 152.634C134.196 152.385 134.069 152.076 133.828 151.705L130.585 146.716C130.345 146.346 130.11 146.099 129.882 145.977C129.66 145.865 129.437 145.834 129.214 145.885C128.986 145.951 128.749 146.065 128.502 146.225Z" fill="white"/>
<path d="M119.364 151.345L123.294 160.592L122.434 160.958L116.467 154.96L119.539 162.188L118.647 162.567L114.717 153.32L115.609 152.941L121.431 158.687L118.472 151.724L119.364 151.345Z" fill="white"/>
<path d="M107.483 156.13L109.793 165.908L106.865 166.6C106.446 166.699 106.073 166.723 105.747 166.672C105.409 166.623 105.128 166.468 104.903 166.207C104.67 165.959 104.493 165.582 104.373 165.075L103.04 159.433C102.907 158.87 102.893 158.414 102.996 158.063C103.1 157.713 103.303 157.438 103.605 157.238C103.896 157.041 104.257 156.892 104.687 156.791L107.483 156.13ZM106.548 156.98L104.96 157.355C104.585 157.443 104.311 157.613 104.137 157.864C103.955 158.128 103.933 158.552 104.071 159.137L105.384 164.696C105.523 165.281 105.732 165.65 106.013 165.805C106.284 165.962 106.606 165.997 106.981 165.908L108.569 165.533L106.548 156.98Z" fill="white"/>
<path d="M78.9495 158.128C79.0051 158.873 79.2585 159.694 79.7097 160.59C80.1599 161.497 80.8416 162.363 81.7547 163.188C82.6566 164.013 83.5833 164.572 84.5347 164.865L84.4683 165.576C83.488 165.712 82.5293 166.044 81.5922 166.571C80.6427 167.108 79.8284 167.783 79.1491 168.596C78.4564 169.431 77.9849 170.275 77.7344 171.128L77.0235 171.061C76.9747 170.488 76.8259 169.887 76.5771 169.261C76.3273 168.646 75.9907 168.045 75.5674 167.459C75.1318 166.883 74.6349 166.353 74.077 165.868C73.2446 165.153 72.3752 164.651 71.4689 164.361L71.5354 163.65C72.1676 163.584 72.8345 163.39 73.5362 163.069C74.2265 162.747 74.8786 162.346 75.4924 161.869C76.1051 161.403 76.6189 160.898 77.0338 160.357C77.6432 159.56 78.0448 158.795 78.2386 158.062L78.9495 158.128Z" fill="white"/>
<path d="M60.8673 154.969L56.624 164.076L55.4837 163.545L56.9649 155.214L51.4927 161.685L50.3986 161.175L54.6419 152.068L55.5049 152.47L52.0729 159.836L57.4002 153.354L58.0936 153.677L56.557 161.926L59.989 154.56L60.8673 154.969Z" fill="white"/>
<path d="M48.1528 148.792L40.518 155.692L39.3955 154.895L43.4273 145.434L44.3696 146.104L43.464 148.318L45.4734 149.745L47.2382 148.142L48.1528 148.792ZM45.1011 150.211L43.1333 148.813L40.7357 154.241L45.1011 150.211Z" fill="white"/>
<path d="M38.039 141.401L30.9405 148.511L30.2788 147.85L33.6023 140.07L28.0532 145.628L27.3674 144.944L34.4659 137.834L35.1517 138.518L32.0084 146.07L37.3533 140.716L38.039 141.401Z" fill="white"/>
<path d="M27.9947 130.178C28.1968 130.465 28.3626 130.75 28.4922 131.033C28.6218 131.316 28.6902 131.601 28.6973 131.887C28.6978 132.163 28.6121 132.445 28.4399 132.732C28.252 133.017 27.9448 133.309 27.5183 133.609L21.0654 138.145L20.4494 137.269L27.0832 132.606C27.417 132.371 27.6282 132.139 27.7169 131.911C27.8055 131.682 27.8204 131.457 27.7615 131.235C27.6867 131.011 27.5744 130.792 27.4245 130.579C27.2811 130.375 27.1164 130.2 26.9304 130.053C26.7352 129.913 26.515 129.847 26.2699 129.853C26.0248 129.859 25.7353 129.979 25.4016 130.214L18.7678 134.877L18.1616 134.015L24.6146 129.479C25.0411 129.179 25.4232 128.993 25.7611 128.922C26.0831 128.848 26.3742 128.858 26.6343 128.952C26.8945 129.046 27.139 129.207 27.3679 129.434C27.5902 129.652 27.7992 129.9 27.9947 130.178Z" fill="white"/>
<path d="M22.3322 121.934L13.3592 126.453L11.4091 122.582L12.0923 122.238L13.5453 125.122L16.7641 123.501L15.6017 121.193L16.3608 120.811L17.5232 123.119L21.8351 120.947L22.3322 121.934Z" fill="white"/>
<path d="M18.6953 114.75L8.46947 115.905L8.02249 114.602L16.8136 109.267L17.1888 110.36L15.1625 111.631L15.9627 113.962L18.3311 113.689L18.6953 114.75ZM15.3889 114.123L14.6053 111.84L9.49238 114.853L15.3889 114.123Z" fill="white"/>
<path d="M14.7304 100.929C14.815 101.421 14.8342 101.866 14.7878 102.265C14.7396 102.653 14.5616 102.988 14.2538 103.271C13.9329 103.545 13.4151 103.743 12.7002 103.866L7.12128 104.827C6.49581 104.934 6.00844 104.909 5.65918 104.751C5.30799 104.581 5.04946 104.315 4.88357 103.953C4.70459 103.581 4.57377 103.155 4.4911 102.675C4.4065 102.183 4.38833 101.744 4.43658 101.356C4.48483 100.968 4.64705 100.641 4.92326 100.375C5.19946 100.109 5.64472 99.9231 6.25902 99.8174L8.00139 99.5175L8.18307 100.573L6.42394 100.876C5.98835 100.951 5.67502 101.068 5.48395 101.227C5.28172 101.389 5.16632 101.587 5.13776 101.822C5.10727 102.045 5.11606 102.297 5.16413 102.576C5.21219 102.855 5.28895 103.101 5.39442 103.313C5.49796 103.513 5.672 103.656 5.91653 103.74C6.14796 103.816 6.48148 103.816 6.91707 103.741L12.7976 102.728C13.2444 102.652 13.5698 102.538 13.774 102.388C13.965 102.228 14.0758 102.037 14.1063 101.813C14.1349 101.578 14.1251 101.321 14.077 101.042C14.0271 100.752 13.9503 100.506 13.8468 100.305C13.7432 100.105 13.5748 99.9611 13.3414 99.8748C13.0969 99.7904 12.7512 99.7866 12.3045 99.8635L10.8134 100.12L10.6317 99.0647L11.8212 98.86C12.5472 98.735 13.1072 98.7479 13.5011 98.8986C13.8839 99.0512 14.1628 99.3022 14.338 99.6515C14.5131 100.001 14.6439 100.427 14.7304 100.929Z" fill="white"/>
<path d="M13.0852 90.3513L3.80364 90.4416L3.82001 92.1245L3.05504 92.1319L3.01155 87.6611L3.77652 87.6537L3.79322 89.3706L13.0748 89.2803L13.0852 90.3513Z" fill="white"/>
<path d="M13.7015 77.732C13.6483 78.0792 13.5704 78.3998 13.4681 78.6937C13.3657 78.9876 13.218 79.2401 13.0251 79.4513C12.8339 79.6513 12.5768 79.7953 12.2537 79.8834C11.9211 79.9585 11.4972 79.9566 10.9819 79.8775L3.18503 78.682L3.34736 77.6233L11.3627 78.8524C11.766 78.9143 12.0787 78.8934 12.301 78.7899C12.5232 78.6864 12.6899 78.5342 12.801 78.3334C12.9025 78.1197 12.9731 77.884 13.0126 77.6263C13.0504 77.3799 13.0528 77.1395 13.02 76.9051C12.9759 76.669 12.8634 76.4683 12.6823 76.303C12.5013 76.1376 12.2092 76.024 11.8059 75.9622L3.79055 74.7331L3.95031 73.6913L11.7472 74.8869C12.2625 74.9659 12.6667 75.0967 12.9597 75.2792C13.2433 75.4488 13.4463 75.6577 13.5688 75.9058C13.6913 76.1539 13.7565 76.439 13.7644 76.7613C13.774 77.0723 13.7531 77.3959 13.7015 77.732Z" fill="white"/>
<path d="M15.2796 67.8129L5.71996 64.7216L6.69287 61.713C6.86723 61.1738 7.13786 60.7789 7.50476 60.5283C7.86089 60.2742 8.31393 60.2361 8.86389 60.414L10.4167 60.9161C10.9667 61.094 11.3386 61.3988 11.5324 61.8308C11.7297 62.2519 11.7485 62.7463 11.5888 63.3141L11.5726 63.3088C11.7057 62.9707 11.9134 62.752 12.1957 62.6527C12.4671 62.5499 12.8556 62.5088 13.3612 62.5293L16.9638 62.6045L16.5977 63.7368L13.0964 63.5693C12.7665 63.5579 12.4603 63.584 12.1777 63.6475C11.8879 63.6967 11.6941 63.8722 11.5965 64.1742L11.2199 65.3388L15.6196 66.7615L15.2796 67.8129ZM10.492 65.1034L10.9523 63.68C11.1127 63.1839 11.1111 62.8022 10.9474 62.5349C10.7764 62.2533 10.4644 62.0393 10.0115 61.8928L8.71751 61.4744C8.31852 61.3453 7.99598 61.3482 7.7499 61.4831C7.49651 61.6036 7.30705 61.858 7.18151 62.2462L6.65844 63.8637L10.492 65.1034Z" fill="white"/>
<path d="M18.8421 57.4495L9.82911 53.0101L11.7446 49.1212L12.4309 49.4593L11.0036 52.3568L14.2367 53.9493L15.3785 51.6313L16.141 52.0068L14.9992 54.3249L18.6441 56.1202L20.0713 53.2226L20.7576 53.5607L18.8421 57.4495Z" fill="white"/>
<path d="M23.5444 48.2522L15.2674 42.5572L17.0597 39.9522C17.3809 39.4854 17.7532 39.1843 18.1764 39.0491C18.5903 38.9074 19.0353 39.0004 19.5115 39.328L20.856 40.2531C21.3322 40.5807 21.6014 40.9792 21.6637 41.4485C21.7324 41.9085 21.609 42.3877 21.2936 42.886L21.2796 42.8764C21.5039 42.5905 21.7654 42.4403 22.0643 42.4258C22.3538 42.4049 22.7379 42.4765 23.2164 42.6407L26.6473 43.7426L25.9727 44.7229L22.6654 43.5616C22.3525 43.4564 22.0517 43.3938 21.7627 43.3739C21.4709 43.3382 21.2351 43.451 21.0552 43.7124L20.3614 44.7208L24.1708 47.3419L23.5444 48.2522ZM19.7311 44.2872L20.5791 43.0547C20.8746 42.6252 20.9822 42.259 20.9017 41.956C20.8184 41.6373 20.5807 41.343 20.1885 41.0732L19.0681 40.3023C18.7226 40.0646 18.4127 39.9752 18.1384 40.0341C17.8611 40.0771 17.6068 40.2668 17.3756 40.6029L16.4119 42.0034L19.7311 44.2872Z" fill="white"/>
<path d="M42.5482 28.4313C42.0023 27.9212 41.2598 27.4898 40.3207 27.1371C39.3748 26.7753 38.2865 26.6006 37.0557 26.6129C35.834 26.6184 34.7738 26.8356 33.8752 27.2645L33.4421 26.6968C34.0706 25.9323 34.5506 25.0387 34.8823 24.016C35.2161 22.9774 35.3571 21.929 35.3054 20.8708C35.2489 19.7878 35.0237 18.8478 34.6295 18.0508L35.1972 17.6178C35.622 18.0065 36.1382 18.3468 36.7458 18.6388C37.3465 18.9218 38.0011 19.1351 38.7095 19.279C39.42 19.4069 40.1447 19.4599 40.8835 19.438C41.9803 19.3996 42.96 19.1797 43.8226 18.7782L44.2556 19.3459C43.8357 19.8231 43.4767 20.4176 43.1788 21.1295C42.8899 21.8346 42.6817 22.5707 42.5542 23.3379C42.4198 24.0961 42.3838 24.8149 42.446 25.4945C42.538 26.4933 42.7613 27.3279 43.1159 27.9983L42.5482 28.4313Z" fill="white"/>
</svg>
