<svg width="2043" height="646" viewBox="0 0 2043 646" fill="none" xmlns="http://www.w3.org/2000/svg">
<path d="M2023.48 507.06C1862.25 465.223 1759.99 510.776 1651.69 558.976C1535.45 610.707 1415.29 664.322 1217.56 608.597C1124.06 580.692 1024.2 533.398 920.466 467.763C835.496 415.355 758.5 352.276 683.973 291.16C609.887 230.417 533.322 167.608 450.309 117.09C332.895 45.6016 210.701 20.129 131.38 50.6278C76.7058 71.6674 44.7203 118.493 38.7962 186.011C26.5916 327.358 107.654 501.917 169.674 620.943C174.904 631.021 171.921 641.616 163.018 644.7C155.938 647.081 147.362 644.103 141.45 637.826C139.817 636.093 138.419 634.138 137.313 632.021C67.2234 497.567 -11.6002 324.055 1.42304 174.055C8.34024 94.7734 46.3138 39.5993 111.337 14.5653C200.424 -19.7099 335.362 7.51813 463.618 85.5966C549.661 138.012 627.708 202.018 703.113 263.878C776.26 323.813 851.943 385.873 934.168 436.593C1034.44 499.969 1130.38 545.549 1219.53 572.134C1404.3 624.17 1514.06 575.272 1630.31 523.541C1738.75 475.214 1850.81 425.277 2024.31 470.335C2034.65 473.011 2042.92 483.493 2042.7 493.627C2042.48 503.762 2033.85 509.865 2023.51 507.189L2023.48 507.06Z" fill="black"/>
</svg>
