<?xml version="1.0" encoding="utf-8"?>
<!-- Generator: Adobe Illustrator 25.4.1, SVG Export Plug-In . SVG Version: 6.00 Build 0)  -->
<svg version="1.0" id="Layer_1" xmlns="http://www.w3.org/2000/svg" xmlns:xlink="http://www.w3.org/1999/xlink" x="0px" y="0px"
	 viewBox="0 0 1080 1080" enable-background="new 0 0 1080 1080" xml:space="preserve">
<g display="none">
	<path display="inline" fill="none" stroke="#000003" stroke-width="10" stroke-miterlimit="22.9256" d="M943.3,289.3
		c-18.7-4-38.4-11.8-57-23.6c-18.7-11.8-36.4-27.5-45.2-35.4c-8.9-7.9-8.9-7.9-11.8-18.7c-3-10.8-8.8-32.5-23.6-54.1
		s-38.4-43.3-67.9-60S672.9,69,636.5,63.1c-36.4-5.9-73.7-5.9-111.1,3c-37.4,8.8-74.7,26.5-102.3,48.2c-27.5,21.6-45.2,47.2-56,76.7
		s-14.7,62.9-12.8,95.4c2,32.5,9.8,63.9,24.6,92.4c14.7,28.5,36.4,54.1,53.1,71.8c16.7,17.7,28.5,27.5,34.4,32.5
		c5.9,4.9,5.9,4.9-16.7,5.9s-67.8,2.9-107.2,6.9c-39.3,4-72.8,9.8-99.3,11.8s-46.2,0-73.7-10.8C142,486,106.6,466.3,83,450.6
		c-23.6-15.7-35.4-27.5-42.3-33.4s-8.9-5.9-12.8,6.9s-9.8,38.3-13.8,68.8c-3.9,30.5-5.9,65.9-2.9,108.1
		c2.9,42.3,10.8,91.4,25.6,133.7c14.7,42.3,36.4,77.7,64.9,111.1c28.5,33.4,63.9,64.9,100.3,89.5s73.7,42.3,114.1,56
		c40.3,13.8,83.6,23.6,147.5,27.5s148.5,1.9,212.4-3s107.2-12.8,152.4-27.5s92.4-36.4,133.7-71.8c41.3-35.4,76.7-84.5,94.4-137.7
		c17.7-53.1,17.7-110.1,3.9-157.3c-13.8-47.2-41.3-84.6-75.7-113.1c-34.4-28.5-75.7-48.2-99.3-62.9c-23.6-14.7-29.5-24.6-32.5-29.5
		c-2.9-4.9-2.9-4.9,6.9-5.9c9.8-1,29.5-2.9,52.1-15.7c22.6-12.8,48.2-36.4,62.9-54.5c14.7-18.2,18.7-31,20.7-37.8
		c2-6.9,2-7.9-6.9-8.4C979.7,293.3,962,293.3,943.3,289.3z"/>
	
		<line display="inline" fill="none" stroke="#000003" stroke-width="10" stroke-miterlimit="22.9256" x1="953.6" y1="362.5" x2="604.2" y2="59.6"/>
	
		<line display="inline" fill="none" stroke="#000003" stroke-width="10" stroke-miterlimit="22.9256" x1="853.1" y1="411.1" x2="447.1" y2="97.9"/>
	
		<line display="inline" fill="none" stroke="#000003" stroke-width="10" stroke-miterlimit="22.9256" x1="1064.6" y1="748.3" x2="367.1" y2="191.4"/>
	
		<line display="inline" fill="none" stroke="#000003" stroke-width="10" stroke-miterlimit="22.9256" x1="1000.8" y1="877" x2="403" y2="416.5"/>
	
		<line display="inline" fill="none" stroke="#000003" stroke-width="10" stroke-miterlimit="22.9256" x1="889.3" y1="963.9" x2="292.9" y2="501.8"/>
	
		<line display="inline" fill="none" stroke="#000003" stroke-width="10" stroke-miterlimit="22.9256" x1="739.8" y1="1009" x2="19.8" y2="458.2"/>
	
		<line display="inline" fill="none" stroke="#000003" stroke-width="10" stroke-miterlimit="22.9256" x1="542.9" y1="1020.7" x2="13.4" y2="625.1"/>
	
		<line display="inline" fill="none" stroke="#000003" stroke-width="10" stroke-miterlimit="22.9256" x1="604.2" y1="59.6" x2="370.2" y2="359.6"/>
	
		<line display="inline" fill="none" stroke="#000003" stroke-width="10" stroke-miterlimit="22.9256" x1="709" y1="83.6" x2="434.1" y2="440.4"/>
	
		<line display="inline" fill="none" stroke="#000003" stroke-width="10" stroke-miterlimit="22.9256" x1="805.7" y1="157.6" x2="202" y2="935.2"/>
	
		<line display="inline" fill="none" stroke="#000003" stroke-width="10" stroke-miterlimit="22.9256" x1="396.1" y1="491.6" x2="107.1" y2="852"/>
	
		<line display="inline" fill="none" stroke="#000003" stroke-width="10" stroke-miterlimit="22.9256" x1="243.3" y1="507.6" x2="40.2" y2="744"/>
	
		<line display="inline" fill="none" stroke="#000003" stroke-width="10" stroke-miterlimit="22.9256" x1="118" y1="471.8" x2="10.4" y2="586.6"/>
	
		<line display="inline" fill="none" stroke="#000003" stroke-width="10" stroke-miterlimit="22.9256" x1="874.2" y1="257.5" x2="301.6" y2="986.2"/>
	
		<line display="inline" fill="none" stroke="#000003" stroke-width="10" stroke-miterlimit="22.9256" x1="877.3" y1="440.4" x2="426.5" y2="1015.6"/>
	
		<line display="inline" fill="none" stroke="#000003" stroke-width="10" stroke-miterlimit="22.9256" x1="969.6" y1="497" x2="577" y2="1020.9"/>
	
		<line display="inline" fill="none" stroke="#000003" stroke-width="10" stroke-miterlimit="22.9256" x1="1038.3" y1="570.9" x2="733.2" y2="1004"/>
	
		<line display="inline" fill="none" stroke="#000003" stroke-width="10" stroke-miterlimit="22.9256" x1="1070.2" y1="689.6" x2="881.9" y2="958.2"/>
</g>
<g display="none">
	<path display="inline" fill="none" stroke="#000000" stroke-width="10.131" stroke-miterlimit="22.9256" d="M540,1070.2
		c181.9,0,330.3-238.2,330.3-530.2S721.9,9.8,540,9.8S209.7,248,209.7,540S358.1,1070.2,540,1070.2z"/>
	
		<line display="inline" fill="none" stroke="#000000" stroke-width="10.131" stroke-miterlimit="22.9256" x1="540" y1="223.7" x2="442.2" y2="156"/>
	
		<line display="inline" fill="none" stroke="#000000" stroke-width="10.131" stroke-miterlimit="22.9256" x1="542.9" y1="9.9" x2="443.8" y2="153.8"/>
	
		<line display="inline" fill="none" stroke="#000000" stroke-width="10.131" stroke-miterlimit="22.9256" x1="414.7" y1="49.3" x2="442.2" y2="156"/>
	
		<line display="inline" fill="none" stroke="#000000" stroke-width="10.131" stroke-miterlimit="22.9256" x1="540" y1="223.7" x2="299.6" y2="383.3"/>
	
		<line display="inline" fill="none" stroke="#000000" stroke-width="10.131" stroke-miterlimit="22.9256" x1="304.8" y1="167.8" x2="442.2" y2="156"/>
	
		<line display="inline" fill="none" stroke="#000000" stroke-width="10.131" stroke-miterlimit="22.9256" x1="304.8" y1="167.8" x2="299.6" y2="383.3"/>
	
		<line display="inline" fill="none" stroke="#000000" stroke-width="10.131" stroke-miterlimit="22.9256" x1="234.2" y1="339.4" x2="299.6" y2="383.3"/>
	
		<line display="inline" fill="none" stroke="#000000" stroke-width="10.131" stroke-miterlimit="22.9256" x1="209.7" y1="540" x2="299.6" y2="383.3"/>
	
		<line display="inline" fill="none" stroke="#000000" stroke-width="10.131" stroke-miterlimit="22.9256" x1="209.8" y1="546" x2="299.6" y2="702.1"/>
	
		<line display="inline" fill="none" stroke="#000000" stroke-width="10.131" stroke-miterlimit="22.9256" x1="442.2" y1="156" x2="299.6" y2="702.1"/>
	
		<line display="inline" fill="none" stroke="#000000" stroke-width="10.131" stroke-miterlimit="22.9256" x1="442.2" y1="925.8" x2="299.6" y2="383.3"/>
	
		<line display="inline" fill="none" stroke="#000000" stroke-width="10.131" stroke-miterlimit="22.9256" x1="305.9" y1="914" x2="299.6" y2="702.1"/>
	
		<line display="inline" fill="none" stroke="#000000" stroke-width="10.131" stroke-miterlimit="22.9256" x1="299.6" y1="702.1" x2="234.7" y2="742.7"/>
	
		<line display="inline" fill="none" stroke="#000000" stroke-width="10.131" stroke-miterlimit="22.9256" x1="540" y1="859.6" x2="299.6" y2="702.1"/>
	
		<line display="inline" fill="none" stroke="#000000" stroke-width="10.131" stroke-miterlimit="22.9256" x1="540" y1="859.6" x2="442.2" y2="925.8"/>
	
		<line display="inline" fill="none" stroke="#000000" stroke-width="10.131" stroke-miterlimit="22.9256" x1="305.9" y1="914" x2="442.2" y2="925.8"/>
	
		<line display="inline" fill="none" stroke="#000000" stroke-width="10.131" stroke-miterlimit="22.9256" x1="414.3" y1="1030.5" x2="442.2" y2="925.8"/>
	
		<line display="inline" fill="none" stroke="#000000" stroke-width="10.131" stroke-miterlimit="22.9256" x1="540" y1="1070.2" x2="442.2" y2="925.8"/>
	
		<line display="inline" fill="none" stroke="#000000" stroke-width="10.131" stroke-miterlimit="22.9256" x1="540.9" y1="223.7" x2="638.6" y2="156"/>
	
		<line display="inline" fill="none" stroke="#000000" stroke-width="10.131" stroke-miterlimit="22.9256" x1="540" y1="9.8" x2="637.8" y2="151.8"/>
	
		<line display="inline" fill="none" stroke="#000000" stroke-width="10.131" stroke-miterlimit="22.9256" x1="666.2" y1="49.3" x2="638.6" y2="156"/>
	
		<line display="inline" fill="none" stroke="#000000" stroke-width="10.131" stroke-miterlimit="22.9256" x1="540.9" y1="223.7" x2="781.3" y2="383.3"/>
	
		<line display="inline" fill="none" stroke="#000000" stroke-width="10.131" stroke-miterlimit="22.9256" x1="776.1" y1="167.8" x2="638.6" y2="156"/>
	
		<line display="inline" fill="none" stroke="#000000" stroke-width="10.131" stroke-miterlimit="22.9256" x1="776.1" y1="167.8" x2="781.3" y2="383.3"/>
	
		<line display="inline" fill="none" stroke="#000000" stroke-width="10.131" stroke-miterlimit="22.9256" x1="846.7" y1="339.4" x2="781.3" y2="383.3"/>
	
		<line display="inline" fill="none" stroke="#000000" stroke-width="10.131" stroke-miterlimit="22.9256" x1="871.1" y1="540" x2="781.3" y2="383.3"/>
	
		<line display="inline" fill="none" stroke="#000000" stroke-width="10.131" stroke-miterlimit="22.9256" x1="871.1" y1="546" x2="781.3" y2="702.1"/>
	
		<line display="inline" fill="none" stroke="#000000" stroke-width="10.131" stroke-miterlimit="22.9256" x1="638.6" y1="156" x2="781.3" y2="702.1"/>
	
		<line display="inline" fill="none" stroke="#000000" stroke-width="10.131" stroke-miterlimit="22.9256" x1="638.6" y1="925.8" x2="781.3" y2="383.3"/>
	
		<line display="inline" fill="none" stroke="#000000" stroke-width="10.131" stroke-miterlimit="22.9256" x1="775" y1="914" x2="781.3" y2="702.1"/>
	
		<line display="inline" fill="none" stroke="#000000" stroke-width="10.131" stroke-miterlimit="22.9256" x1="846.2" y1="742.7" x2="781.3" y2="702.1"/>
	
		<line display="inline" fill="none" stroke="#000000" stroke-width="10.131" stroke-miterlimit="22.9256" x1="540.9" y1="859.6" x2="781.3" y2="702.1"/>
	
		<line display="inline" fill="none" stroke="#000000" stroke-width="10.131" stroke-miterlimit="22.9256" x1="540.9" y1="859.6" x2="638.6" y2="925.8"/>
	
		<line display="inline" fill="none" stroke="#000000" stroke-width="10.131" stroke-miterlimit="22.9256" x1="775" y1="914" x2="638.6" y2="925.8"/>
	
		<line display="inline" fill="none" stroke="#000000" stroke-width="10.131" stroke-miterlimit="22.9256" x1="666.5" y1="1030.5" x2="638.6" y2="925.8"/>
	
		<line display="inline" fill="none" stroke="#000000" stroke-width="10.131" stroke-miterlimit="22.9256" x1="540.9" y1="1070.2" x2="638.6" y2="925.8"/>
</g>
<g>
	<g>
		
			<line fill-rule="evenodd" clip-rule="evenodd" fill="none" stroke="#000000" stroke-width="10.1925" stroke-miterlimit="22.9256" x1="540.3" y1="1068.2" x2="345.9" y2="874.1"/>
		
			<line fill-rule="evenodd" clip-rule="evenodd" fill="none" stroke="#000000" stroke-width="10.1925" stroke-miterlimit="22.9256" x1="345.9" y1="874.1" x2="266.5" y2="1035.1"/>
		
			<line fill-rule="evenodd" clip-rule="evenodd" fill="none" stroke="#000000" stroke-width="10.1925" stroke-miterlimit="22.9256" x1="333.6" y1="735.6" x2="345.9" y2="874.1"/>
		
			<line fill-rule="evenodd" clip-rule="evenodd" fill="none" stroke="#000000" stroke-width="10.1925" stroke-miterlimit="22.9256" x1="230.9" y1="692" x2="333.6" y2="735.6"/>
		
			<line fill-rule="evenodd" clip-rule="evenodd" fill="none" stroke="#000000" stroke-width="10.1925" stroke-miterlimit="22.9256" x1="285" y1="540" x2="230.9" y2="692"/>
		
			<line fill-rule="evenodd" clip-rule="evenodd" fill="none" stroke="#000000" stroke-width="10.1925" stroke-miterlimit="22.9256" x1="333.6" y1="735.6" x2="285" y2="540"/>
		
			<line fill-rule="evenodd" clip-rule="evenodd" fill="none" stroke="#000000" stroke-width="10.1925" stroke-miterlimit="22.9256" x1="99.5" y1="941.8" x2="347.3" y2="875.4"/>
		
			<line fill-rule="evenodd" clip-rule="evenodd" fill="none" stroke="#000000" stroke-width="10.1925" stroke-miterlimit="22.9256" x1="99.5" y1="941.8" x2="230.9" y2="692"/>
		
			<line fill-rule="evenodd" clip-rule="evenodd" fill="none" stroke="#000000" stroke-width="10.1925" stroke-miterlimit="22.9256" x1="31" y1="771.7" x2="230.9" y2="692"/>
		
			<line fill-rule="evenodd" clip-rule="evenodd" fill="none" stroke="#000000" stroke-width="10.1925" stroke-miterlimit="22.9256" x1="11.8" y1="540" x2="230.9" y2="692"/>
		
			<line fill-rule="evenodd" clip-rule="evenodd" fill="none" stroke="#000000" stroke-width="10.1925" stroke-miterlimit="22.9256" x1="540.3" y1="821.4" x2="345" y2="876"/>
		
			<line fill-rule="evenodd" clip-rule="evenodd" fill="none" stroke="#000000" stroke-width="10.1925" stroke-miterlimit="22.9256" x1="540.3" y1="821.4" x2="333.6" y2="735.6"/>
		
			<path fill-rule="evenodd" clip-rule="evenodd" fill="none" stroke="#000000" stroke-width="10.1925" stroke-miterlimit="22.9256" d="
			M540.3,1068.2c-29.7-1.5-59.3-3-86.5-5c-27.1-2-51.8-4.5-78-8.5c-26.2-4-54.1-9.5-78.5-14.8c-24.4-5.2-45.4-10.3-64.8-15.8
			c-19.4-5.5-37.2-11.5-53.2-18.8c-16-7.3-30.1-15.8-43.1-26.6c-13-10.8-24.9-23.8-34.7-35.1c-9.8-11.3-17.6-20.8-25.1-33.6
			c-7.5-12.8-14.8-28.8-21.2-44.7c-6.4-15.8-11.9-31.3-15.8-46.9c-3.9-15.6-6.2-31.1-8.7-48.9c-2.5-17.8-5.3-37.9-8-60.9
			c-2.7-23.1-5.5-49.1-7.3-77.7c-1.8-28.6-2.8-59.7-3.7-90.8"/>
	</g>
	<g>
		
			<line fill-rule="evenodd" clip-rule="evenodd" fill="none" stroke="#000000" stroke-width="10.1925" stroke-miterlimit="22.9256" x1="540.3" y1="11.8" x2="345.9" y2="205.9"/>
		
			<line fill-rule="evenodd" clip-rule="evenodd" fill="none" stroke="#000000" stroke-width="10.1925" stroke-miterlimit="22.9256" x1="345.9" y1="205.9" x2="266.5" y2="44.9"/>
		
			<line fill-rule="evenodd" clip-rule="evenodd" fill="none" stroke="#000000" stroke-width="10.1925" stroke-miterlimit="22.9256" x1="333.6" y1="344.4" x2="345.9" y2="205.9"/>
		
			<line fill-rule="evenodd" clip-rule="evenodd" fill="none" stroke="#000000" stroke-width="10.1925" stroke-miterlimit="22.9256" x1="230.9" y1="388" x2="333.6" y2="344.4"/>
		
			<line fill-rule="evenodd" clip-rule="evenodd" fill="none" stroke="#000000" stroke-width="10.1925" stroke-miterlimit="22.9256" x1="285" y1="540" x2="230.9" y2="388"/>
		
			<line fill-rule="evenodd" clip-rule="evenodd" fill="none" stroke="#000000" stroke-width="10.1925" stroke-miterlimit="22.9256" x1="333.6" y1="344.4" x2="285" y2="540"/>
		
			<line fill-rule="evenodd" clip-rule="evenodd" fill="none" stroke="#000000" stroke-width="10.1925" stroke-miterlimit="22.9256" x1="99.5" y1="138.2" x2="347.3" y2="204.6"/>
		
			<line fill-rule="evenodd" clip-rule="evenodd" fill="none" stroke="#000000" stroke-width="10.1925" stroke-miterlimit="22.9256" x1="99.5" y1="138.2" x2="230.9" y2="388"/>
		
			<line fill-rule="evenodd" clip-rule="evenodd" fill="none" stroke="#000000" stroke-width="10.1925" stroke-miterlimit="22.9256" x1="31" y1="308.3" x2="230.9" y2="388"/>
		
			<line fill-rule="evenodd" clip-rule="evenodd" fill="none" stroke="#000000" stroke-width="10.1925" stroke-miterlimit="22.9256" x1="11.8" y1="540" x2="230.9" y2="388"/>
		
			<line fill-rule="evenodd" clip-rule="evenodd" fill="none" stroke="#000000" stroke-width="10.1925" stroke-miterlimit="22.9256" x1="540.3" y1="258.6" x2="345" y2="204"/>
		
			<line fill-rule="evenodd" clip-rule="evenodd" fill="none" stroke="#000000" stroke-width="10.1925" stroke-miterlimit="22.9256" x1="540.3" y1="258.6" x2="333.6" y2="344.4"/>
		
			<path fill-rule="evenodd" clip-rule="evenodd" fill="none" stroke="#000000" stroke-width="10.1925" stroke-miterlimit="22.9256" d="
			M540.3,11.8c-29.7,1.5-59.3,3-86.5,5c-27.1,2-51.8,4.5-78,8.5c-26.2,4-54.1,9.5-78.5,14.8c-24.4,5.3-45.4,10.3-64.8,15.8
			c-19.4,5.5-37.2,11.5-53.2,18.8c-16,7.3-30.1,15.8-43.1,26.6c-13,10.8-24.9,23.8-34.7,35.1c-9.8,11.3-17.6,20.8-25.1,33.6
			c-7.5,12.8-14.8,28.8-21.2,44.7c-6.4,15.8-11.9,31.3-15.8,46.9c-3.9,15.6-6.2,31.1-8.7,48.9c-2.5,17.8-5.3,37.9-8,60.9
			c-2.7,23.1-5.5,49.1-7.3,77.7c-1.8,28.6-2.8,59.7-3.7,90.8"/>
	</g>
	<g>
		
			<line fill-rule="evenodd" clip-rule="evenodd" fill="none" stroke="#000000" stroke-width="10.1925" stroke-miterlimit="22.9256" x1="539.7" y1="1068.2" x2="734.1" y2="874.1"/>
		
			<line fill-rule="evenodd" clip-rule="evenodd" fill="none" stroke="#000000" stroke-width="10.1925" stroke-miterlimit="22.9256" x1="734.1" y1="874.1" x2="813.5" y2="1035.1"/>
		
			<line fill-rule="evenodd" clip-rule="evenodd" fill="none" stroke="#000000" stroke-width="10.1925" stroke-miterlimit="22.9256" x1="746.4" y1="735.6" x2="734.1" y2="874.1"/>
		
			<line fill-rule="evenodd" clip-rule="evenodd" fill="none" stroke="#000000" stroke-width="10.1925" stroke-miterlimit="22.9256" x1="849.1" y1="692" x2="746.4" y2="735.6"/>
		
			<line fill-rule="evenodd" clip-rule="evenodd" fill="none" stroke="#000000" stroke-width="10.1925" stroke-miterlimit="22.9256" x1="795" y1="540" x2="849.1" y2="692"/>
		
			<line fill-rule="evenodd" clip-rule="evenodd" fill="none" stroke="#000000" stroke-width="10.1925" stroke-miterlimit="22.9256" x1="746.4" y1="735.6" x2="795" y2="540"/>
		
			<line fill-rule="evenodd" clip-rule="evenodd" fill="none" stroke="#000000" stroke-width="10.1925" stroke-miterlimit="22.9256" x1="980.6" y1="941.8" x2="732.7" y2="875.4"/>
		
			<line fill-rule="evenodd" clip-rule="evenodd" fill="none" stroke="#000000" stroke-width="10.1925" stroke-miterlimit="22.9256" x1="980.6" y1="941.8" x2="849.1" y2="692"/>
		
			<line fill-rule="evenodd" clip-rule="evenodd" fill="none" stroke="#000000" stroke-width="10.1925" stroke-miterlimit="22.9256" x1="1049" y1="771.7" x2="849.1" y2="692"/>
		
			<line fill-rule="evenodd" clip-rule="evenodd" fill="none" stroke="#000000" stroke-width="10.1925" stroke-miterlimit="22.9256" x1="1068.2" y1="540" x2="849.1" y2="692"/>
		
			<line fill-rule="evenodd" clip-rule="evenodd" fill="none" stroke="#000000" stroke-width="10.1925" stroke-miterlimit="22.9256" x1="539.7" y1="821.4" x2="735.1" y2="876"/>
		
			<line fill-rule="evenodd" clip-rule="evenodd" fill="none" stroke="#000000" stroke-width="10.1925" stroke-miterlimit="22.9256" x1="539.7" y1="821.4" x2="746.4" y2="735.6"/>
		
			<path fill-rule="evenodd" clip-rule="evenodd" fill="none" stroke="#000000" stroke-width="10.1925" stroke-miterlimit="22.9256" d="
			M539.7,1068.2c29.7-1.5,59.3-3,86.5-5c27.2-2,51.8-4.5,78.1-8.5c26.2-4,54.1-9.5,78.5-14.8c24.4-5.2,45.4-10.3,64.8-15.8
			c19.4-5.5,37.2-11.5,53.2-18.8c16-7.3,30.1-15.8,43.1-26.6c13-10.8,24.9-23.8,34.7-35.1c9.8-11.3,17.6-20.8,25.1-33.6
			c7.5-12.8,14.8-28.8,21.2-44.7c6.4-15.8,11.9-31.3,15.8-46.9c3.9-15.6,6.1-31.1,8.7-48.9c2.5-17.8,5.3-37.9,8-60.9
			c2.7-23.1,5.5-49.1,7.3-77.7c1.8-28.6,2.7-59.7,3.6-90.8"/>
	</g>
	<g>
		
			<line fill-rule="evenodd" clip-rule="evenodd" fill="none" stroke="#000000" stroke-width="10.1925" stroke-miterlimit="22.9256" x1="539.7" y1="11.8" x2="734.1" y2="205.9"/>
		
			<line fill-rule="evenodd" clip-rule="evenodd" fill="none" stroke="#000000" stroke-width="10.1925" stroke-miterlimit="22.9256" x1="734.1" y1="205.9" x2="813.5" y2="44.9"/>
		
			<line fill-rule="evenodd" clip-rule="evenodd" fill="none" stroke="#000000" stroke-width="10.1925" stroke-miterlimit="22.9256" x1="746.4" y1="344.4" x2="734.1" y2="205.9"/>
		
			<line fill-rule="evenodd" clip-rule="evenodd" fill="none" stroke="#000000" stroke-width="10.1925" stroke-miterlimit="22.9256" x1="849.1" y1="388" x2="746.4" y2="344.4"/>
		
			<line fill-rule="evenodd" clip-rule="evenodd" fill="none" stroke="#000000" stroke-width="10.1925" stroke-miterlimit="22.9256" x1="795" y1="540" x2="849.1" y2="388"/>
		
			<line fill-rule="evenodd" clip-rule="evenodd" fill="none" stroke="#000000" stroke-width="10.1925" stroke-miterlimit="22.9256" x1="746.4" y1="344.4" x2="795" y2="540"/>
		
			<line fill-rule="evenodd" clip-rule="evenodd" fill="none" stroke="#000000" stroke-width="10.1925" stroke-miterlimit="22.9256" x1="980.6" y1="138.2" x2="732.7" y2="204.6"/>
		
			<line fill-rule="evenodd" clip-rule="evenodd" fill="none" stroke="#000000" stroke-width="10.1925" stroke-miterlimit="22.9256" x1="980.6" y1="138.2" x2="849.1" y2="388"/>
		
			<line fill-rule="evenodd" clip-rule="evenodd" fill="none" stroke="#000000" stroke-width="10.1925" stroke-miterlimit="22.9256" x1="1049" y1="308.3" x2="849.1" y2="388"/>
		
			<line fill-rule="evenodd" clip-rule="evenodd" fill="none" stroke="#000000" stroke-width="10.1925" stroke-miterlimit="22.9256" x1="1068.2" y1="540" x2="849.1" y2="388"/>
		
			<line fill-rule="evenodd" clip-rule="evenodd" fill="none" stroke="#000000" stroke-width="10.1925" stroke-miterlimit="22.9256" x1="539.7" y1="258.6" x2="735.1" y2="204"/>
		
			<line fill-rule="evenodd" clip-rule="evenodd" fill="none" stroke="#000000" stroke-width="10.1925" stroke-miterlimit="22.9256" x1="539.7" y1="258.6" x2="746.4" y2="344.4"/>
		
			<path fill-rule="evenodd" clip-rule="evenodd" fill="none" stroke="#000000" stroke-width="10.1925" stroke-miterlimit="22.9256" d="
			M539.7,11.8c29.7,1.5,59.3,3,86.5,5c27.2,2,51.8,4.5,78.1,8.5c26.2,4,54.1,9.5,78.5,14.8c24.4,5.3,45.4,10.3,64.8,15.8
			c19.4,5.5,37.2,11.5,53.2,18.8c16,7.3,30.1,15.8,43.1,26.6c13,10.8,24.9,23.8,34.7,35.1c9.8,11.3,17.6,20.8,25.1,33.6
			c7.5,12.8,14.8,28.8,21.2,44.7c6.4,15.8,11.9,31.3,15.8,46.9c3.9,15.6,6.1,31.1,8.7,48.9c2.5,17.8,5.3,37.9,8,60.9
			c2.7,23.1,5.5,49.1,7.3,77.7c1.8,28.6,2.7,59.7,3.6,90.8"/>
	</g>
</g>
</svg>
