<?xml version="1.0" encoding="utf-8"?>
<!-- Generator: Adobe Illustrator 25.4.1, SVG Export Plug-In . SVG Version: 6.00 Build 0)  -->
<svg version="1.0" id="Layer_1" xmlns="http://www.w3.org/2000/svg" xmlns:xlink="http://www.w3.org/1999/xlink" x="0px" y="0px"
	 viewBox="0 0 1080 1080" enable-background="new 0 0 1080 1080" xml:space="preserve">
<g display="none">
	<path display="inline" fill="none" stroke="#000003" stroke-width="10" stroke-miterlimit="22.9256" d="M943.3,289.3
		c-18.7-4-38.4-11.8-57-23.6c-18.7-11.8-36.4-27.5-45.2-35.4c-8.9-7.9-8.9-7.9-11.8-18.7c-3-10.8-8.8-32.5-23.6-54.1
		s-38.4-43.3-67.9-60S672.9,69,636.5,63.1c-36.4-5.9-73.7-5.9-111.1,3c-37.4,8.8-74.7,26.5-102.3,48.2c-27.5,21.6-45.2,47.2-56,76.7
		s-14.7,62.9-12.8,95.4c2,32.5,9.8,63.9,24.6,92.4c14.7,28.5,36.4,54.1,53.1,71.8c16.7,17.7,28.5,27.5,34.4,32.5
		c5.9,4.9,5.9,4.9-16.7,5.9s-67.8,2.9-107.2,6.9c-39.3,4-72.8,9.8-99.3,11.8s-46.2,0-73.7-10.8C142,486,106.6,466.3,83,450.6
		c-23.6-15.7-35.4-27.5-42.3-33.4s-8.9-5.9-12.8,6.9s-9.8,38.3-13.8,68.8c-3.9,30.5-5.9,65.9-2.9,108.1
		c2.9,42.3,10.8,91.4,25.6,133.7c14.7,42.3,36.4,77.7,64.9,111.1c28.5,33.4,63.9,64.9,100.3,89.5s73.7,42.3,114.1,56
		c40.3,13.8,83.6,23.6,147.5,27.5s148.5,1.9,212.4-3s107.2-12.8,152.4-27.5s92.4-36.4,133.7-71.8c41.3-35.4,76.7-84.5,94.4-137.7
		c17.7-53.1,17.7-110.1,3.9-157.3c-13.8-47.2-41.3-84.6-75.7-113.1c-34.4-28.5-75.7-48.2-99.3-62.9c-23.6-14.7-29.5-24.6-32.5-29.5
		c-2.9-4.9-2.9-4.9,6.9-5.9c9.8-1,29.5-2.9,52.1-15.7c22.6-12.8,48.2-36.4,62.9-54.5c14.7-18.2,18.7-31,20.7-37.8
		c2-6.9,2-7.9-6.9-8.4C979.7,293.3,962,293.3,943.3,289.3z"/>
	
		<line display="inline" fill="none" stroke="#000003" stroke-width="10" stroke-miterlimit="22.9256" x1="953.6" y1="362.5" x2="604.2" y2="59.6"/>
	
		<line display="inline" fill="none" stroke="#000003" stroke-width="10" stroke-miterlimit="22.9256" x1="853.1" y1="411.1" x2="447.1" y2="97.9"/>
	
		<line display="inline" fill="none" stroke="#000003" stroke-width="10" stroke-miterlimit="22.9256" x1="1064.6" y1="748.3" x2="367.1" y2="191.4"/>
	
		<line display="inline" fill="none" stroke="#000003" stroke-width="10" stroke-miterlimit="22.9256" x1="1000.8" y1="877" x2="403" y2="416.5"/>
	
		<line display="inline" fill="none" stroke="#000003" stroke-width="10" stroke-miterlimit="22.9256" x1="889.3" y1="963.9" x2="292.9" y2="501.8"/>
	
		<line display="inline" fill="none" stroke="#000003" stroke-width="10" stroke-miterlimit="22.9256" x1="739.8" y1="1009" x2="19.8" y2="458.2"/>
	
		<line display="inline" fill="none" stroke="#000003" stroke-width="10" stroke-miterlimit="22.9256" x1="542.9" y1="1020.7" x2="13.4" y2="625.1"/>
	
		<line display="inline" fill="none" stroke="#000003" stroke-width="10" stroke-miterlimit="22.9256" x1="604.2" y1="59.6" x2="370.2" y2="359.6"/>
	
		<line display="inline" fill="none" stroke="#000003" stroke-width="10" stroke-miterlimit="22.9256" x1="709" y1="83.6" x2="434.1" y2="440.4"/>
	
		<line display="inline" fill="none" stroke="#000003" stroke-width="10" stroke-miterlimit="22.9256" x1="805.7" y1="157.6" x2="202" y2="935.2"/>
	
		<line display="inline" fill="none" stroke="#000003" stroke-width="10" stroke-miterlimit="22.9256" x1="396.1" y1="491.6" x2="107.1" y2="852"/>
	
		<line display="inline" fill="none" stroke="#000003" stroke-width="10" stroke-miterlimit="22.9256" x1="243.3" y1="507.6" x2="40.2" y2="744"/>
	
		<line display="inline" fill="none" stroke="#000003" stroke-width="10" stroke-miterlimit="22.9256" x1="118" y1="471.8" x2="10.4" y2="586.6"/>
	
		<line display="inline" fill="none" stroke="#000003" stroke-width="10" stroke-miterlimit="22.9256" x1="874.2" y1="257.5" x2="301.6" y2="986.2"/>
	
		<line display="inline" fill="none" stroke="#000003" stroke-width="10" stroke-miterlimit="22.9256" x1="877.3" y1="440.4" x2="426.5" y2="1015.6"/>
	
		<line display="inline" fill="none" stroke="#000003" stroke-width="10" stroke-miterlimit="22.9256" x1="969.6" y1="497" x2="577" y2="1020.9"/>
	
		<line display="inline" fill="none" stroke="#000003" stroke-width="10" stroke-miterlimit="22.9256" x1="1038.3" y1="570.9" x2="733.2" y2="1004"/>
	
		<line display="inline" fill="none" stroke="#000003" stroke-width="10" stroke-miterlimit="22.9256" x1="1070.2" y1="689.6" x2="881.9" y2="958.2"/>
</g>
<g display="none">
	<path display="inline" fill="none" stroke="#000000" stroke-width="10.131" stroke-miterlimit="22.9256" d="M540,1070.2
		c181.9,0,330.3-238.2,330.3-530.2S721.9,9.8,540,9.8S209.7,248,209.7,540S358.1,1070.2,540,1070.2z"/>
	
		<line display="inline" fill="none" stroke="#000000" stroke-width="10.131" stroke-miterlimit="22.9256" x1="540" y1="223.7" x2="442.2" y2="156"/>
	
		<line display="inline" fill="none" stroke="#000000" stroke-width="10.131" stroke-miterlimit="22.9256" x1="542.9" y1="9.9" x2="443.8" y2="153.8"/>
	
		<line display="inline" fill="none" stroke="#000000" stroke-width="10.131" stroke-miterlimit="22.9256" x1="414.7" y1="49.3" x2="442.2" y2="156"/>
	
		<line display="inline" fill="none" stroke="#000000" stroke-width="10.131" stroke-miterlimit="22.9256" x1="540" y1="223.7" x2="299.6" y2="383.3"/>
	
		<line display="inline" fill="none" stroke="#000000" stroke-width="10.131" stroke-miterlimit="22.9256" x1="304.8" y1="167.8" x2="442.2" y2="156"/>
	
		<line display="inline" fill="none" stroke="#000000" stroke-width="10.131" stroke-miterlimit="22.9256" x1="304.8" y1="167.8" x2="299.6" y2="383.3"/>
	
		<line display="inline" fill="none" stroke="#000000" stroke-width="10.131" stroke-miterlimit="22.9256" x1="234.2" y1="339.4" x2="299.6" y2="383.3"/>
	
		<line display="inline" fill="none" stroke="#000000" stroke-width="10.131" stroke-miterlimit="22.9256" x1="209.7" y1="540" x2="299.6" y2="383.3"/>
	
		<line display="inline" fill="none" stroke="#000000" stroke-width="10.131" stroke-miterlimit="22.9256" x1="209.8" y1="546" x2="299.6" y2="702.1"/>
	
		<line display="inline" fill="none" stroke="#000000" stroke-width="10.131" stroke-miterlimit="22.9256" x1="442.2" y1="156" x2="299.6" y2="702.1"/>
	
		<line display="inline" fill="none" stroke="#000000" stroke-width="10.131" stroke-miterlimit="22.9256" x1="442.2" y1="925.8" x2="299.6" y2="383.3"/>
	
		<line display="inline" fill="none" stroke="#000000" stroke-width="10.131" stroke-miterlimit="22.9256" x1="305.9" y1="914" x2="299.6" y2="702.1"/>
	
		<line display="inline" fill="none" stroke="#000000" stroke-width="10.131" stroke-miterlimit="22.9256" x1="299.6" y1="702.1" x2="234.7" y2="742.7"/>
	
		<line display="inline" fill="none" stroke="#000000" stroke-width="10.131" stroke-miterlimit="22.9256" x1="540" y1="859.6" x2="299.6" y2="702.1"/>
	
		<line display="inline" fill="none" stroke="#000000" stroke-width="10.131" stroke-miterlimit="22.9256" x1="540" y1="859.6" x2="442.2" y2="925.8"/>
	
		<line display="inline" fill="none" stroke="#000000" stroke-width="10.131" stroke-miterlimit="22.9256" x1="305.9" y1="914" x2="442.2" y2="925.8"/>
	
		<line display="inline" fill="none" stroke="#000000" stroke-width="10.131" stroke-miterlimit="22.9256" x1="414.3" y1="1030.5" x2="442.2" y2="925.8"/>
	
		<line display="inline" fill="none" stroke="#000000" stroke-width="10.131" stroke-miterlimit="22.9256" x1="540" y1="1070.2" x2="442.2" y2="925.8"/>
	
		<line display="inline" fill="none" stroke="#000000" stroke-width="10.131" stroke-miterlimit="22.9256" x1="540.9" y1="223.7" x2="638.6" y2="156"/>
	
		<line display="inline" fill="none" stroke="#000000" stroke-width="10.131" stroke-miterlimit="22.9256" x1="540" y1="9.8" x2="637.8" y2="151.8"/>
	
		<line display="inline" fill="none" stroke="#000000" stroke-width="10.131" stroke-miterlimit="22.9256" x1="666.2" y1="49.3" x2="638.6" y2="156"/>
	
		<line display="inline" fill="none" stroke="#000000" stroke-width="10.131" stroke-miterlimit="22.9256" x1="540.9" y1="223.7" x2="781.3" y2="383.3"/>
	
		<line display="inline" fill="none" stroke="#000000" stroke-width="10.131" stroke-miterlimit="22.9256" x1="776.1" y1="167.8" x2="638.6" y2="156"/>
	
		<line display="inline" fill="none" stroke="#000000" stroke-width="10.131" stroke-miterlimit="22.9256" x1="776.1" y1="167.8" x2="781.3" y2="383.3"/>
	
		<line display="inline" fill="none" stroke="#000000" stroke-width="10.131" stroke-miterlimit="22.9256" x1="846.7" y1="339.4" x2="781.3" y2="383.3"/>
	
		<line display="inline" fill="none" stroke="#000000" stroke-width="10.131" stroke-miterlimit="22.9256" x1="871.1" y1="540" x2="781.3" y2="383.3"/>
	
		<line display="inline" fill="none" stroke="#000000" stroke-width="10.131" stroke-miterlimit="22.9256" x1="871.1" y1="546" x2="781.3" y2="702.1"/>
	
		<line display="inline" fill="none" stroke="#000000" stroke-width="10.131" stroke-miterlimit="22.9256" x1="638.6" y1="156" x2="781.3" y2="702.1"/>
	
		<line display="inline" fill="none" stroke="#000000" stroke-width="10.131" stroke-miterlimit="22.9256" x1="638.6" y1="925.8" x2="781.3" y2="383.3"/>
	
		<line display="inline" fill="none" stroke="#000000" stroke-width="10.131" stroke-miterlimit="22.9256" x1="775" y1="914" x2="781.3" y2="702.1"/>
	
		<line display="inline" fill="none" stroke="#000000" stroke-width="10.131" stroke-miterlimit="22.9256" x1="846.2" y1="742.7" x2="781.3" y2="702.1"/>
	
		<line display="inline" fill="none" stroke="#000000" stroke-width="10.131" stroke-miterlimit="22.9256" x1="540.9" y1="859.6" x2="781.3" y2="702.1"/>
	
		<line display="inline" fill="none" stroke="#000000" stroke-width="10.131" stroke-miterlimit="22.9256" x1="540.9" y1="859.6" x2="638.6" y2="925.8"/>
	
		<line display="inline" fill="none" stroke="#000000" stroke-width="10.131" stroke-miterlimit="22.9256" x1="775" y1="914" x2="638.6" y2="925.8"/>
	
		<line display="inline" fill="none" stroke="#000000" stroke-width="10.131" stroke-miterlimit="22.9256" x1="666.5" y1="1030.5" x2="638.6" y2="925.8"/>
	
		<line display="inline" fill="none" stroke="#000000" stroke-width="10.131" stroke-miterlimit="22.9256" x1="540.9" y1="1070.2" x2="638.6" y2="925.8"/>
</g>
<g>
	
		<line fill-rule="evenodd" clip-rule="evenodd" fill="none" stroke="#000000" stroke-width="10.3861" stroke-miterlimit="22.9256" x1="538.6" y1="390.2" x2="262.1" y2="871.4"/>
	
		<line fill-rule="evenodd" clip-rule="evenodd" fill="none" stroke="#000000" stroke-width="10.3861" stroke-miterlimit="22.9256" x1="262.1" y1="871.4" x2="540" y2="871.4"/>
	
		<line fill-rule="evenodd" clip-rule="evenodd" fill="none" stroke="#000000" stroke-width="10.3861" stroke-miterlimit="22.9256" x1="412.6" y1="609.6" x2="492.9" y2="316.8"/>
	
		<line fill-rule="evenodd" clip-rule="evenodd" fill="none" stroke="#000000" stroke-width="10.3861" stroke-miterlimit="22.9256" x1="257.7" y1="572" x2="492.9" y2="316.8"/>
	
		<line fill-rule="evenodd" clip-rule="evenodd" fill="none" stroke="#000000" stroke-width="10.3861" stroke-miterlimit="22.9256" x1="492.8" y1="317.3" x2="537" y2="80.2"/>
	
		<line fill-rule="evenodd" clip-rule="evenodd" fill="none" stroke="#000000" stroke-width="10.3861" stroke-miterlimit="22.9256" x1="262.1" y1="871.4" x2="176" y2="871.4"/>
	
		<line fill-rule="evenodd" clip-rule="evenodd" fill="none" stroke="#000000" stroke-width="10.3861" stroke-miterlimit="22.9256" x1="176" y1="871.4" x2="257.7" y2="572"/>
	
		<line fill-rule="evenodd" clip-rule="evenodd" fill="none" stroke="#000000" stroke-width="10.3861" stroke-miterlimit="22.9256" x1="176" y1="871.4" x2="10" y2="1008.1"/>
	
		<line fill-rule="evenodd" clip-rule="evenodd" fill="none" stroke="#000000" stroke-width="10.3861" stroke-miterlimit="22.9256" x1="413.3" y1="871.4" x2="10" y2="1008.1"/>
	
		<line fill-rule="evenodd" clip-rule="evenodd" fill="none" stroke="#000000" stroke-width="10.3861" stroke-miterlimit="22.9256" x1="211.6" y1="939.8" x2="176" y2="871.4"/>
	
		<line fill-rule="evenodd" clip-rule="evenodd" fill="none" stroke="#000000" stroke-width="10.3861" stroke-miterlimit="22.9256" x1="176" y1="876.2" x2="412.6" y2="609.6"/>
	
		<line fill-rule="evenodd" clip-rule="evenodd" fill="none" stroke="#000000" stroke-width="10.3861" stroke-miterlimit="22.9256" x1="490.5" y1="319.4" x2="538.6" y2="390.2"/>
	
		<line fill-rule="evenodd" clip-rule="evenodd" fill="none" stroke="#000000" stroke-width="10.3861" stroke-miterlimit="22.9256" x1="211.6" y1="939.8" x2="413.7" y2="1007.8"/>
	
		<path fill-rule="evenodd" clip-rule="evenodd" fill="none" stroke="#000000" stroke-width="10.3861" stroke-miterlimit="22.9256" d="
		M540,1008.1c0,0,530,0,530,0c0,0-530-933.2-530-933.2S10,1008.1,10,1008.1C275,1008.1,540,1008.1,540,1008.1"/>
	
		<polyline fill-rule="evenodd" clip-rule="evenodd" fill="none" stroke="#000000" stroke-width="10.3861" stroke-miterlimit="22.9256" points="
		817.9,871.4 541.4,390.2 589.5,319.4 	"/>
	
		<line fill-rule="evenodd" clip-rule="evenodd" fill="none" stroke="#000000" stroke-width="10.3861" stroke-miterlimit="22.9256" x1="817.9" y1="871.4" x2="540" y2="871.4"/>
	
		<line fill-rule="evenodd" clip-rule="evenodd" fill="none" stroke="#000000" stroke-width="10.3861" stroke-miterlimit="22.9256" x1="667.4" y1="609.6" x2="587.1" y2="316.8"/>
	
		<polyline fill-rule="evenodd" clip-rule="evenodd" fill="none" stroke="#000000" stroke-width="10.3861" stroke-miterlimit="22.9256" points="
		822.3,572 587.1,316.8 543,80.2 	"/>
	
		<line fill-rule="evenodd" clip-rule="evenodd" fill="none" stroke="#000000" stroke-width="10.3861" stroke-miterlimit="22.9256" x1="817.9" y1="871.4" x2="904" y2="871.4"/>
	
		<line fill-rule="evenodd" clip-rule="evenodd" fill="none" stroke="#000000" stroke-width="10.3861" stroke-miterlimit="22.9256" x1="904" y1="871.4" x2="822.3" y2="572"/>
	
		<line fill-rule="evenodd" clip-rule="evenodd" fill="none" stroke="#000000" stroke-width="10.3861" stroke-miterlimit="22.9256" x1="904" y1="871.4" x2="1070" y2="1008.1"/>
	
		<line fill-rule="evenodd" clip-rule="evenodd" fill="none" stroke="#000000" stroke-width="10.3861" stroke-miterlimit="22.9256" x1="666.7" y1="871.4" x2="1068.9" y2="1007.8"/>
	
		<line fill-rule="evenodd" clip-rule="evenodd" fill="none" stroke="#000000" stroke-width="10.3861" stroke-miterlimit="22.9256" x1="868.4" y1="939.8" x2="904" y2="871.4"/>
	
		<line fill-rule="evenodd" clip-rule="evenodd" fill="none" stroke="#000000" stroke-width="10.3861" stroke-miterlimit="22.9256" x1="904" y1="876.2" x2="667.4" y2="609.6"/>
	
		<line fill-rule="evenodd" clip-rule="evenodd" fill="none" stroke="#000000" stroke-width="10.3861" stroke-miterlimit="22.9256" x1="868.4" y1="939.8" x2="666.1" y2="1008.3"/>
</g>
</svg>
