<?xml version="1.0" encoding="utf-8"?>
<!-- Generator: Adobe Illustrator 25.4.1, SVG Export Plug-In . SVG Version: 6.00 Build 0)  -->
<svg version="1.0" id="Layer_1" xmlns="http://www.w3.org/2000/svg" xmlns:xlink="http://www.w3.org/1999/xlink" x="0px" y="0px"
	 viewBox="0 0 1080 1080" enable-background="new 0 0 1080 1080" xml:space="preserve">
<g display="none">
	<path display="inline" fill="none" stroke="#000003" stroke-width="10" stroke-miterlimit="22.9256" d="M943.3,289.3
		c-18.7-4-38.4-11.8-57-23.6c-18.7-11.8-36.4-27.5-45.2-35.4c-8.9-7.9-8.9-7.9-11.8-18.7c-3-10.8-8.8-32.5-23.6-54.1
		s-38.4-43.3-67.9-60S672.9,69,636.5,63.1c-36.4-5.9-73.7-5.9-111.1,3c-37.4,8.8-74.7,26.5-102.3,48.2c-27.5,21.6-45.2,47.2-56,76.7
		s-14.7,62.9-12.8,95.4c2,32.5,9.8,63.9,24.6,92.4c14.7,28.5,36.4,54.1,53.1,71.8c16.7,17.7,28.5,27.5,34.4,32.5
		c5.9,4.9,5.9,4.9-16.7,5.9s-67.8,2.9-107.2,6.9c-39.3,4-72.8,9.8-99.3,11.8s-46.2,0-73.7-10.8C142,486,106.6,466.3,83,450.6
		c-23.6-15.7-35.4-27.5-42.3-33.4s-8.9-5.9-12.8,6.9s-9.8,38.3-13.8,68.8c-3.9,30.5-5.9,65.9-2.9,108.1
		c2.9,42.3,10.8,91.4,25.6,133.7c14.7,42.3,36.4,77.7,64.9,111.1c28.5,33.4,63.9,64.9,100.3,89.5s73.7,42.3,114.1,56
		c40.3,13.8,83.6,23.6,147.5,27.5s148.5,1.9,212.4-3s107.2-12.8,152.4-27.5s92.4-36.4,133.7-71.8c41.3-35.4,76.7-84.5,94.4-137.7
		c17.7-53.1,17.7-110.1,3.9-157.3c-13.8-47.2-41.3-84.6-75.7-113.1c-34.4-28.5-75.7-48.2-99.3-62.9c-23.6-14.7-29.5-24.6-32.5-29.5
		c-2.9-4.9-2.9-4.9,6.9-5.9c9.8-1,29.5-2.9,52.1-15.7c22.6-12.8,48.2-36.4,62.9-54.5c14.7-18.2,18.7-31,20.7-37.8
		c2-6.9,2-7.9-6.9-8.4C979.7,293.3,962,293.3,943.3,289.3z"/>
	
		<line display="inline" fill="none" stroke="#000003" stroke-width="10" stroke-miterlimit="22.9256" x1="953.6" y1="362.5" x2="604.2" y2="59.6"/>
	
		<line display="inline" fill="none" stroke="#000003" stroke-width="10" stroke-miterlimit="22.9256" x1="853.1" y1="411.1" x2="447.1" y2="97.9"/>
	
		<line display="inline" fill="none" stroke="#000003" stroke-width="10" stroke-miterlimit="22.9256" x1="1064.6" y1="748.3" x2="367.1" y2="191.4"/>
	
		<line display="inline" fill="none" stroke="#000003" stroke-width="10" stroke-miterlimit="22.9256" x1="1000.8" y1="877" x2="403" y2="416.5"/>
	
		<line display="inline" fill="none" stroke="#000003" stroke-width="10" stroke-miterlimit="22.9256" x1="889.3" y1="963.9" x2="292.9" y2="501.8"/>
	
		<line display="inline" fill="none" stroke="#000003" stroke-width="10" stroke-miterlimit="22.9256" x1="739.8" y1="1009" x2="19.8" y2="458.2"/>
	
		<line display="inline" fill="none" stroke="#000003" stroke-width="10" stroke-miterlimit="22.9256" x1="542.9" y1="1020.7" x2="13.4" y2="625.1"/>
	
		<line display="inline" fill="none" stroke="#000003" stroke-width="10" stroke-miterlimit="22.9256" x1="604.2" y1="59.6" x2="370.2" y2="359.6"/>
	
		<line display="inline" fill="none" stroke="#000003" stroke-width="10" stroke-miterlimit="22.9256" x1="709" y1="83.6" x2="434.1" y2="440.4"/>
	
		<line display="inline" fill="none" stroke="#000003" stroke-width="10" stroke-miterlimit="22.9256" x1="805.7" y1="157.6" x2="202" y2="935.2"/>
	
		<line display="inline" fill="none" stroke="#000003" stroke-width="10" stroke-miterlimit="22.9256" x1="396.1" y1="491.6" x2="107.1" y2="852"/>
	
		<line display="inline" fill="none" stroke="#000003" stroke-width="10" stroke-miterlimit="22.9256" x1="243.3" y1="507.6" x2="40.2" y2="744"/>
	
		<line display="inline" fill="none" stroke="#000003" stroke-width="10" stroke-miterlimit="22.9256" x1="118" y1="471.8" x2="10.4" y2="586.6"/>
	
		<line display="inline" fill="none" stroke="#000003" stroke-width="10" stroke-miterlimit="22.9256" x1="874.2" y1="257.5" x2="301.6" y2="986.2"/>
	
		<line display="inline" fill="none" stroke="#000003" stroke-width="10" stroke-miterlimit="22.9256" x1="877.3" y1="440.4" x2="426.5" y2="1015.6"/>
	
		<line display="inline" fill="none" stroke="#000003" stroke-width="10" stroke-miterlimit="22.9256" x1="969.6" y1="497" x2="577" y2="1020.9"/>
	
		<line display="inline" fill="none" stroke="#000003" stroke-width="10" stroke-miterlimit="22.9256" x1="1038.3" y1="570.9" x2="733.2" y2="1004"/>
	
		<line display="inline" fill="none" stroke="#000003" stroke-width="10" stroke-miterlimit="22.9256" x1="1070.2" y1="689.6" x2="881.9" y2="958.2"/>
</g>
<g display="none">
	<path display="inline" fill="none" stroke="#000000" stroke-width="10.131" stroke-miterlimit="22.9256" d="M540,1070.2
		c181.9,0,330.3-238.2,330.3-530.2S721.9,9.8,540,9.8S209.7,248,209.7,540S358.1,1070.2,540,1070.2z"/>
	
		<line display="inline" fill="none" stroke="#000000" stroke-width="10.131" stroke-miterlimit="22.9256" x1="540" y1="223.7" x2="442.2" y2="156"/>
	
		<line display="inline" fill="none" stroke="#000000" stroke-width="10.131" stroke-miterlimit="22.9256" x1="542.9" y1="9.9" x2="443.8" y2="153.8"/>
	
		<line display="inline" fill="none" stroke="#000000" stroke-width="10.131" stroke-miterlimit="22.9256" x1="414.7" y1="49.3" x2="442.2" y2="156"/>
	
		<line display="inline" fill="none" stroke="#000000" stroke-width="10.131" stroke-miterlimit="22.9256" x1="540" y1="223.7" x2="299.6" y2="383.3"/>
	
		<line display="inline" fill="none" stroke="#000000" stroke-width="10.131" stroke-miterlimit="22.9256" x1="304.8" y1="167.8" x2="442.2" y2="156"/>
	
		<line display="inline" fill="none" stroke="#000000" stroke-width="10.131" stroke-miterlimit="22.9256" x1="304.8" y1="167.8" x2="299.6" y2="383.3"/>
	
		<line display="inline" fill="none" stroke="#000000" stroke-width="10.131" stroke-miterlimit="22.9256" x1="234.2" y1="339.4" x2="299.6" y2="383.3"/>
	
		<line display="inline" fill="none" stroke="#000000" stroke-width="10.131" stroke-miterlimit="22.9256" x1="209.7" y1="540" x2="299.6" y2="383.3"/>
	
		<line display="inline" fill="none" stroke="#000000" stroke-width="10.131" stroke-miterlimit="22.9256" x1="209.8" y1="546" x2="299.6" y2="702.1"/>
	
		<line display="inline" fill="none" stroke="#000000" stroke-width="10.131" stroke-miterlimit="22.9256" x1="442.2" y1="156" x2="299.6" y2="702.1"/>
	
		<line display="inline" fill="none" stroke="#000000" stroke-width="10.131" stroke-miterlimit="22.9256" x1="442.2" y1="925.8" x2="299.6" y2="383.3"/>
	
		<line display="inline" fill="none" stroke="#000000" stroke-width="10.131" stroke-miterlimit="22.9256" x1="305.9" y1="914" x2="299.6" y2="702.1"/>
	
		<line display="inline" fill="none" stroke="#000000" stroke-width="10.131" stroke-miterlimit="22.9256" x1="299.6" y1="702.1" x2="234.7" y2="742.7"/>
	
		<line display="inline" fill="none" stroke="#000000" stroke-width="10.131" stroke-miterlimit="22.9256" x1="540" y1="859.6" x2="299.6" y2="702.1"/>
	
		<line display="inline" fill="none" stroke="#000000" stroke-width="10.131" stroke-miterlimit="22.9256" x1="540" y1="859.6" x2="442.2" y2="925.8"/>
	
		<line display="inline" fill="none" stroke="#000000" stroke-width="10.131" stroke-miterlimit="22.9256" x1="305.9" y1="914" x2="442.2" y2="925.8"/>
	
		<line display="inline" fill="none" stroke="#000000" stroke-width="10.131" stroke-miterlimit="22.9256" x1="414.3" y1="1030.5" x2="442.2" y2="925.8"/>
	
		<line display="inline" fill="none" stroke="#000000" stroke-width="10.131" stroke-miterlimit="22.9256" x1="540" y1="1070.2" x2="442.2" y2="925.8"/>
	
		<line display="inline" fill="none" stroke="#000000" stroke-width="10.131" stroke-miterlimit="22.9256" x1="540.9" y1="223.7" x2="638.6" y2="156"/>
	
		<line display="inline" fill="none" stroke="#000000" stroke-width="10.131" stroke-miterlimit="22.9256" x1="540" y1="9.8" x2="637.8" y2="151.8"/>
	
		<line display="inline" fill="none" stroke="#000000" stroke-width="10.131" stroke-miterlimit="22.9256" x1="666.2" y1="49.3" x2="638.6" y2="156"/>
	
		<line display="inline" fill="none" stroke="#000000" stroke-width="10.131" stroke-miterlimit="22.9256" x1="540.9" y1="223.7" x2="781.3" y2="383.3"/>
	
		<line display="inline" fill="none" stroke="#000000" stroke-width="10.131" stroke-miterlimit="22.9256" x1="776.1" y1="167.8" x2="638.6" y2="156"/>
	
		<line display="inline" fill="none" stroke="#000000" stroke-width="10.131" stroke-miterlimit="22.9256" x1="776.1" y1="167.8" x2="781.3" y2="383.3"/>
	
		<line display="inline" fill="none" stroke="#000000" stroke-width="10.131" stroke-miterlimit="22.9256" x1="846.7" y1="339.4" x2="781.3" y2="383.3"/>
	
		<line display="inline" fill="none" stroke="#000000" stroke-width="10.131" stroke-miterlimit="22.9256" x1="871.1" y1="540" x2="781.3" y2="383.3"/>
	
		<line display="inline" fill="none" stroke="#000000" stroke-width="10.131" stroke-miterlimit="22.9256" x1="871.1" y1="546" x2="781.3" y2="702.1"/>
	
		<line display="inline" fill="none" stroke="#000000" stroke-width="10.131" stroke-miterlimit="22.9256" x1="638.6" y1="156" x2="781.3" y2="702.1"/>
	
		<line display="inline" fill="none" stroke="#000000" stroke-width="10.131" stroke-miterlimit="22.9256" x1="638.6" y1="925.8" x2="781.3" y2="383.3"/>
	
		<line display="inline" fill="none" stroke="#000000" stroke-width="10.131" stroke-miterlimit="22.9256" x1="775" y1="914" x2="781.3" y2="702.1"/>
	
		<line display="inline" fill="none" stroke="#000000" stroke-width="10.131" stroke-miterlimit="22.9256" x1="846.2" y1="742.7" x2="781.3" y2="702.1"/>
	
		<line display="inline" fill="none" stroke="#000000" stroke-width="10.131" stroke-miterlimit="22.9256" x1="540.9" y1="859.6" x2="781.3" y2="702.1"/>
	
		<line display="inline" fill="none" stroke="#000000" stroke-width="10.131" stroke-miterlimit="22.9256" x1="540.9" y1="859.6" x2="638.6" y2="925.8"/>
	
		<line display="inline" fill="none" stroke="#000000" stroke-width="10.131" stroke-miterlimit="22.9256" x1="775" y1="914" x2="638.6" y2="925.8"/>
	
		<line display="inline" fill="none" stroke="#000000" stroke-width="10.131" stroke-miterlimit="22.9256" x1="666.5" y1="1030.5" x2="638.6" y2="925.8"/>
	
		<line display="inline" fill="none" stroke="#000000" stroke-width="10.131" stroke-miterlimit="22.9256" x1="540.9" y1="1070.2" x2="638.6" y2="925.8"/>
</g>
<g>
	<g>
		
			<line fill-rule="evenodd" clip-rule="evenodd" fill="none" stroke="#000000" stroke-width="10.2754" stroke-miterlimit="22.9256" x1="539.1" y1="180.9" x2="798" y2="148.8"/>
		
			<line fill-rule="evenodd" clip-rule="evenodd" fill="none" stroke="#000000" stroke-width="10.2754" stroke-miterlimit="22.9256" x1="667.4" y1="54.9" x2="798" y2="148.8"/>
		
			<line fill-rule="evenodd" clip-rule="evenodd" fill="none" stroke="#000000" stroke-width="10.2754" stroke-miterlimit="22.9256" x1="833.3" y1="37.3" x2="798" y2="148.8"/>
		
			<line fill-rule="evenodd" clip-rule="evenodd" fill="none" stroke="#000000" stroke-width="10.2754" stroke-miterlimit="22.9256" x1="980.2" y1="114.1" x2="798" y2="148.8"/>
		
			<line fill-rule="evenodd" clip-rule="evenodd" fill="none" stroke="#000000" stroke-width="10.2754" stroke-miterlimit="22.9256" x1="980.2" y1="114.1" x2="967.1" y2="310.8"/>
		
			<line fill-rule="evenodd" clip-rule="evenodd" fill="none" stroke="#000000" stroke-width="10.2754" stroke-miterlimit="22.9256" x1="798" y1="148.8" x2="847.3" y2="254.4"/>
		
			<line fill-rule="evenodd" clip-rule="evenodd" fill="none" stroke="#000000" stroke-width="10.2754" stroke-miterlimit="22.9256" x1="539.1" y1="180.9" x2="847.3" y2="254.4"/>
		
			<line fill-rule="evenodd" clip-rule="evenodd" fill="none" stroke="#000000" stroke-width="10.2754" stroke-miterlimit="22.9256" x1="847.3" y1="254.4" x2="967.1" y2="310.8"/>
		
			<line fill-rule="evenodd" clip-rule="evenodd" fill="none" stroke="#000000" stroke-width="10.2754" stroke-miterlimit="22.9256" x1="871.9" y1="442.9" x2="847.3" y2="254.4"/>
		
			<line fill-rule="evenodd" clip-rule="evenodd" fill="none" stroke="#000000" stroke-width="10.2754" stroke-miterlimit="22.9256" x1="871.9" y1="442.9" x2="967.1" y2="310.8"/>
		
			<line fill-rule="evenodd" clip-rule="evenodd" fill="none" stroke="#000000" stroke-width="10.2754" stroke-miterlimit="22.9256" x1="1021.4" y1="507.9" x2="967.1" y2="310.8"/>
		
			<line fill-rule="evenodd" clip-rule="evenodd" fill="none" stroke="#000000" stroke-width="10.2754" stroke-miterlimit="22.9256" x1="967.1" y1="310.8" x2="1068.1" y2="289.9"/>
		
			<line fill-rule="evenodd" clip-rule="evenodd" fill="none" stroke="#000000" stroke-width="10.2754" stroke-miterlimit="22.9256" x1="871.9" y1="442.9" x2="831.4" y2="624.2"/>
		
			<line fill-rule="evenodd" clip-rule="evenodd" fill="none" stroke="#000000" stroke-width="10.2754" stroke-miterlimit="22.9256" x1="831.4" y1="624.2" x2="1021.4" y2="507.9"/>
		
			<line fill-rule="evenodd" clip-rule="evenodd" fill="none" stroke="#000000" stroke-width="10.2754" stroke-miterlimit="22.9256" x1="831.4" y1="624.2" x2="933.9" y2="670.3"/>
		
			<line fill-rule="evenodd" clip-rule="evenodd" fill="none" stroke="#000000" stroke-width="10.2754" stroke-miterlimit="22.9256" x1="831.4" y1="624.2" x2="690.6" y2="726.4"/>
		
			<line fill-rule="evenodd" clip-rule="evenodd" fill="none" stroke="#000000" stroke-width="10.2754" stroke-miterlimit="22.9256" x1="871.9" y1="442.9" x2="690.6" y2="726.4"/>
		
			<line fill-rule="evenodd" clip-rule="evenodd" fill="none" stroke="#000000" stroke-width="10.2754" stroke-miterlimit="22.9256" x1="808" y1="832.6" x2="831.4" y2="624.2"/>
		
			<line fill-rule="evenodd" clip-rule="evenodd" fill="none" stroke="#000000" stroke-width="10.2754" stroke-miterlimit="22.9256" x1="690.6" y1="726.4" x2="588.4" y2="879.6"/>
		
			<line fill-rule="evenodd" clip-rule="evenodd" fill="none" stroke="#000000" stroke-width="10.2754" stroke-miterlimit="22.9256" x1="690.6" y1="726.4" x2="539.1" y2="836.9"/>
		
			<line fill-rule="evenodd" clip-rule="evenodd" fill="none" stroke="#000000" stroke-width="10.2754" stroke-miterlimit="22.9256" x1="539.1" y1="836.9" x2="588.4" y2="879.6"/>
		
			<line fill-rule="evenodd" clip-rule="evenodd" fill="none" stroke="#000000" stroke-width="10.2754" stroke-miterlimit="22.9256" x1="588.4" y1="879.6" x2="808" y2="832.6"/>
		
			<line fill-rule="evenodd" clip-rule="evenodd" fill="none" stroke="#000000" stroke-width="10.2754" stroke-miterlimit="22.9256" x1="588.4" y1="879.6" x2="539.1" y2="1044.5"/>
		
			<line fill-rule="evenodd" clip-rule="evenodd" fill="none" stroke="#000000" stroke-width="10.2754" stroke-miterlimit="22.9256" x1="588.4" y1="879.6" x2="653.9" y2="968.8"/>
	</g>
	<g>
		
			<path fill-rule="evenodd" clip-rule="evenodd" fill="none" stroke="#000000" stroke-width="10.2754" stroke-miterlimit="22.9256" d="
			M540.9,156.5c-12.9-15.5-25.8-31-40.2-44.6c-14.4-13.6-30.2-25.4-47-35.6C437,66,419.4,57.2,402.4,50.7s-33.5-10.6-49-13.2
			c-15.6-2.7-30.2-3.8-45.2-4.1c-15-0.3-30.2,0.3-43.2,1.5c-12.9,1.2-23.5,2.9-36.4,6.4c-12.9,3.5-28.2,8.8-43.7,15.9
			c-15.6,7.1-31.4,15.9-46.1,25.8c-14.7,10-28.2,21.1-39,31.1c-10.9,10-19.1,18.8-27.9,30c-8.8,11.1-18.2,24.6-26.1,39.3
			c-7.9,14.7-14.4,30.5-19.4,44.9c-5,14.4-8.5,27.3-11.2,40.8c-2.6,13.5-4.4,27.6-5,41.7c-0.6,14.1,0,28.2,1.2,41.4
			c1.2,13.2,2.9,25.5,6.4,40.5c3.5,15,8.8,32.6,15.3,51.1c6.5,18.5,14.1,37.9,22.3,56.9c8.2,19.1,17,37.9,26.4,56.7
			c9.4,18.8,19.4,37.6,30.2,56.7c10.9,19.1,22.6,38.4,34,56.3c11.4,17.9,22.6,34.3,34.6,50.8c12,16.4,24.9,32.9,40.2,51.6
			c15.3,18.8,32.9,39.9,51.1,59.9c18.2,20,37,38.7,56.9,56.9s41.1,35.8,62.2,52.5c21.1,16.7,42.3,32.6,67.2,49.5
			c24.6,16.7,52,36.4,80.3,54.1c28.4-17.7,58.3-37.5,82.9-54.1c24.9-16.9,46.1-32.8,67.2-49.5c21.1-16.7,42.2-34.3,62.2-52.5
			c20-18.2,38.7-37,56.9-56.9s35.8-41.1,51.1-59.9c15.3-18.8,28.2-35.2,40.2-51.6c12-16.4,23.2-32.9,34.6-50.8
			c11.5-17.9,23.2-37.3,34-56.3c10.9-19.1,20.9-37.9,30.2-56.7c9.4-18.8,18.2-37.6,26.4-56.7c8.2-19.1,15.8-38.5,22.3-56.9
			c6.5-18.5,11.7-36.1,15.3-51.1c3.5-15,5.3-27.3,6.4-40.5c1.2-13.2,1.8-27.3,1.2-41.4c-0.6-14.1-2.3-28.2-5-41.7
			c-2.6-13.5-6.2-26.4-11.1-40.8c-5-14.4-11.5-30.2-19.4-44.9c-7.9-14.7-17.3-28.2-26.1-39.3c-8.8-11.2-17-20-27.9-30
			c-10.9-10-24.3-21.1-39-31.1c-14.7-10-30.5-18.8-46.1-25.8c-15.6-7-30.8-12.3-43.7-15.9c-12.9-3.5-23.5-5.3-36.4-6.4
			c-12.9-1.2-28.2-1.8-43.1-1.5c-15,0.3-29.7,1.5-45.2,4.1c-15.6,2.6-32,6.7-49,13.2c-17,6.5-34.6,15.3-51.4,25.5
			c-16.7,10.3-32.6,22-47,35.6C565,125.5,552,141,539.1,156.5"/>
		
			<line fill-rule="evenodd" clip-rule="evenodd" fill="none" stroke="#000000" stroke-width="10.2754" stroke-miterlimit="22.9256" x1="540.9" y1="180.9" x2="282" y2="148.8"/>
		
			<line fill-rule="evenodd" clip-rule="evenodd" fill="none" stroke="#000000" stroke-width="10.2754" stroke-miterlimit="22.9256" x1="412.6" y1="54.9" x2="282" y2="148.8"/>
		
			<line fill-rule="evenodd" clip-rule="evenodd" fill="none" stroke="#000000" stroke-width="10.2754" stroke-miterlimit="22.9256" x1="246.6" y1="37.3" x2="282" y2="148.8"/>
		
			<line fill-rule="evenodd" clip-rule="evenodd" fill="none" stroke="#000000" stroke-width="10.2754" stroke-miterlimit="22.9256" x1="99.7" y1="114.1" x2="282" y2="148.8"/>
		
			<line fill-rule="evenodd" clip-rule="evenodd" fill="none" stroke="#000000" stroke-width="10.2754" stroke-miterlimit="22.9256" x1="99.7" y1="114.1" x2="112.9" y2="310.8"/>
		
			<line fill-rule="evenodd" clip-rule="evenodd" fill="none" stroke="#000000" stroke-width="10.2754" stroke-miterlimit="22.9256" x1="282" y1="148.8" x2="232.7" y2="254.4"/>
		
			<line fill-rule="evenodd" clip-rule="evenodd" fill="none" stroke="#000000" stroke-width="10.2754" stroke-miterlimit="22.9256" x1="540.9" y1="180.9" x2="232.7" y2="254.4"/>
		
			<line fill-rule="evenodd" clip-rule="evenodd" fill="none" stroke="#000000" stroke-width="10.2754" stroke-miterlimit="22.9256" x1="232.7" y1="254.4" x2="112.9" y2="310.8"/>
		
			<line fill-rule="evenodd" clip-rule="evenodd" fill="none" stroke="#000000" stroke-width="10.2754" stroke-miterlimit="22.9256" x1="208" y1="442.9" x2="232.7" y2="254.4"/>
		
			<line fill-rule="evenodd" clip-rule="evenodd" fill="none" stroke="#000000" stroke-width="10.2754" stroke-miterlimit="22.9256" x1="208" y1="442.9" x2="112.9" y2="310.8"/>
		
			<line fill-rule="evenodd" clip-rule="evenodd" fill="none" stroke="#000000" stroke-width="10.2754" stroke-miterlimit="22.9256" x1="58.6" y1="507.9" x2="112.9" y2="310.8"/>
		
			<line fill-rule="evenodd" clip-rule="evenodd" fill="none" stroke="#000000" stroke-width="10.2754" stroke-miterlimit="22.9256" x1="112.9" y1="310.8" x2="11.9" y2="289.9"/>
		
			<line fill-rule="evenodd" clip-rule="evenodd" fill="none" stroke="#000000" stroke-width="10.2754" stroke-miterlimit="22.9256" x1="208" y1="442.9" x2="248.5" y2="624.2"/>
		
			<line fill-rule="evenodd" clip-rule="evenodd" fill="none" stroke="#000000" stroke-width="10.2754" stroke-miterlimit="22.9256" x1="248.5" y1="624.2" x2="58.6" y2="507.9"/>
		
			<line fill-rule="evenodd" clip-rule="evenodd" fill="none" stroke="#000000" stroke-width="10.2754" stroke-miterlimit="22.9256" x1="248.5" y1="624.2" x2="146.1" y2="670.3"/>
		
			<line fill-rule="evenodd" clip-rule="evenodd" fill="none" stroke="#000000" stroke-width="10.2754" stroke-miterlimit="22.9256" x1="248.5" y1="624.2" x2="389.4" y2="726.4"/>
		
			<line fill-rule="evenodd" clip-rule="evenodd" fill="none" stroke="#000000" stroke-width="10.2754" stroke-miterlimit="22.9256" x1="208" y1="442.9" x2="389.4" y2="726.4"/>
		
			<line fill-rule="evenodd" clip-rule="evenodd" fill="none" stroke="#000000" stroke-width="10.2754" stroke-miterlimit="22.9256" x1="272" y1="832.6" x2="248.5" y2="624.2"/>
		
			<line fill-rule="evenodd" clip-rule="evenodd" fill="none" stroke="#000000" stroke-width="10.2754" stroke-miterlimit="22.9256" x1="389.4" y1="726.4" x2="491.6" y2="879.6"/>
		
			<line fill-rule="evenodd" clip-rule="evenodd" fill="none" stroke="#000000" stroke-width="10.2754" stroke-miterlimit="22.9256" x1="389.4" y1="726.4" x2="540.9" y2="836.9"/>
		
			<line fill-rule="evenodd" clip-rule="evenodd" fill="none" stroke="#000000" stroke-width="10.2754" stroke-miterlimit="22.9256" x1="540.9" y1="836.9" x2="491.6" y2="879.6"/>
		
			<line fill-rule="evenodd" clip-rule="evenodd" fill="none" stroke="#000000" stroke-width="10.2754" stroke-miterlimit="22.9256" x1="491.6" y1="879.6" x2="272" y2="832.6"/>
		
			<line fill-rule="evenodd" clip-rule="evenodd" fill="none" stroke="#000000" stroke-width="10.2754" stroke-miterlimit="22.9256" x1="491.6" y1="879.6" x2="539.2" y2="1041.8"/>
		
			<line fill-rule="evenodd" clip-rule="evenodd" fill="none" stroke="#000000" stroke-width="10.2754" stroke-miterlimit="22.9256" x1="491.6" y1="879.6" x2="426" y2="968.8"/>
		
			<line fill-rule="evenodd" clip-rule="evenodd" fill="none" stroke="#000000" stroke-width="10.2754" stroke-miterlimit="22.9256" x1="539.1" y1="156.5" x2="539.1" y2="180.5"/>
	</g>
</g>
</svg>
