<?xml version="1.0" encoding="utf-8"?>
<!-- Generator: Adobe Illustrator 25.4.1, SVG Export Plug-In . SVG Version: 6.00 Build 0)  -->
<svg version="1.0" id="Layer_1" xmlns="http://www.w3.org/2000/svg" xmlns:xlink="http://www.w3.org/1999/xlink" x="0px" y="0px"
	 viewBox="0 0 1080 1080" enable-background="new 0 0 1080 1080" xml:space="preserve">
<g display="none">
	
		<path display="inline" fill-rule="evenodd" clip-rule="evenodd" fill="none" stroke="#000003" stroke-width="10" stroke-miterlimit="22.9256" d="
		M943.3,289.3c-18.7-4-38.4-11.8-57-23.6c-18.7-11.8-36.4-27.5-45.2-35.4c-8.9-7.9-8.9-7.9-11.8-18.7c-3-10.8-8.8-32.5-23.6-54.1
		c-14.8-21.6-38.4-43.3-67.9-60c-29.5-16.7-64.9-28.5-101.3-34.4c-36.4-5.9-73.7-5.9-111.1,3c-37.4,8.8-74.7,26.5-102.3,48.2
		c-27.5,21.6-45.2,47.2-56,76.7c-10.8,29.5-14.7,62.9-12.8,95.4c2,32.5,9.8,63.9,24.6,92.4c14.7,28.5,36.4,54.1,53.1,71.8
		c16.7,17.7,28.5,27.5,34.4,32.5c5.9,4.9,5.9,4.9-16.7,5.9c-22.6,1-67.8,2.9-107.2,6.9c-39.3,4-72.8,9.8-99.3,11.8
		c-26.5,2-46.2,0-73.7-10.8C142,486,106.6,466.3,83,450.6c-23.6-15.7-35.4-27.5-42.3-33.4c-6.9-5.9-8.9-5.9-12.8,6.9
		c-3.9,12.8-9.8,38.3-13.8,68.8c-3.9,30.5-5.9,65.9-2.9,108.1c2.9,42.3,10.8,91.4,25.6,133.7c14.7,42.3,36.4,77.7,64.9,111.1
		c28.5,33.4,63.9,64.9,100.3,89.5c36.4,24.6,73.7,42.3,114.1,56c40.3,13.8,83.6,23.6,147.5,27.5c63.9,3.9,148.5,1.9,212.4-3
		c63.9-4.9,107.2-12.8,152.4-27.5c45.2-14.7,92.4-36.4,133.7-71.8c41.3-35.4,76.7-84.5,94.4-137.7c17.7-53.1,17.7-110.1,3.9-157.3
		c-13.8-47.2-41.3-84.6-75.7-113.1c-34.4-28.5-75.7-48.2-99.3-62.9c-23.6-14.7-29.5-24.6-32.5-29.5c-2.9-4.9-2.9-4.9,6.9-5.9
		c9.8-1,29.5-2.9,52.1-15.7c22.6-12.8,48.2-36.4,62.9-54.5c14.7-18.2,18.7-31,20.7-37.8c2-6.9,2-7.9-6.9-8.4
		C979.7,293.3,962,293.3,943.3,289.3z"/>
	
		<line display="inline" fill-rule="evenodd" clip-rule="evenodd" fill="none" stroke="#000003" stroke-width="10" stroke-miterlimit="22.9256" x1="953.6" y1="362.5" x2="604.2" y2="59.6"/>
	
		<line display="inline" fill-rule="evenodd" clip-rule="evenodd" fill="none" stroke="#000003" stroke-width="10" stroke-miterlimit="22.9256" x1="853.1" y1="411.1" x2="447.1" y2="97.9"/>
	
		<line display="inline" fill-rule="evenodd" clip-rule="evenodd" fill="none" stroke="#000003" stroke-width="10" stroke-miterlimit="22.9256" x1="1064.6" y1="748.3" x2="367.1" y2="191.4"/>
	
		<line display="inline" fill-rule="evenodd" clip-rule="evenodd" fill="none" stroke="#000003" stroke-width="10" stroke-miterlimit="22.9256" x1="1000.8" y1="877" x2="403" y2="416.5"/>
	
		<line display="inline" fill-rule="evenodd" clip-rule="evenodd" fill="none" stroke="#000003" stroke-width="10" stroke-miterlimit="22.9256" x1="889.3" y1="963.9" x2="292.9" y2="501.8"/>
	
		<line display="inline" fill-rule="evenodd" clip-rule="evenodd" fill="none" stroke="#000003" stroke-width="10" stroke-miterlimit="22.9256" x1="739.8" y1="1009" x2="19.8" y2="458.2"/>
	
		<line display="inline" fill-rule="evenodd" clip-rule="evenodd" fill="none" stroke="#000003" stroke-width="10" stroke-miterlimit="22.9256" x1="542.9" y1="1020.7" x2="13.4" y2="625.1"/>
	
		<line display="inline" fill-rule="evenodd" clip-rule="evenodd" fill="none" stroke="#000003" stroke-width="10" stroke-miterlimit="22.9256" x1="604.2" y1="59.6" x2="370.2" y2="359.6"/>
	
		<line display="inline" fill-rule="evenodd" clip-rule="evenodd" fill="none" stroke="#000003" stroke-width="10" stroke-miterlimit="22.9256" x1="709" y1="83.6" x2="434.1" y2="440.4"/>
	
		<line display="inline" fill-rule="evenodd" clip-rule="evenodd" fill="none" stroke="#000003" stroke-width="10" stroke-miterlimit="22.9256" x1="805.7" y1="157.6" x2="202" y2="935.2"/>
	
		<line display="inline" fill-rule="evenodd" clip-rule="evenodd" fill="none" stroke="#000003" stroke-width="10" stroke-miterlimit="22.9256" x1="396.1" y1="491.6" x2="107.1" y2="852"/>
	
		<line display="inline" fill-rule="evenodd" clip-rule="evenodd" fill="none" stroke="#000003" stroke-width="10" stroke-miterlimit="22.9256" x1="243.3" y1="507.6" x2="40.2" y2="744"/>
	
		<line display="inline" fill-rule="evenodd" clip-rule="evenodd" fill="none" stroke="#000003" stroke-width="10" stroke-miterlimit="22.9256" x1="118" y1="471.8" x2="10.4" y2="586.6"/>
	
		<line display="inline" fill-rule="evenodd" clip-rule="evenodd" fill="none" stroke="#000003" stroke-width="10" stroke-miterlimit="22.9256" x1="874.2" y1="257.5" x2="301.6" y2="986.2"/>
	
		<line display="inline" fill-rule="evenodd" clip-rule="evenodd" fill="none" stroke="#000003" stroke-width="10" stroke-miterlimit="22.9256" x1="877.3" y1="440.4" x2="426.5" y2="1015.6"/>
	
		<line display="inline" fill-rule="evenodd" clip-rule="evenodd" fill="none" stroke="#000003" stroke-width="10" stroke-miterlimit="22.9256" x1="969.6" y1="497" x2="577" y2="1020.9"/>
	
		<line display="inline" fill-rule="evenodd" clip-rule="evenodd" fill="none" stroke="#000003" stroke-width="10" stroke-miterlimit="22.9256" x1="1038.3" y1="570.9" x2="733.2" y2="1004"/>
	
		<line display="inline" fill-rule="evenodd" clip-rule="evenodd" fill="none" stroke="#000003" stroke-width="10" stroke-miterlimit="22.9256" x1="1070.2" y1="689.6" x2="881.9" y2="958.2"/>
</g>
<g display="none">
	
		<path display="inline" fill-rule="evenodd" clip-rule="evenodd" fill="none" stroke="#000000" stroke-width="10.1308" stroke-miterlimit="22.9256" d="
		M540,1070.2c181.9,0,330.3-238.2,330.3-530.2C870.3,248,721.9,9.8,540,9.8C358.1,9.8,209.7,248,209.7,540
		C209.7,832,358.1,1070.2,540,1070.2z"/>
	
		<line display="inline" fill-rule="evenodd" clip-rule="evenodd" fill="none" stroke="#000000" stroke-width="10.1308" stroke-miterlimit="22.9256" x1="540" y1="223.7" x2="442.2" y2="156"/>
	
		<line display="inline" fill-rule="evenodd" clip-rule="evenodd" fill="none" stroke="#000000" stroke-width="10.1308" stroke-miterlimit="22.9256" x1="542.9" y1="9.9" x2="443.8" y2="153.8"/>
	
		<line display="inline" fill-rule="evenodd" clip-rule="evenodd" fill="none" stroke="#000000" stroke-width="10.1308" stroke-miterlimit="22.9256" x1="414.7" y1="49.3" x2="442.2" y2="156"/>
	
		<line display="inline" fill-rule="evenodd" clip-rule="evenodd" fill="none" stroke="#000000" stroke-width="10.1308" stroke-miterlimit="22.9256" x1="540" y1="223.7" x2="299.6" y2="383.3"/>
	
		<line display="inline" fill-rule="evenodd" clip-rule="evenodd" fill="none" stroke="#000000" stroke-width="10.1308" stroke-miterlimit="22.9256" x1="304.8" y1="167.8" x2="442.2" y2="156"/>
	
		<line display="inline" fill-rule="evenodd" clip-rule="evenodd" fill="none" stroke="#000000" stroke-width="10.1308" stroke-miterlimit="22.9256" x1="304.8" y1="167.8" x2="299.6" y2="383.3"/>
	
		<line display="inline" fill-rule="evenodd" clip-rule="evenodd" fill="none" stroke="#000000" stroke-width="10.1308" stroke-miterlimit="22.9256" x1="234.2" y1="339.4" x2="299.6" y2="383.3"/>
	
		<line display="inline" fill-rule="evenodd" clip-rule="evenodd" fill="none" stroke="#000000" stroke-width="10.1308" stroke-miterlimit="22.9256" x1="209.7" y1="540" x2="299.6" y2="383.3"/>
	
		<line display="inline" fill-rule="evenodd" clip-rule="evenodd" fill="none" stroke="#000000" stroke-width="10.1308" stroke-miterlimit="22.9256" x1="209.8" y1="546" x2="299.6" y2="702.1"/>
	
		<line display="inline" fill-rule="evenodd" clip-rule="evenodd" fill="none" stroke="#000000" stroke-width="10.1308" stroke-miterlimit="22.9256" x1="442.2" y1="156" x2="299.6" y2="702.1"/>
	
		<line display="inline" fill-rule="evenodd" clip-rule="evenodd" fill="none" stroke="#000000" stroke-width="10.1308" stroke-miterlimit="22.9256" x1="442.2" y1="925.8" x2="299.6" y2="383.3"/>
	
		<line display="inline" fill-rule="evenodd" clip-rule="evenodd" fill="none" stroke="#000000" stroke-width="10.1308" stroke-miterlimit="22.9256" x1="305.9" y1="914" x2="299.6" y2="702.1"/>
	
		<line display="inline" fill-rule="evenodd" clip-rule="evenodd" fill="none" stroke="#000000" stroke-width="10.1308" stroke-miterlimit="22.9256" x1="299.6" y1="702.1" x2="234.7" y2="742.7"/>
	
		<line display="inline" fill-rule="evenodd" clip-rule="evenodd" fill="none" stroke="#000000" stroke-width="10.1308" stroke-miterlimit="22.9256" x1="540" y1="859.6" x2="299.6" y2="702.1"/>
	
		<line display="inline" fill-rule="evenodd" clip-rule="evenodd" fill="none" stroke="#000000" stroke-width="10.1308" stroke-miterlimit="22.9256" x1="540" y1="859.6" x2="442.2" y2="925.8"/>
	
		<line display="inline" fill-rule="evenodd" clip-rule="evenodd" fill="none" stroke="#000000" stroke-width="10.1308" stroke-miterlimit="22.9256" x1="305.9" y1="914" x2="442.2" y2="925.8"/>
	
		<line display="inline" fill-rule="evenodd" clip-rule="evenodd" fill="none" stroke="#000000" stroke-width="10.1308" stroke-miterlimit="22.9256" x1="414.3" y1="1030.5" x2="442.2" y2="925.8"/>
	
		<line display="inline" fill-rule="evenodd" clip-rule="evenodd" fill="none" stroke="#000000" stroke-width="10.1308" stroke-miterlimit="22.9256" x1="540" y1="1070.2" x2="442.2" y2="925.8"/>
	
		<line display="inline" fill-rule="evenodd" clip-rule="evenodd" fill="none" stroke="#000000" stroke-width="10.1308" stroke-miterlimit="22.9256" x1="540.9" y1="223.7" x2="638.6" y2="156"/>
	
		<line display="inline" fill-rule="evenodd" clip-rule="evenodd" fill="none" stroke="#000000" stroke-width="10.1308" stroke-miterlimit="22.9256" x1="540" y1="9.8" x2="637.8" y2="151.8"/>
	
		<line display="inline" fill-rule="evenodd" clip-rule="evenodd" fill="none" stroke="#000000" stroke-width="10.1308" stroke-miterlimit="22.9256" x1="666.2" y1="49.3" x2="638.6" y2="156"/>
	
		<line display="inline" fill-rule="evenodd" clip-rule="evenodd" fill="none" stroke="#000000" stroke-width="10.1308" stroke-miterlimit="22.9256" x1="540.9" y1="223.7" x2="781.3" y2="383.3"/>
	
		<line display="inline" fill-rule="evenodd" clip-rule="evenodd" fill="none" stroke="#000000" stroke-width="10.1308" stroke-miterlimit="22.9256" x1="776.1" y1="167.8" x2="638.6" y2="156"/>
	
		<line display="inline" fill-rule="evenodd" clip-rule="evenodd" fill="none" stroke="#000000" stroke-width="10.1308" stroke-miterlimit="22.9256" x1="776.1" y1="167.8" x2="781.3" y2="383.3"/>
	
		<line display="inline" fill-rule="evenodd" clip-rule="evenodd" fill="none" stroke="#000000" stroke-width="10.1308" stroke-miterlimit="22.9256" x1="846.7" y1="339.4" x2="781.3" y2="383.3"/>
	
		<line display="inline" fill-rule="evenodd" clip-rule="evenodd" fill="none" stroke="#000000" stroke-width="10.1308" stroke-miterlimit="22.9256" x1="871.1" y1="540" x2="781.3" y2="383.3"/>
	
		<line display="inline" fill-rule="evenodd" clip-rule="evenodd" fill="none" stroke="#000000" stroke-width="10.1308" stroke-miterlimit="22.9256" x1="871.1" y1="546" x2="781.3" y2="702.1"/>
	
		<line display="inline" fill-rule="evenodd" clip-rule="evenodd" fill="none" stroke="#000000" stroke-width="10.1308" stroke-miterlimit="22.9256" x1="638.6" y1="156" x2="781.3" y2="702.1"/>
	
		<line display="inline" fill-rule="evenodd" clip-rule="evenodd" fill="none" stroke="#000000" stroke-width="10.1308" stroke-miterlimit="22.9256" x1="638.6" y1="925.8" x2="781.3" y2="383.3"/>
	
		<line display="inline" fill-rule="evenodd" clip-rule="evenodd" fill="none" stroke="#000000" stroke-width="10.1308" stroke-miterlimit="22.9256" x1="775" y1="914" x2="781.3" y2="702.1"/>
	
		<line display="inline" fill-rule="evenodd" clip-rule="evenodd" fill="none" stroke="#000000" stroke-width="10.1308" stroke-miterlimit="22.9256" x1="846.2" y1="742.7" x2="781.3" y2="702.1"/>
	
		<line display="inline" fill-rule="evenodd" clip-rule="evenodd" fill="none" stroke="#000000" stroke-width="10.1308" stroke-miterlimit="22.9256" x1="540.9" y1="859.6" x2="781.3" y2="702.1"/>
	
		<line display="inline" fill-rule="evenodd" clip-rule="evenodd" fill="none" stroke="#000000" stroke-width="10.1308" stroke-miterlimit="22.9256" x1="540.9" y1="859.6" x2="638.6" y2="925.8"/>
	
		<line display="inline" fill-rule="evenodd" clip-rule="evenodd" fill="none" stroke="#000000" stroke-width="10.1308" stroke-miterlimit="22.9256" x1="775" y1="914" x2="638.6" y2="925.8"/>
	
		<line display="inline" fill-rule="evenodd" clip-rule="evenodd" fill="none" stroke="#000000" stroke-width="10.1308" stroke-miterlimit="22.9256" x1="666.5" y1="1030.5" x2="638.6" y2="925.8"/>
	
		<line display="inline" fill-rule="evenodd" clip-rule="evenodd" fill="none" stroke="#000000" stroke-width="10.1308" stroke-miterlimit="22.9256" x1="540.9" y1="1070.2" x2="638.6" y2="925.8"/>
</g>
<g display="none">
	<g display="inline">
		
			<path fill-rule="evenodd" clip-rule="evenodd" fill="none" stroke="#000000" stroke-width="10.1294" stroke-miterlimit="22.9256" d="
			M539.6,8c-11.5,8.6-23,17.2-34.5,26.5c-11.5,9.3-23,19.3-33.4,29.2c-10.4,10-19.7,19.9-28.2,29c-8.5,9-16.2,17.1-24.1,26.6
			c-7.9,9.5-16.2,20.4-23.8,30.2c-7.7,9.7-14.8,18.3-22.7,30.2c-8,11.9-16.7,27.1-25.5,43c-8.8,15.9-17.5,32.5-26,50.3
			c-8.5,17.8-16.7,36.8-23.3,54.6c-6.6,17.8-11.5,34.4-15.6,50.3c-4.1,15.9-7.4,31.1-10.7,49.4c-3.3,18.3-6.6,39.6-8.5,57.9
			c-1.9,18.3-2.5,33.5-2.5,50.1c0,16.6,0.6,34.7,3,57.5c2.5,22.8,6.9,50.3,11.5,73.6c4.7,23.3,9.6,42.3,17.8,66
			c8.2,23.7,19.7,52.2,30.1,74.8s19.7,39.2,32.9,60.3c13.1,21.1,30.1,46.8,43,65.1c12.9,18.3,21.6,29.2,37.3,45.6
			c15.6,16.4,38.1,38.2,56.4,54.9c18.3,16.7,32.6,28.3,46.8,39.8"/>
		
			<line fill-rule="evenodd" clip-rule="evenodd" fill="none" stroke="#000000" stroke-width="10.1294" stroke-miterlimit="22.9256" x1="539.6" y1="8" x2="480.4" y2="153.5"/>
		
			<line fill-rule="evenodd" clip-rule="evenodd" fill="none" stroke="#000000" stroke-width="10.1294" stroke-miterlimit="22.9256" x1="539.6" y1="219.5" x2="480.4" y2="153.5"/>
		
			<line fill-rule="evenodd" clip-rule="evenodd" fill="none" stroke="#000000" stroke-width="10.1294" stroke-miterlimit="22.9256" x1="421" y1="117.3" x2="480.4" y2="153.5"/>
		
			<line fill-rule="evenodd" clip-rule="evenodd" fill="none" stroke="#000000" stroke-width="10.1294" stroke-miterlimit="22.9256" x1="480.4" y1="153.5" x2="333.9" y2="247.6"/>
		
			<line fill-rule="evenodd" clip-rule="evenodd" fill="none" stroke="#000000" stroke-width="10.1294" stroke-miterlimit="22.9256" x1="539.6" y1="219.5" x2="414.7" y2="364.3"/>
		
			<line fill-rule="evenodd" clip-rule="evenodd" fill="none" stroke="#000000" stroke-width="10.1294" stroke-miterlimit="22.9256" x1="480.4" y1="153.5" x2="414.7" y2="364.3"/>
		
			<line fill-rule="evenodd" clip-rule="evenodd" fill="none" stroke="#000000" stroke-width="10.1294" stroke-miterlimit="22.9256" x1="337.4" y1="427" x2="332.1" y2="251"/>
		
			<line fill-rule="evenodd" clip-rule="evenodd" fill="none" stroke="#000000" stroke-width="10.1294" stroke-miterlimit="22.9256" x1="414.7" y1="364.3" x2="337.4" y2="427"/>
		
			<line fill-rule="evenodd" clip-rule="evenodd" fill="none" stroke="#000000" stroke-width="10.1294" stroke-miterlimit="22.9256" x1="279.2" y1="390.6" x2="337.4" y2="427"/>
		
			<line fill-rule="evenodd" clip-rule="evenodd" fill="none" stroke="#000000" stroke-width="10.1294" stroke-miterlimit="22.9256" x1="337.4" y1="427" x2="260.7" y2="535.3"/>
		
			<line fill-rule="evenodd" clip-rule="evenodd" fill="none" stroke="#000000" stroke-width="10.1294" stroke-miterlimit="22.9256" x1="414.7" y1="364.3" x2="371.9" y2="541"/>
		
			<line fill-rule="evenodd" clip-rule="evenodd" fill="none" stroke="#000000" stroke-width="10.1294" stroke-miterlimit="22.9256" x1="371.9" y1="541" x2="337.4" y2="427"/>
		
			<line fill-rule="evenodd" clip-rule="evenodd" fill="none" stroke="#000000" stroke-width="10.1294" stroke-miterlimit="22.9256" x1="371.9" y1="541" x2="337.4" y2="650.7"/>
		
			<line fill-rule="evenodd" clip-rule="evenodd" fill="none" stroke="#000000" stroke-width="10.1294" stroke-miterlimit="22.9256" x1="260.8" y1="544" x2="337.4" y2="650.7"/>
		
			<line fill-rule="evenodd" clip-rule="evenodd" fill="none" stroke="#000000" stroke-width="10.1294" stroke-miterlimit="22.9256" x1="337.4" y1="650.7" x2="280" y2="687.8"/>
		
			<line fill-rule="evenodd" clip-rule="evenodd" fill="none" stroke="#000000" stroke-width="10.1294" stroke-miterlimit="22.9256" x1="337.4" y1="650.7" x2="416.3" y2="716.2"/>
		
			<line fill-rule="evenodd" clip-rule="evenodd" fill="none" stroke="#000000" stroke-width="10.1294" stroke-miterlimit="22.9256" x1="371.2" y1="538.6" x2="416.3" y2="716.2"/>
		
			<line fill-rule="evenodd" clip-rule="evenodd" fill="none" stroke="#000000" stroke-width="10.1294" stroke-miterlimit="22.9256" x1="337.4" y1="650.7" x2="332.8" y2="826.8"/>
		
			<line fill-rule="evenodd" clip-rule="evenodd" fill="none" stroke="#000000" stroke-width="10.1294" stroke-miterlimit="22.9256" x1="415.8" y1="714.1" x2="480.4" y2="925.6"/>
		
			<line fill-rule="evenodd" clip-rule="evenodd" fill="none" stroke="#000000" stroke-width="10.1294" stroke-miterlimit="22.9256" x1="336.3" y1="833.6" x2="480.4" y2="925.6"/>
		
			<line fill-rule="evenodd" clip-rule="evenodd" fill="none" stroke="#000000" stroke-width="10.1294" stroke-miterlimit="22.9256" x1="539.6" y1="1072.8" x2="480.4" y2="925.6"/>
		
			<line fill-rule="evenodd" clip-rule="evenodd" fill="none" stroke="#000000" stroke-width="10.1294" stroke-miterlimit="22.9256" x1="480.4" y1="925.6" x2="422.7" y2="963.2"/>
		
			<line fill-rule="evenodd" clip-rule="evenodd" fill="none" stroke="#000000" stroke-width="10.1294" stroke-miterlimit="22.9256" x1="416.3" y1="716.2" x2="539.6" y2="860"/>
		
			<line fill-rule="evenodd" clip-rule="evenodd" fill="none" stroke="#000000" stroke-width="10.1294" stroke-miterlimit="22.9256" x1="539.6" y1="860" x2="480.4" y2="925.6"/>
	</g>
	<g display="inline">
		
			<path fill-rule="evenodd" clip-rule="evenodd" fill="none" stroke="#000000" stroke-width="10.1294" stroke-miterlimit="22.9256" d="
			M540.4,8c11.5,8.6,23,17.2,34.5,26.5c11.5,9.3,23,19.3,33.4,29.2s19.7,19.9,28.2,29c8.5,9,16.2,17.1,24.1,26.6
			c7.9,9.5,16.2,20.4,23.8,30.2c7.7,9.7,14.8,18.3,22.7,30.2c7.9,11.9,16.7,27.1,25.5,43c8.8,15.9,17.5,32.5,26,50.3
			c8.5,17.8,16.7,36.8,23.3,54.6c6.6,17.8,11.5,34.4,15.6,50.3c4.1,15.9,7.4,31.1,10.7,49.4c3.3,18.3,6.6,39.6,8.5,57.9
			c1.9,18.3,2.5,33.5,2.5,50.1c0,16.6-0.5,34.7-3,57.5c-2.5,22.8-6.9,50.3-11.5,73.6c-4.7,23.3-9.6,42.3-17.8,66
			c-8.2,23.7-19.7,52.2-30.1,74.8s-19.7,39.2-32.9,60.3c-13.1,21.1-30.1,46.8-43,65.1c-12.9,18.3-21.6,29.2-37.2,45.6
			c-15.6,16.4-38.1,38.2-56.4,54.9c-18.4,16.7-32.6,28.3-46.8,39.8"/>
		
			<line fill-rule="evenodd" clip-rule="evenodd" fill="none" stroke="#000000" stroke-width="10.1294" stroke-miterlimit="22.9256" x1="540.4" y1="8" x2="599.6" y2="153.5"/>
		
			<line fill-rule="evenodd" clip-rule="evenodd" fill="none" stroke="#000000" stroke-width="10.1294" stroke-miterlimit="22.9256" x1="540.4" y1="219.5" x2="599.6" y2="153.5"/>
		
			<line fill-rule="evenodd" clip-rule="evenodd" fill="none" stroke="#000000" stroke-width="10.1294" stroke-miterlimit="22.9256" x1="659" y1="117.3" x2="599.6" y2="153.5"/>
		
			<line fill-rule="evenodd" clip-rule="evenodd" fill="none" stroke="#000000" stroke-width="10.1294" stroke-miterlimit="22.9256" x1="599.6" y1="153.5" x2="746.1" y2="247.6"/>
		
			<line fill-rule="evenodd" clip-rule="evenodd" fill="none" stroke="#000000" stroke-width="10.1294" stroke-miterlimit="22.9256" x1="540.4" y1="219.5" x2="665.3" y2="364.3"/>
		
			<line fill-rule="evenodd" clip-rule="evenodd" fill="none" stroke="#000000" stroke-width="10.1294" stroke-miterlimit="22.9256" x1="599.6" y1="153.5" x2="665.3" y2="364.3"/>
		
			<line fill-rule="evenodd" clip-rule="evenodd" fill="none" stroke="#000000" stroke-width="10.1294" stroke-miterlimit="22.9256" x1="742.6" y1="427" x2="747.9" y2="251"/>
		
			<line fill-rule="evenodd" clip-rule="evenodd" fill="none" stroke="#000000" stroke-width="10.1294" stroke-miterlimit="22.9256" x1="665.3" y1="364.3" x2="742.6" y2="427"/>
		
			<line fill-rule="evenodd" clip-rule="evenodd" fill="none" stroke="#000000" stroke-width="10.1294" stroke-miterlimit="22.9256" x1="800.8" y1="390.6" x2="742.6" y2="427"/>
		
			<line fill-rule="evenodd" clip-rule="evenodd" fill="none" stroke="#000000" stroke-width="10.1294" stroke-miterlimit="22.9256" x1="742.6" y1="427" x2="819.3" y2="535.3"/>
		
			<line fill-rule="evenodd" clip-rule="evenodd" fill="none" stroke="#000000" stroke-width="10.1294" stroke-miterlimit="22.9256" x1="665.3" y1="364.3" x2="708.1" y2="541"/>
		
			<line fill-rule="evenodd" clip-rule="evenodd" fill="none" stroke="#000000" stroke-width="10.1294" stroke-miterlimit="22.9256" x1="708.1" y1="541" x2="742.6" y2="427"/>
		
			<line fill-rule="evenodd" clip-rule="evenodd" fill="none" stroke="#000000" stroke-width="10.1294" stroke-miterlimit="22.9256" x1="708.1" y1="541" x2="742.6" y2="650.7"/>
		
			<line fill-rule="evenodd" clip-rule="evenodd" fill="none" stroke="#000000" stroke-width="10.1294" stroke-miterlimit="22.9256" x1="819.2" y1="544" x2="742.6" y2="650.7"/>
		
			<line fill-rule="evenodd" clip-rule="evenodd" fill="none" stroke="#000000" stroke-width="10.1294" stroke-miterlimit="22.9256" x1="742.6" y1="650.7" x2="800" y2="687.8"/>
		
			<line fill-rule="evenodd" clip-rule="evenodd" fill="none" stroke="#000000" stroke-width="10.1294" stroke-miterlimit="22.9256" x1="742.6" y1="650.7" x2="663.7" y2="716.2"/>
		
			<line fill-rule="evenodd" clip-rule="evenodd" fill="none" stroke="#000000" stroke-width="10.1294" stroke-miterlimit="22.9256" x1="708.8" y1="538.6" x2="663.7" y2="716.2"/>
		
			<line fill-rule="evenodd" clip-rule="evenodd" fill="none" stroke="#000000" stroke-width="10.1294" stroke-miterlimit="22.9256" x1="742.6" y1="650.7" x2="747.2" y2="826.8"/>
		
			<line fill-rule="evenodd" clip-rule="evenodd" fill="none" stroke="#000000" stroke-width="10.1294" stroke-miterlimit="22.9256" x1="664.2" y1="714.1" x2="599.6" y2="925.6"/>
		
			<line fill-rule="evenodd" clip-rule="evenodd" fill="none" stroke="#000000" stroke-width="10.1294" stroke-miterlimit="22.9256" x1="743.7" y1="833.6" x2="599.6" y2="925.6"/>
		
			<line fill-rule="evenodd" clip-rule="evenodd" fill="none" stroke="#000000" stroke-width="10.1294" stroke-miterlimit="22.9256" x1="540.4" y1="1072.8" x2="599.6" y2="925.6"/>
		
			<line fill-rule="evenodd" clip-rule="evenodd" fill="none" stroke="#000000" stroke-width="10.1294" stroke-miterlimit="22.9256" x1="599.6" y1="925.6" x2="657.3" y2="963.2"/>
		
			<line fill-rule="evenodd" clip-rule="evenodd" fill="none" stroke="#000000" stroke-width="10.1294" stroke-miterlimit="22.9256" x1="663.7" y1="716.2" x2="540.4" y2="860"/>
		
			<line fill-rule="evenodd" clip-rule="evenodd" fill="none" stroke="#000000" stroke-width="10.1294" stroke-miterlimit="22.9256" x1="540.4" y1="860" x2="599.6" y2="925.6"/>
	</g>
	<ellipse display="inline" fill-rule="evenodd" clip-rule="evenodd" cx="540" cy="12.7" rx="8.4" ry="10.2"/>
	<ellipse display="inline" fill-rule="evenodd" clip-rule="evenodd" cx="540" cy="1066.2" rx="10.3" ry="11.4"/>
</g>
<g>
	<g>
		<g>
			
				<line fill-rule="evenodd" clip-rule="evenodd" fill="none" stroke="#000000" stroke-width="10.1321" stroke-miterlimit="22.9256" x1="540.5" y1="5.2" x2="470.6" y2="206"/>
			
				<line fill-rule="evenodd" clip-rule="evenodd" fill="none" stroke="#000000" stroke-width="10.1321" stroke-miterlimit="22.9256" x1="399.8" y1="155.8" x2="470.6" y2="206"/>
			
				<line fill-rule="evenodd" clip-rule="evenodd" fill="none" stroke="#000000" stroke-width="10.1321" stroke-miterlimit="22.9256" x1="294.4" y1="333.9" x2="470.6" y2="206"/>
			
				<line fill-rule="evenodd" clip-rule="evenodd" fill="none" stroke="#000000" stroke-width="10.1321" stroke-miterlimit="22.9256" x1="298.4" y1="585.9" x2="294.4" y2="333.9"/>
			
				<line fill-rule="evenodd" clip-rule="evenodd" fill="none" stroke="#000000" stroke-width="10.1321" stroke-miterlimit="22.9256" x1="228.5" y1="532.7" x2="298.4" y2="585.9"/>
			
				<line fill-rule="evenodd" clip-rule="evenodd" fill="none" stroke="#000000" stroke-width="10.1321" stroke-miterlimit="22.9256" x1="207.8" y1="739.4" x2="298.3" y2="584.2"/>
			
				<line fill-rule="evenodd" clip-rule="evenodd" fill="none" stroke="#000000" stroke-width="10.1321" stroke-miterlimit="22.9256" x1="207.8" y1="739.4" x2="298.4" y2="838.9"/>
			
				<line fill-rule="evenodd" clip-rule="evenodd" fill="none" stroke="#000000" stroke-width="10.1321" stroke-miterlimit="22.9256" x1="232.4" y1="866.4" x2="298.4" y2="838.9"/>
			
				<line fill-rule="evenodd" clip-rule="evenodd" fill="none" stroke="#000000" stroke-width="10.1321" stroke-miterlimit="22.9256" x1="304.3" y1="975.7" x2="298.4" y2="838.9"/>
			
				<line fill-rule="evenodd" clip-rule="evenodd" fill="none" stroke="#000000" stroke-width="10.1321" stroke-miterlimit="22.9256" x1="304.2" y1="973.9" x2="441.1" y2="981.6"/>
			
				<line fill-rule="evenodd" clip-rule="evenodd" fill="none" stroke="#000000" stroke-width="10.1321" stroke-miterlimit="22.9256" x1="441.1" y1="981.6" x2="412.5" y2="1046.5"/>
			
				<line fill-rule="evenodd" clip-rule="evenodd" fill="none" stroke="#000000" stroke-width="10.1321" stroke-miterlimit="22.9256" x1="441.1" y1="981.6" x2="540.5" y2="1072.1"/>
			
				<path fill-rule="evenodd" clip-rule="evenodd" fill="none" stroke="#000000" stroke-width="10.1321" stroke-miterlimit="22.9256" d="
				M540.5,1072.1c-9.8,0-19.7,0-33.4-1.3c-13.8-1.3-31.5-3.9-47.9-7.2c-16.4-3.3-31.5-7.2-45.3-12.8c-13.8-5.6-26.2-12.8-42-23.3
				c-15.8-10.5-34.8-24.3-46.6-33.5c-11.8-9.2-16.4-13.8-24.9-23.3c-8.5-9.5-21-23.9-33-42.1c-12-18.2-23.5-40.2-31.7-57.9
				c-8.2-17.7-13.1-31.2-17.5-49.4c-4.5-18.2-8.4-41.2-10-55.6c-1.6-14.5-1-20.4-0.3-36.8c0.6-16.4,1.3-43.3,2.6-66.6
				c1.3-23.3,3.3-43,6.4-64c3.1-21,7.4-43.3,11-60.7c3.6-17.4,6.6-29.8,10.7-46.3c4.1-16.4,9.4-36.7,16.2-57.7
				c6.9-21,15.4-42.7,22.3-59.4c6.9-16.7,12.2-28.5,19.4-43.3c7.2-14.8,16.4-32.5,25.6-49.5c9.2-17.1,18.4-33.5,29.2-50.5
				s23.3-34.8,32.5-48.2c9.2-13.5,15.1-22.6,26.6-37.7c11.5-15.1,28.5-36.1,46.6-56.1c18-20,37.1-39,51.2-52.8
				c14.1-13.8,23.3-22.3,32.5-30.8"/>
			
				<line fill-rule="evenodd" clip-rule="evenodd" fill="none" stroke="#000000" stroke-width="10.1321" stroke-miterlimit="22.9256" x1="470.6" y1="206" x2="390.9" y2="497.3"/>
			
				<line fill-rule="evenodd" clip-rule="evenodd" fill="none" stroke="#000000" stroke-width="10.1321" stroke-miterlimit="22.9256" x1="390.9" y1="497.3" x2="297.7" y2="585.4"/>
			
				<line fill-rule="evenodd" clip-rule="evenodd" fill="none" stroke="#000000" stroke-width="10.1321" stroke-miterlimit="22.9256" x1="540.5" y1="298.5" x2="390.9" y2="497.3"/>
			
				<line fill-rule="evenodd" clip-rule="evenodd" fill="none" stroke="#000000" stroke-width="10.1321" stroke-miterlimit="22.9256" x1="470.6" y1="206" x2="540.5" y2="298.5"/>
			
				<line fill-rule="evenodd" clip-rule="evenodd" fill="none" stroke="#000000" stroke-width="10.1321" stroke-miterlimit="22.9256" x1="339.7" y1="736.5" x2="298.4" y2="838.9"/>
			
				<line fill-rule="evenodd" clip-rule="evenodd" fill="none" stroke="#000000" stroke-width="10.1321" stroke-miterlimit="22.9256" x1="398.8" y1="881.2" x2="442.1" y2="982.5"/>
			
				<line fill-rule="evenodd" clip-rule="evenodd" fill="none" stroke="#000000" stroke-width="10.1321" stroke-miterlimit="22.9256" x1="540.5" y1="941.2" x2="441.1" y2="981.6"/>
			
				<line fill-rule="evenodd" clip-rule="evenodd" fill="none" stroke="#000000" stroke-width="10.1321" stroke-miterlimit="22.9256" x1="298.4" y1="838.9" x2="540.5" y2="941.2"/>
			
				<line fill-rule="evenodd" clip-rule="evenodd" fill="none" stroke="#000000" stroke-width="10.1321" stroke-miterlimit="22.9256" x1="298.3" y1="584.7" x2="339.7" y2="736.5"/>
			
				<line fill-rule="evenodd" clip-rule="evenodd" fill="none" stroke="#000000" stroke-width="10.1321" stroke-miterlimit="22.9256" x1="339.7" y1="736.5" x2="399.8" y2="883.6"/>
			
				<line fill-rule="evenodd" clip-rule="evenodd" fill="none" stroke="#000000" stroke-width="10.1321" stroke-miterlimit="22.9256" x1="390.9" y1="497.3" x2="339.7" y2="736.5"/>
		</g>
		<g>
			
				<line fill-rule="evenodd" clip-rule="evenodd" fill="none" stroke="#000000" stroke-width="10.1321" stroke-miterlimit="22.9256" x1="539.5" y1="5.2" x2="609.4" y2="206"/>
			
				<line fill-rule="evenodd" clip-rule="evenodd" fill="none" stroke="#000000" stroke-width="10.1321" stroke-miterlimit="22.9256" x1="680.2" y1="155.8" x2="609.4" y2="206"/>
			
				<line fill-rule="evenodd" clip-rule="evenodd" fill="none" stroke="#000000" stroke-width="10.1321" stroke-miterlimit="22.9256" x1="785.6" y1="333.9" x2="609.4" y2="206"/>
			
				<line fill-rule="evenodd" clip-rule="evenodd" fill="none" stroke="#000000" stroke-width="10.1321" stroke-miterlimit="22.9256" x1="781.6" y1="585.9" x2="785.6" y2="333.9"/>
			
				<line fill-rule="evenodd" clip-rule="evenodd" fill="none" stroke="#000000" stroke-width="10.1321" stroke-miterlimit="22.9256" x1="851.5" y1="532.7" x2="781.6" y2="585.9"/>
			
				<line fill-rule="evenodd" clip-rule="evenodd" fill="none" stroke="#000000" stroke-width="10.1321" stroke-miterlimit="22.9256" x1="872.2" y1="739.4" x2="781.7" y2="584.2"/>
			
				<line fill-rule="evenodd" clip-rule="evenodd" fill="none" stroke="#000000" stroke-width="10.1321" stroke-miterlimit="22.9256" x1="872.2" y1="739.4" x2="781.6" y2="838.9"/>
			
				<line fill-rule="evenodd" clip-rule="evenodd" fill="none" stroke="#000000" stroke-width="10.1321" stroke-miterlimit="22.9256" x1="847.6" y1="866.4" x2="781.6" y2="838.9"/>
			
				<line fill-rule="evenodd" clip-rule="evenodd" fill="none" stroke="#000000" stroke-width="10.1321" stroke-miterlimit="22.9256" x1="775.7" y1="975.7" x2="781.6" y2="838.9"/>
			
				<line fill-rule="evenodd" clip-rule="evenodd" fill="none" stroke="#000000" stroke-width="10.1321" stroke-miterlimit="22.9256" x1="775.8" y1="973.9" x2="638.9" y2="981.6"/>
			
				<line fill-rule="evenodd" clip-rule="evenodd" fill="none" stroke="#000000" stroke-width="10.1321" stroke-miterlimit="22.9256" x1="638.9" y1="981.6" x2="667.5" y2="1046.5"/>
			
				<line fill-rule="evenodd" clip-rule="evenodd" fill="none" stroke="#000000" stroke-width="10.1321" stroke-miterlimit="22.9256" x1="638.9" y1="981.6" x2="539.5" y2="1072.1"/>
			
				<path fill-rule="evenodd" clip-rule="evenodd" fill="none" stroke="#000000" stroke-width="10.1321" stroke-miterlimit="22.9256" d="
				M539.5,1072.1c9.8,0,19.7,0,33.4-1.3c13.8-1.3,31.5-3.9,47.9-7.2c16.4-3.3,31.5-7.2,45.3-12.8c13.8-5.6,26.2-12.8,42-23.3
				c15.8-10.5,34.8-24.3,46.6-33.5c11.8-9.2,16.4-13.8,24.9-23.3c8.5-9.5,21-23.9,33-42.1c12-18.2,23.4-40.2,31.7-57.9
				c8.2-17.7,13.1-31.2,17.5-49.4c4.4-18.2,8.4-41.2,10-55.6c1.6-14.5,1-20.4,0.3-36.8c-0.6-16.4-1.3-43.3-2.6-66.6
				c-1.3-23.3-3.3-43-6.4-64c-3.1-21-7.4-43.3-11-60.7c-3.6-17.4-6.6-29.8-10.7-46.3c-4.1-16.4-9.4-36.7-16.3-57.7
				c-6.9-21-15.4-42.7-22.3-59.4c-6.9-16.7-12.1-28.5-19.4-43.3c-7.2-14.8-16.4-32.5-25.6-49.5c-9.2-17.1-18.4-33.5-29.2-50.5
				c-10.8-17.1-23.3-34.8-32.5-48.2c-9.2-13.5-15.1-22.6-26.6-37.7c-11.5-15.1-28.5-36.1-46.6-56.1c-18-20-37.1-39-51.2-52.8
				c-14.1-13.8-23.3-22.3-32.5-30.8"/>
			
				<line fill-rule="evenodd" clip-rule="evenodd" fill="none" stroke="#000000" stroke-width="10.1321" stroke-miterlimit="22.9256" x1="609.4" y1="206" x2="689.1" y2="497.3"/>
			
				<line fill-rule="evenodd" clip-rule="evenodd" fill="none" stroke="#000000" stroke-width="10.1321" stroke-miterlimit="22.9256" x1="689.1" y1="497.3" x2="782.3" y2="585.4"/>
			
				<line fill-rule="evenodd" clip-rule="evenodd" fill="none" stroke="#000000" stroke-width="10.1321" stroke-miterlimit="22.9256" x1="539.5" y1="298.5" x2="689.1" y2="497.3"/>
			
				<line fill-rule="evenodd" clip-rule="evenodd" fill="none" stroke="#000000" stroke-width="10.1321" stroke-miterlimit="22.9256" x1="609.4" y1="206" x2="539.5" y2="298.5"/>
			
				<line fill-rule="evenodd" clip-rule="evenodd" fill="none" stroke="#000000" stroke-width="10.1321" stroke-miterlimit="22.9256" x1="740.3" y1="736.5" x2="781.6" y2="838.9"/>
			
				<line fill-rule="evenodd" clip-rule="evenodd" fill="none" stroke="#000000" stroke-width="10.1321" stroke-miterlimit="22.9256" x1="681.2" y1="881.2" x2="637.9" y2="982.5"/>
			
				<line fill-rule="evenodd" clip-rule="evenodd" fill="none" stroke="#000000" stroke-width="10.1321" stroke-miterlimit="22.9256" x1="539.5" y1="941.2" x2="638.9" y2="981.6"/>
			
				<line fill-rule="evenodd" clip-rule="evenodd" fill="none" stroke="#000000" stroke-width="10.1321" stroke-miterlimit="22.9256" x1="781.6" y1="838.9" x2="539.5" y2="941.2"/>
			
				<line fill-rule="evenodd" clip-rule="evenodd" fill="none" stroke="#000000" stroke-width="10.1321" stroke-miterlimit="22.9256" x1="781.7" y1="584.7" x2="740.3" y2="736.5"/>
			
				<line fill-rule="evenodd" clip-rule="evenodd" fill="none" stroke="#000000" stroke-width="10.1321" stroke-miterlimit="22.9256" x1="740.3" y1="736.5" x2="680.2" y2="883.6"/>
			
				<line fill-rule="evenodd" clip-rule="evenodd" fill="none" stroke="#000000" stroke-width="10.1321" stroke-miterlimit="22.9256" x1="689.1" y1="497.3" x2="740.3" y2="736.5"/>
		</g>
	</g>
	<ellipse fill-rule="evenodd" clip-rule="evenodd" cx="539.9" cy="11.1" rx="7.4" ry="10.6"/>
</g>
</svg>
